/* XPM */
static char *e3c1344037214dafb5762e866338c64flkEei8IlD8Wp280F[] = {
/* columns rows colors chars-per-pixel */
"100 100 25 1 ",
"  c black",
". c #26053E",
"X c #162535",
"o c #1A2B3B",
"O c #1E303E",
"+ c #781410",
"@ c #4D2D16",
"# c #464009",
"$ c #645D11",
"% c #3C1A55",
"& c #4C1078",
"* c #9B1F1F",
"= c #8F2929",
"- c #805A1E",
"; c #83790D",
": c #BD713D",
"> c #A69A14",
", c #A29719",
"< c #BDAF13",
"1 c #9E952E",
"2 c #CD9845",
"3 c #ECB764",
"4 c #1ABFDC",
"5 c #639BFF",
"6 c white",
/* pixels */
"OOOOOOOOOOOOOOOOOOOOOOOOOOOOOOOOOOOOOOOOOOOOOOOOOOOOOOOOOOOOOOOOOOOOOOOOOOOOOOOOOOOOOOOOOOOOOOOOOOOO",
"OOOOOOOOOOOOOOOOOOOOOOOOOOOOOOOOOOOOOOOOOOOOOOOOOOOOOOOOOOOOOOOOOOOOOOOOOOOOOOOOOOOOOOOOOOOOOOOOOOOO",
"OOOOOOOOOOOOOOOOOOOOOOOOOOOOOOOOOOOOOOOOOOOOOOOOOOOOOOOOOOOOOOOOOOOOOOOOOOOOOOOOOOOOOOOOOOOOOOOOOOOO",
"OOOOooooooooooooooooooooooooooooooooooooooooooooooooooooooooooooooooooooooooooooooooooooooooooooOOOO",
"OOOooooooooooooooooooooooooooooooooooooooooooooooooooooooooooooooooooooooooooooooooooooooooooooooOOO",
"OOOooooooooooooooooooooooooooooooooooooooooooooooooooooooooooooooooooooooooooooooooooooooooooooooOOO",
"OOOooooooooooooooooooooooooooooooooooooooooooooooooooooooooooooooooooooooooooooooooooooooooooooooOOO",
"OOOooooooooooooooooooooooooooooooooooooooooooooooooooooooooooooooooooooooooooooooooooooooooooooooOOO",
"OOOooooooooooooooooooooooooooooooooooooooooooooooooooooooooooooooooooooooooooooooooooooooooooooooOOO",
"OOOooooooooooooooooooooooooooooooooooooooooooooooooooooooooooooooooooooooooooooooooooooooooooooooOOO",
"OOOoooooooooooooooooooooooooooooo,,,,,,,,o,,,,,,,,,,,,,,o,,,,,,,,ooooooooooooooooooooooooooooooooOOO",
"OOOoooooooooooooooooooooooooooo,,<<<<<;;;,<<<<<<<<<<<<<<,;;;<<<<<,,ooooooooooooooooooooooooooooooOOO",
"OOOoooooooooooooooooooooooooooo,,<<<<;,,,<<<<<<<<<<<<<<<<,,,;<<<<,,ooooooooooooooooooooooooooooooOOO",
"OOOoooooooooooooooooooooooooooo,,<<<<;,,,<<<<<<<<<<<<<<<<,,,;<<<<,,ooooooooooooooooooooooooooooooOOO",
"OOOoooooooooooooooooooooooooooo,,<<;;,<<<<<<<<<<<<<<<<<<<<<<,;;<<,,ooooooooooooooooooooooooooooooOOO",
"OOOoooooooooooooooooooooooooooooo,;,,<<<<<<<<<<<<<<<<<<<<<<<<,,;,ooooooooooooooooooooooooooooooooOOO",
"OOOoooooooooooooooooooooooooooooo,;,,<<<<<<<<<<<<<<<<<<<<<<<<,,;,ooooooooooooooooooooooooooooooooOOO",
"OOOooooooooooooooooooooooooooooooo;,,<,,,,,,,,,,<<,,,,,,,,,,<,,;oooooooooooooooooooooooooooooooooOOO",
"OOOooooooooooooooooooooooooooooooo,<<,;;;;;;;;;;,,;;;;;;;;;;,<<,oooooooooooooooooooooooooooooooooOOO",
"OOOoooooooooooooooooooooooooooooo;,,,;**********;;**********;,,,;ooooooooooooooooooooooooooooooooOOO",
"OOOoooooooooooooooooooooooooooooo;,,,;**********;;**********;,,,;ooooooooooooooooooooooooooooooooOOO",
"OOOoooooooooooooooooooooooooooooo2;;;*++++++++++**++++++++++*;;;2ooooooooooooooooooooooooooooooooOOO",
"OOOoooooooooooooooooooooooooooo2232**++++++++++++++++++++++++**2322ooooooooooooooooooooooooooooooOOO",
"OOOoooooooooooooooooooooooooooo223*++++++*++++++++++++++*++++++*322ooooooooooooooooooooooooooooooOOO",
"OOOoooooooooooooooooooooooooooo223*++++++*++++++++++++++*++++++*322ooooooooooooooooooooooooooooooOOO",
"OOOoooooooooooooooooooooooooooo--=++++++=*++++++++++++++*=++++++=--ooooooooooooooooooooooooooooooOOO",
"OOOoooooooooooooooooooooooooooo--=++++==*2==++++++++++==2*==++++=--ooooooooooooooooooooooooooooooOOO",
"OOOoooooooooooooooooooooooooooo--=++++==*2==++++++++++==2*==++++=--ooooooooooooooooooooooooooooooOOO",
"OOOoooooooooooooooooooooooooooooo=+++=223222=++++++++=222322=+++=ooooooooooooooooooooooooooooooooOOO",
"OOOoooooooooooooooooooooooooooooo=+==23333222=++++++=22233332==+=ooooooooooooooooooooooooooooooooOOO",
"OOOoooooooooooooooooooooooooooooo=+==333333322======223333333==+=ooooooooooooooooooooooooooooooooOOO",
"OOOoooooooooooooooooooooooooooooo=+==333333322======223333333==+=ooooooooooooooooooooooooooooooooOOO",
"OOOoooooooooooooooooooooooooooooo=+==333333332222222233333333==+=ooooooooooooooooooooooooooooooooOOO",
"OOOoooooooooooooooooooooooooooooo==--3333   3333223333   3333--==ooooooooooooooooooooooooooooooooOOO",
"OOOooooooooooooooooooooooooooooooo=--333 666 33333333 666 333--=oooooooooooooooooooooooooooooooooOOO",
"OOOooooooooooooooooooooooooooooooo=--333 666 33333333 666 333--=oooooooooooooooooooooooooooooooooOOO",
"OOOoooooooooooooooooooooooooooooooo--333 6556 333333 6556 333--ooooooooooooooooooooooooooooooooooOOO",
"OOOoooooooooooooooooooooooooooooooo--333 6556 333333 6556 333--ooooooooooooooooooooooooooooooooooOOO",
"OOOoooooooooooooooooooooooooooooooo--333 6556 333333 6556 333--ooooooooooooooooooooooooooooooooooOOO",
"OOOoooooooooooooooooooooooooooooooo--3333    33333333    3333--ooooooooooooooooooooooooooooooooooOOO",
"OOOoooooooooooooooooooooooooooooooo--333333333333333333333333--ooooooooooooooooooooooooooooooooooOOO",
"OOOoooooooooooooooooooooooooooooooooo-:::3333333333333333:::-ooooooooooooooooooooooooooooooooooooOOO",
"OOOoooooooooooooooooooooooooooooooooo-:::3333333333333333:::-ooooooooooooooooooooooooooooooooooooOOO",
"OOOooooooooooooooooooooooooooooooooooo--::33333333333333::--oooooooooooooooooooooooooooooooooooooOOO",
"OOOooooooooooooooooooooooooooooooooooooo-:33333333333333:-oooooooooooooooooooooooooooooooooooooooOOO",
"OOOoooooooooooooooooooooooooooooooooooooo-22222222222222-ooooooooooooooooooooooooooooooooooooooooOOO",
"OOOoooooooooooooooooooooooooooooooooooooo-22222222222222-ooooooooooooooooooooooooooooooooooooooooOOO",
"OOOooooooooooooooooooooooooooooooooooooooo--------------oooooooooooooooooooooooooooooooooooooooooOOO",
"OOOooooooooooooooooooooooooooooooooooooo;;##>>>>>>>>>>##;;oooooooooooooooooooooooooooooooooooooooOOO",
"OOOoooooooooooooooooooooooooooooooooo;;;11;;,<<<<<<<<,;;11;;;ooooooooooooooooooooooooooooooooooooOOO",
"OOOoooooooooooooooooooooooooooooooooo;;;11;;,<<<<<<<<,;;11;;;ooooooooooooooooooooooooooooooooooooOOO",
"OOOoooooooooooooooooooooooooooooooo;;11111;;,<<<<<<<<,;;11111;;ooooooooooooooooooooooooooooooooooOOO",
"OOOooooooooooooooooooooooooooooooo;111111;,,<<<<<<<<<<,,;111111;oooooooooooooooooooooooooooooooooOOO",
"OOOooooooooooooooooooooooooooooooo;111111;,,<<<<<<<<<<,,;111111;oooooooooooooooooooooooooooooooooOOO",
"OOOoooooooooooooooooooooooooooooo;111111;,<<<<<<<<<<<<<<,;111111;ooooooooooooooooooooooooooooooooOOO",
"OOOoooooooooooooooooooooooooooooo;111111;,<<<<<<<<<<<<<<,;111111;ooooooooooooooooooooooooooooooooOOO",
"OOOoooooooooooooooooooooooooooo;;1111111;,<<<<<<<<<<<<<<,;1111111;;ooooooooooooooooooooooooooooooOOO",
"OOOoooooooooooooooooooooooooooo;;1111111;,<<<<<<<<<<<<<<,;1111111;;ooooooooooooooooooooooooooooooOOO",
"OOOooooooooooooooooooooooooooo-;;11111;;,<<<<<<<<<<<<<<<<,;;11111;;-oooooooooooooooooooooooooooooOOO",
"OOOoooooooooooooooooooooooooo-222;1111;;,<<<<<<<<<<<<<<<<,;;1111;222-ooooooooooooooooooooooooooooOOO",
"OOOoooooooooooooooooooooooooo-2222;11;,,<<<<<<<<<<<<<<<<<<,,;11;2222-ooooooooooooooooooooooooooooOOO",
"OOOoooooooooooooooooooooooooo-2222;11;,,<<<<<<<<<<<<<<<<<<,,;11;2222-ooooooooooooooooooooooooooooOOO",
"OOOoooooooooooooooooooooooooo-22222;;,<<<<<<<<<<<<<<<<<<<<<<,;;22222-ooooooooooooooooooooooooooooOOO",
"OOOooooooooooooooooooooooooooo-2222;;,<<<<<<<<<<<<<<<<<<<<<<,;;2222-oooooooooooooooooooooooooooooOOO",
"OOOooooooooooooooooooooooooooo-2222;;,<<<<<<<<<<<<<<<<<<<<<<,;;2222-oooooooooooooooooooooooooooooOOO",
"OOOoooooooooooooooooooooooooooo----@@@<<<<<<<<<<<<<<<<<<<<<<@@@----ooooooooooooooooooooooooooooooOOO",
"OOOooooooooooooooooooooooooooooooo$@@@@@@@<<<<<<44<<<<<<@@@@@@@$oooooooooooooooooooooooooooooooooOOO",
"OOOooooooooooooooooooooooooooooooo$;;;@@@@@@@@444444@@@@@@@@;;;$oooooooooooooooooooooooooooooooooOOO",
"OOOooooooooooooooooooooooooooooooo$;;;@@@@@@@@444444@@@@@@@@;;;$oooooooooooooooooooooooooooooooooOOO",
"OOOooooooooooooooooooooooooooooooo$;;;;;;;@@@@444444@@@@;;;;;;;$oooooooooooooooooooooooooooooooooOOO",
"OOOooooooooooooooooooooooooooooooo$;;;;;;;;;;;;;44;;;;;;;;;;;;;$oooooooooooooooooooooooooooooooooOOO",
"OOOoooooooooooooooooooooooooooooo$;;;;;;;;;;;;;;;;;;;;;;;;;;;;;;$ooooooooooooooooooooooooooooooooOOO",
"OOOoooooooooooooooooooooooooooooo$;;;;;;;;;;;;;;;;;;;;;;;;;;;;;;$ooooooooooooooooooooooooooooooooOOO",
"OOOoooooooooooooooooooooooooooooo$;;;;;;;;;;;;;;;;;;;;;;;;;;;;;;$ooooooooooooooooooooooooooooooooOOO",
"OOOoooooooooooooooooooooooooooooo$;;;;;;;;;;;;;;$$;;;;;;;;;;;;;;$ooooooooooooooooooooooooooooooooOOO",
"OOOoooooooooooooooooooooooooooooo$;;;;;;;;;;;;;;$$;;;;;;;;;;;;;;$ooooooooooooooooooooooooooooooooOOO",
"OOOoooooooooooooooooooooooooooooo$;;;;;;;;;;;;$$##$$;;;;;;;;;;;;$ooooooooooooooooooooooooooooooooOOO",
"OOOoooooooooooooooooooooooooooooo$;;;;;;;;;;;;$$##$$;;;;;;;;;;;;$ooooooooooooooooooooooooooooooooOOO",
"OOOooooooooooooooooooooooooooooooo$$$$$$;;;;;;$$##$$;;;;;;$$$$$$oooooooooooooooooooooooooooooooooOOO",
"OOOooooooooooooooooooooooooooooooo$$$$$$;;;;;;$$##$$;;;;;;$$$$$$oooooooooooooooooooooooooooooooooOOO",
"OOOooooooooooooooooooooooooooooooo######$$;;;;$$##$$;;;;$$######oooooooooooooooooooooooooooooooooOOO",
"OOOoooooooooooooooooooooooooooooo.%%%%%%##$$$$##oo##$$$$##%%%%%%.ooooooooooooooooooooooooooooooooOOO",
"OOOoooooooooooooooooooooooooooooo.&&&&&&%%####oooooo####%%&&&&&&.ooooooooooooooooooooooooooooooooOOO",
"OOOoooooooooooooooooooooooooooooo.&&&&&&%%####XXXXXX####%%&&&&&&.ooooooooooooooooooooooooooooooooOOO",
"OOOoooooooooooooooooooooXXXXXXXXX.&&&&&&&&..XXXXXXXXXX..&&&&&&&&.XXXXXXXXXoooooooooooooooooooooooOOO",
"OOOooooooooooooooooXXXXXXXXXXXXXXX.&&&&&&.XXXXXXXXXXXXXX.&&&&&&.XXXXXXXXXXXXXXXooooooooooooooooooOOO",
"OOOooooooooooooooXXXXXXXXXXXXXXXXX.&&&&&&.XXXXXXXXXXXXXX.&&&&&&.XXXXXXXXXXXXXXXXoooooooooooooooooOOO",
"OOOoooooooooooooXXXXXXXXXXXXXXXXXXX......XXXXXXXXXXXXXXXX......XXXXXXXXXXXXXXXXXXooooooooooooooooOOO",
"OOOooooooooooooooXXXXXXXXXXXXXXXXXXXXXXXXXXXXXXXXXXXXXXXXXXXXXXXXXXXXXXXXXXXXXXXoooooooooooooooooOOO",
"OOOooooooooooooooooXXXXXXXXXXXXXXXXXXXXXXXXXXXXXXXXXXXXXXXXXXXXXXXXXXXXXXXXXXXXooooooooooooooooooOOO",
"OOOoooooooooooooooooooooXXXXXXXXXXXXXXXXXXXXXXXXXXXXXXXXXXXXXXXXXXXXXXXXXXoooooooooooooooooooooooOOO",
"OOOoooooooooooooooooooooooooooooooXXXXXXXXXXXXXXXXXXXXXXXXXXXXXXoooooooooooooooooooooooooooooooooOOO",
"OOOooooooooooooooooooooooooooooooooooooooooooooooooooooooooooooooooooooooooooooooooooooooooooooooOOO",
"OOOooooooooooooooooooooooooooooooooooooooooooooooooooooooooooooooooooooooooooooooooooooooooooooooOOO",
"OOOooooooooooooooooooooooooooooooooooooooooooooooooooooooooooooooooooooooooooooooooooooooooooooooOOO",
"OOOooooooooooooooooooooooooooooooooooooooooooooooooooooooooooooooooooooooooooooooooooooooooooooooOOO",
"OOOOooooooooooooooooooooooooooooooooooooooooooooooooooooooooooooooooooooooooooooooooooooooooooooOOOO",
"OOOOOOOOOOOOOOOOOOOOOOOOOOOOOOOOOOOOOOOOOOOOOOOOOOOOOOOOOOOOOOOOOOOOOOOOOOOOOOOOOOOOOOOOOOOOOOOOOOOO",
"OOOOOOOOOOOOOOOOOOOOOOOOOOOOOOOOOOOOOOOOOOOOOOOOOOOOOOOOOOOOOOOOOOOOOOOOOOOOOOOOOOOOOOOOOOOOOOOOOOOO",
"OOOOOOOOOOOOOOOOOOOOOOOOOOOOOOOOOOOOOOOOOOOOOOOOOOOOOOOOOOOOOOOOOOOOOOOOOOOOOOOOOOOOOOOOOOOOOOOOOOOO"
};
