/* XPM */
static char *_220d174743f443cb5adb8ef08bce77016zDjklKBhWfIXFp[] = {
/* columns rows colors chars-per-pixel */
"100 100 2 1 ",
"  c black",
". c white",
/* pixels */
"                                                                                                    ",
"                                                                                                    ",
"                                                                                                    ",
"                                                                                                    ",
"                                                                                                    ",
"                                                                                                    ",
"                                                                                                    ",
"                                                                                                    ",
"                                                                                                    ",
"                                                                                                    ",
"                                                                                                    ",
"                                                                                                    ",
"                                                                                                    ",
"                                                                                                    ",
"                                                                                                    ",
"                                                                                                    ",
"                .................................................................                   ",
"                 ...............................................................                    ",
"                 ...............................................................                    ",
"                  .............................................................                     ",
"                  .............................................................                     ",
"                   ...........................................................                      ",
"                   ...........................................................                      ",
"                    .........................................................                       ",
"                    .........................................................                       ",
"                     .......................................................                        ",
"                     .......................................................                        ",
"                      .....................................................                         ",
"                      .....................................................                         ",
"                       ...................................................                          ",
"                       ...................................................                          ",
"                        .................................................                           ",
"                        .................................................                           ",
"                         ...............................................                            ",
"                         ...............................................                            ",
"                          .............................................                             ",
"                          .............................................                             ",
"                           ...........................................                              ",
"                           ...........................................                              ",
"                            .........................................                               ",
"                            .........................................                               ",
"                             .......................................                                ",
"                             .......................................                                ",
"                              .....................................                                 ",
"                              .....................................                                 ",
"                               ...................................                                  ",
"                               ...................................                                  ",
"                                .................................                                   ",
"                                .................................                                   ",
"                                 ...............................                                    ",
"                                 ...............................                                    ",
"                                  .............................                                     ",
"                                  .............................                                     ",
"                                   ...........................                                      ",
"                                   ...........................                                      ",
"                                    .........................                                       ",
"                                    .........................                                       ",
"                                     .......................                                        ",
"                                     .......................                                        ",
"                                      .....................                                         ",
"                                      .....................                                         ",
"                                       ...................                                          ",
"                                       ...................                                          ",
"                                        .................                                           ",
"                                        .................                                           ",
"                                         ...............                                            ",
"                                         ...............                                            ",
"                                          .............                                             ",
"                                          .............                                             ",
"                                           ...........                                              ",
"                                           ...........                                              ",
"                                            .........                                               ",
"                                            .........                                               ",
"                                             .......                                                ",
"                                             .......                                                ",
"                                              .....                                                 ",
"                                              .....                                                 ",
"                                               ...                                                  ",
"                                               ...                                                  ",
"                                                .                                                   ",
"                                                                                                    ",
"                                                                                                    ",
"                                                                                                    ",
"                                                                                                    ",
"                                                                                                    ",
"                                                                                                    ",
"                                                                                                    ",
"                                                                                                    ",
"                                                                                                    ",
"                                                                                                    ",
"                                                                                                    ",
"                                                                                                    ",
"                                                                                                    ",
"                                                                                                    ",
"                                                                                                    ",
"                                                                                                    ",
"                                                                                                    ",
"                                                                                                    ",
"                                                                                                    ",
"                                                                                                    "
};
