/* XPM */
static char *bb73409d876742e18b859ee815423bb0XGeXH53pmSOegyHf[] = {
/* columns rows colors chars-per-pixel */
"100 100 11 1 ",
"  c #111D2B",
". c #152331",
"X c #162533",
"o c #162535",
"O c #182836",
"+ c #1A2B3B",
"@ c #1E303E",
"# c #213446",
"$ c #45627C",
"% c #597E9E",
"& c #80B0DC",
/* pixels */
"@@@@@@@@@@@@@@@@@@@@@@@@@@@@@@@@@@@@@@@@@@@@@@@@@@@@@@@@@@@@@@@@@@@@@@@@@@@@@@@@@@@@@@@@@@@@@@@@@@@@",
"@@@@@@@@@@@@@@@@@@@@@@@@@@@@@@@@@@@@@@@@@@@@@@@@@@@@@@@@@@@@@@@@@@@@@@@@@@@@@@@@@@@@@@@@@@@@@@@@@@@@",
"@@@@@@@@@@@@@@@@@@@@@@@@@@@@@@@@@@@@@@@@@@@@@@@@@@@@@@@@@@@@@@@@@@@@@@@@@@@@@@@@@@@@@@@@@@@@@@@@@@@@",
"@@@@@@@@@@@@@@@@@@@@@@@@@@@@@@@@@@@@@@@@@@@@@@@@@@@@@@@@@@@@@@@@@@@@@@@@@@@@@@@@@@@@@@@@@@@@@@@@@@@@",
"@@@@@@@@@@@@@@@@@@@@@@@@@@@@@@@@@@@@@@@@@@@@@@@@@@@@@@@@@@@@@@@@@@@@@@@@@@@@@@@@@@@@@@@@@@@@@@@@@@@@",
"@@@@@@@@@@@@@@@@@@@@@@@@@@@@@@@@@@@@@@@@@@@@@@@@@@@@@@@@@@@@@@@@@@@@@@@@@@@@@@@@@@@@@@@@@@@@@@@@@@@@",
"@@@@@@@@@@@@@@@@@@@@@@@@@@@@@@@@@@@@@@@@@@@@@@@@@@@@@@@@@@@@@@@@@@@@@@@@@@@@@@@@@@@@@@@@@@@@@@@@@@@@",
"@@@@@@@@@@@@@@@@@@@@@@@@@@@@@@@@@@@@@@@@@@@@@@@@@@@@@@@@@@@@@@@@@@@@@@@@@@@@@@@@@@@@@@@@@@@@@@@@@@@@",
"@@@@@@@@@@@@@@@@@@@@@@@@@@@@@@@@@@@@@@@@@@@@@@@@@@@@@@@@@@@@@@@@@@@@@@@@@@@@@@@@@@@@@@@@@@@@@@@@@@@@",
"@@@@@@@@@@@@@@@@@@@@@@@@@@@@@@@@@@@@@@@@@@@@@@@@@@@@@@@@@@@@@@@@@@@@@@@@@@@@@@@@@@@@@@@@@@@@@@@@@@@@",
"@@@@@@@@@@@@@@@@@@@@@@@@@@@@@@@@@@@@@@@@@@@@@@@@@@@@@@@@@@@@@@@@@@@@@@@@@@@@@@@@@@@@@@@@@@@@@@@@@@@@",
"@@@@@@@@@@@@@@@@@@@@@@@@@@@@@@@@@@@@@@@@@@@@@@@@@@@@@@@@@@@@@@@@@@@@@@@@@@@@@@@@@@@@@@@@@@@@@@@@@@@@",
"@@@@@@@@@@@@@@@@@@@@@@@@@@@@@@@@@@@@@@@@@@@@@@@@@@@@@@@@@@@@@@@@@@@@@@@@@@@@@@@@@@@@@@@@@@@@@@@@@@@@",
"@@@@@@@@@@@@@@@@@@@@@@@@@@@@@@@@@@@@@@@@@@@@@@@@@@@@@@@@@@@@@@@@@@@@@@@@@@@@@@@@@@@@@@@@@@@@@@@@@@@@",
"@@@@@@@@@@@@@@@@@@@@@@@@@@@@@@@@@@@@@@@@@@@@@@@@@@@@@@@@@@@@@@@@@@@@@@@@@@@@@@@@@@@@@@@@@@@@@@@@@@@@",
"@@@@@@@@@@@@@@@@@@@@@@@@@@@@@@@@@@@@@@@@@@@@@@@@@@@@@@@@@@@@@@@@@@@@@@@@@@@@@@@@@@@@@@@@@@@@@@@@@@@@",
"@@@@@@@@@@@@@@@@@@@@@@@@@@@@@@@@@@@@@@@@@@@@@@@@@@@@@@@@@@@@@@@@@@@@@@@@@@@@@@@@@@@@@@@@@@@@@@@@@@@@",
"@@@@@@@@@@@@@@@@@@@@@@@@@@@@@@@@@@@@@@@@@@@@@@@@@@@@@@@@@@@@@@@@@@@@@@@@@@@@@@@@@@@@@@@@@@@@@@@@@@@@",
"@@@@@@@@@@@@@@@@@@@@@@@@@@@@@@@@@@@@@@@@@@@@@@@@@@@@@@@@@@@@@@@@@@@@@@@@@@@@@@@@@@@@@@@@@@@@@@@@@@@@",
"@@@@@@@@@@@@@@@@@@@@@@@@@@@@@@@@@@@@@@@@@@@@@@@@@@@@@@@@@@@@@@@@@@@@@@@@@@@@@@@@@@@@@@@@@@@@@@@@@@@@",
"@@@@@@@@@@@@@@@@@@@@@@@@@@@@@@@@@@@@@@@@@@@@@@@@@@@@@@@@@@@@@@@@@@@@@@@@@@@@@@@@@@@@@@@@@@@@@@@@@@@@",
"@@@@@@@@@@@@@@@@@@@@@@@@@@@@@@@@@@@@@@@@@@@@@@@@@@@@@@@@@@@@@@@@@@@@@@@@@@@@@@@@@@@@@@@@@@@@@@@@@@@@",
"@@@@@@@@@@@@@@@@@@@@@@@@@@@@@@@@@@@@@@@@@@@@@@@@@@@@@@@@@@@@@@@@@@@@@@@@@@@@@@@@@@@@@@@@@@@@@@@@@@@@",
"@@@@@@@@@@@@@@@@@@@@@@@@@@@@@@@@@@@@@@@@@@@@@@@@@@@@@@@@@@@@@@@@@@@@@@@@@@@@@@@@@@@@@@@@@@@@@@@@@@@@",
"@@@@@@@@@@@@@@@@@@@@@@@@@@@@@@@@@@@@@@@@@@@@@@@@@@@@@@@@@@@@@@@@@@@@@@@@@@@@@@@@@@@@@@@@@@@@@@@@@@@@",
"@@@@@@@@@@@@@@@@@@@@@@@@@@@@@@@@@@@@@@@@@@@@@@@@@@@@@@@@@@@@@@@@@@@@@@@@@@@@@@@@@@@@@@@@@@@@@@@@@@@@",
"@@@@@@@@@@@@@@@@@@@@@@@@@@@@@@@@@@@@@@@@@@@@@@@@@@@@@@@@@@@@@@@@@@@@@@@@@@@@@@@@@@@@@@@@@@@@@@@@@@@@",
"@@@@@@@@@@@@@@@@@@@@@@@@@@@@@@@@@@@@@@@@@@@@@@@@@@@@@@@@@@@@@@@@@@@@@@@@@@@@@@@@@@@@@@@@@@@@@@@@@@@@",
"@@@@@@@@@@@@@@@@@@@@@@@@@@@@@@@@@@@@@@@@@@@@@@@@@@@@@@@@@@@@@@@@@@@@@@@@@@@@@@@@@@@@@@@@@@@@@@@@@@@@",
"@@@@@@@@@@@@@@@@@@@@@@@@@@@@@@@@@@@@@@@@@@@@@@@@@@@@@@@@@@@@@@@@@@@@@@@@@@@@@@@@@@@@@@@@@@@@@@@@@@@@",
"@@@@@@@@@@@@@@@@@@@@@@@@@@@@@@@@@@@@@@@@@@@@@@@@@@@@@@@@@@@@@@@@@@@@@@@@@@@@@@@@@@@@@@@@@@@@@@@@@@@@",
"@@@@@@@@@@@@@@@@@@@@@@@@@@@@@@@@@@@@@@@@@@@@@@@@@@@@@@@@@@@@@@@@@@@@@@@@@@@@@@@@@@@@@@@@@@@@@@@@@@@@",
"@@@@@@@@@@@@@@@@@@@@@@@@@@@@@@@@@@@@@@@@@@@@@@@@@@@@@@@@@@@@@@@@@@@@@@@@@@@@@@@@@@@@@@@@@@@@@@@@@@@@",
"@@@@@@@@@@@@@@@@@@@@@@@@@@@@@@@@@@@@@@@@@@@@@@@@@@@@@@@@@@@@@@@@@@@@@@@@@@@@@@@@@@@@@@@@@@@@@@@@@@@@",
"@@@@@@@@@@@@@@@@@@@@@@@@@@@@@@@@@@@@@@@@@@@@@@@@@@@@@@@@@@@@@@@@@@@@@@@@@@@@@@@@@@@@@@@@@@@@@@@@@@@@",
"@@@@@@@@@@@@@@@@@@@@@@@@@@@@@@@@@@@@@@@@@@@@@@@@@@@@@@@@@@@@@@@@@@@@@@@@@@@@@@@@@@@@@@@@@@@@@@@@@@@@",
"@@@@@@@@@@@@@@@@@@@@@@@@@@@@@@@@@@@@@@@@@@@@@@@@@@@@@@@@@@@@@@@@@@@@@@@@@@@@@@@@@@@@@@@@@@@@@@@@@@@@",
"@@@@@@@@@@@@@@@@@@@@@@@@@@@@@@@@@@@@@@@@@@@@@@@@@@@@@@@@@@@@@@@@@@@@@@@@@@@@@@@@@@@@@@@@@@@@@@@@@@@@",
"@@@@@@@@@@@@@@@@@@@@@@@@@@@@@@@@@@@@@@@@@@@@@@@@@@@@@@@@@@@@@@@@@@@@@@@@@@@@@@@@@@@@@@@@@@@@@@@@@@@@",
"@@@@@@@@@@@@@@@@@@@@@@@@@@@@@@@@@@@@@@@@@@@@@@@@@@@@@@@@@@@@@@@@@@@@@@@@@@@@@@@@@@@@@@@@@@@@@@@@@@@@",
"@@@@@@@@@@@@@@@@@@@@@@@@@@@@@@@@@@@@@@@@@@@@@@@@@@@@@@@@@@@@@@@@@@@@@@@@@@@@@@@@@@@@@@@@@@@@@@@@@@@@",
"@@@@@@@@@@@@@@@@@@@@@@@@@@@@@@@@@@@@@@@@@@@@@@@@@@@@@@@@@@@@@@@@@@@@@@@@@@@@@@@@@@@@@@@@@@@@@@@@@@@@",
"@@@@@@@@@@@@@@@@@@@@@@@@@@@@@@@@@@@@@@@@@@@@@@@@@@@@@@@@@@@@@@@@@@@@@@@@@@@@@@@@@@@@@@@@@@@@@@@@@@@@",
"@@@@@@@@@@@@@@@@@@@@@@@@@@@@@@@@@@@@@@@@@@@@@@@@@@@@@@@@@@@@@@@@@@@@@@@@@@@@@@@@@@@@@@@@@@@@@@@@@@@@",
"@@@@@@@@@@@@@@@@@@@@@@@@@@@@@@@@@@@@@@@@@@@@@@@@@@@@@@@@@@@@@@@@@@@@@@@@@@@@@@@@@@@@@@@@@@@@@@@@@@@@",
"@@@@@@@@@@@@@@@@@@@@@@@@@@@@@@@@@@@@@@@@@@@@@@@@@@@@@@@@@@@@@@@@@@@@@@@@@@@@@@@@@@@@@@@@@@@@@@@@@@@@",
"@@@@@@@@@@@@@@@@@@@@@@@@@@@@@@@@@@@@@@@@@@@@@@@@@@@@@@@@@@@@@@@@@@@@@@@@@@@@@@@@@@@@@@@@@@@@@@@@@@@@",
"@@@@@@@@@@@@@@@@@@@@@@@@@@@@@@@@@@@@@@@@@@@@@@@@@@@@@@@@@@@@@@@@@@@@@@@@@@@@@@@@@@@@@@@@@@@@@@@@@@@@",
"@@@@@@@@@@@@@@@@@@@@@@@@@@@@@@@@@@@@@@@@@@@@@@@@@@@@@@@@@@@@@@@@@@@@@@@@@@@@@@@@@@@@@@@@@@@@@@@@@@@@",
"@@@@@@@@@@@@@@@@@@@@@@@@@@@@@@@@@@@@@@@@@@@@@@@@@@@@@@@@@@@@@@@@@@@@@@@@@@@@@@@@@@@@@@@@@@@@@@@@@@@@",
"@@@@++++++++++++++++++++++++++++++++++++++++++++++++++++++++++++++++++++++++++++++++++++++++++++@@@@",
"@@@++++++++++++++++++++++++++++++++++++++++++++++++++++++++++++++++++++++++++++++++++++++++++++++@@@",
"@@@+++++++++++++++++++++++++++++++++++++++++++++o  o+++++++++++++++++++++++++++++++++++++++++++++@@@",
"@@@+++++++++++++++++++++++++++++++++++++++++++o .XX. o+++++++++++++++++++++++++++++++++++++++++++@@@",
"@@@+++++++++++++++++++++++++++++++++++++++++o .XXXXXX. o+++++++++++++++++++++++++++++++++++++++++@@@",
"@@@+++++++++++++++++++++++++++++++++++++++o .XXXXXXXXXX. o+++++++++++++++++++++++++++++++++++++++@@@",
"@@@+++++++++++++++++++++++++++++++++++++o .XXXXX+  +XXXXX. o+++++++++++++++++++++++++++++++++++++@@@",
"@@@+++++++++++++++++++++++++++++++++++o .XXXXX+      +XXXXX. o+++++++++++++++++++++++++++++++++++@@@",
"@@@+++++++++++++++++++++++++++++++++o .XXXXX+          +XXXXX. o+++++++++++++++++++++++++++++++++@@@",
"@@@+++++++++++++++++++++++++++++++o .XXXXX+              +XXXXX. o+++++++++++++++++++++++++++++++@@@",
"@@@+++++++++++++++++++++++++++++o .XXXXX+                  +XXXXX. o+++++++++++++++++++++++++++++@@@",
"@@@+++++++++++++++++++++++++++o .XXXXX+                      +XXXXX. o+++++++++++++++++++++++++++@@@",
"@@@+++++++++++++++++++++++++o .XXXXX+                          +XXXXX. o+++++++++++++++++++++++++@@@",
"@@@+++++++++++++++++++++++o .XXXXX+                              +XXXXX. o+++++++++++++++++++++++@@@",
"@@@+++++++++++++++++++++o .XXXXX+                                  +XXXXX. o+++++++++++++++++++++@@@",
"@@@+++++++++++++++++++o .XXXXX+                                      +XXXXX. o+++++++++++++++++++@@@",
"@@@++++++++++++++++o .XXXXX+                                            +XXXXX. o++++++++++++++++@@@",
"@@@++++++++++++++o .XXXXX+                                                +XXXXX. o++++++++++++++@@@",
"@@@++++++++++++o .XXXXX+                ++++++OO++++++++++++                +XXXXX. o++++++++++++@@@",
"@@@++++++++++o .XXXXX+                +%#$&&&&&&&&&&&&&&&&$#%+                +XXXXX. o++++++++++@@@",
"@@@++++++++o .XXXXX+                +%##&$#####&$##$&#####$&##%+                +XXXXX. o++++++++@@@",
"@@@++++++o .XXXXX+                +%##&$######&$####$&######$&##%+                +XXXXX. o++++++@@@",
"@@@++++o .XXXXo+                  +%&$#######&$######$&#######$&%+                  +XXXXX. o++++@@@",
"@@@+++o .XXXXoO                    +%&&#####$##########$#####&&%+                    +XXXXX. o+++@@@",
"@@@+++++o .XXXXX+                    +%$$$$%&&&&&&&&&&&&%$$$$%+                    +XXXXX. o+++++@@@",
"@@@+++++++o .XXXXX+                    +%###&$########$&###%+                    +XXXXX. o+++++++@@@",
"@@@+++++++++o .XXXXX+                    +%##&$######$&##%+                    +XXXXX. o+++++++++@@@",
"@@@+++++++++++o .XXXXX+                    +%#&$####$&#%+                    +XXXXX. o+++++++++++@@@",
"@@@+++++++++++++o .XXXXX+                    +%#$##$#%+                    +XXXXX. o+++++++++++++@@@",
"@@@+++++++++++++++o .XXXXX+                    +%$$%+                    +XXXXX. o+++++++++++++++@@@",
"@@@++++++++++++++++++o .XXXXX+                                        +XXXXX. o++++++++++++++++++@@@",
"@@@++++++++++++++++++++o .XXXXX+                                    +XXXXX. o++++++++++++++++++++@@@",
"@@@++++++++++++++++++++++o .XXXXX+                                +XXXXX. o++++++++++++++++++++++@@@",
"@@@++++++++++++++++++++++++o .XXXXX+                            +XXXXX. o++++++++++++++++++++++++@@@",
"@@@++++++++++++++++++++++++++o .XXXXX+                        +XXXXX. o++++++++++++++++++++++++++@@@",
"@@@++++++++++++++++++++++++++++o .XXXXX+                    +XXXXX. o++++++++++++++++++++++++++++@@@",
"@@@++++++++++++++++++++++++++++++o .XXXXX+                +XXXXX. o++++++++++++++++++++++++++++++@@@",
"@@@++++++++++++++++++++++++++++++++o .XXXXX+            +XXXXX. o++++++++++++++++++++++++++++++++@@@",
"@@@++++++++++++++++++++++++++++++++++o .XXXXX+        +XXXXX. o++++++++++++++++++++++++++++++++++@@@",
"@@@++++++++++++++++++++++++++++++++++++o .XXXXX+    +XXXXX. o++++++++++++++++++++++++++++++++++++@@@",
"@@@++++++++++++++++++++++++++++++++++++++o .XXXXX++XXXXX. o++++++++++++++++++++++++++++++++++++++@@@",
"@@@++++++++++++++++++++++++++++++++++++++++o .XXXXXXXX. o++++++++++++++++++++++++++++++++++++++++@@@",
"@@@++++++++++++++++++++++++++++++++++++++++++o .XXXX. o++++++++++++++++++++++++++++++++++++++++++@@@",
"@@@++++++++++++++++++++++++++++++++++++++++++++o .. o++++++++++++++++++++++++++++++++++++++++++++@@@",
"@@@++++++++++++++++++++++++++++++++++++++++++++++oo++++++++++++++++++++++++++++++++++++++++++++++@@@",
"@@@++++++++++++++++++++++++++++++++++++++++++++++++++++++++++++++++++++++++++++++++++++++++++++++@@@",
"@@@@++++++++++++++++++++++++++++++++++++++++++++++++++++++++++++++++++++++++++++++++++++++++++++@@@@",
"@@@@@@@@@@@@@@@@@@@@@@@@@@@@@@@@@@@@@@@@@@@@@@@@@@@@@@@@@@@@@@@@@@@@@@@@@@@@@@@@@@@@@@@@@@@@@@@@@@@@",
"@@@@@@@@@@@@@@@@@@@@@@@@@@@@@@@@@@@@@@@@@@@@@@@@@@@@@@@@@@@@@@@@@@@@@@@@@@@@@@@@@@@@@@@@@@@@@@@@@@@@",
"@@@@@@@@@@@@@@@@@@@@@@@@@@@@@@@@@@@@@@@@@@@@@@@@@@@@@@@@@@@@@@@@@@@@@@@@@@@@@@@@@@@@@@@@@@@@@@@@@@@@"
};
