/* XPM */
static char *_e6be82b3e1642c9d6e44ba9e4cde220HhSuZDM6Z1ZKJnSn[] = {
/* columns rows colors chars-per-pixel */
"100 100 12 1 ",
"  c #111D2B",
". c #121F2D",
"X c #152331",
"o c #162533",
"O c #162535",
"+ c #182836",
"@ c #1A2B3B",
"# c #1E303E",
"$ c #213446",
"% c #45627C",
"& c #597E9E",
"* c #80B0DC",
/* pixels */
"####################################################################################################",
"####################################################################################################",
"####################################################################################################",
"####@@@@@@@@@@@@@@@@@@@@@@@@@@@@@@@@@@@@@@@@@@@@@@@@@@@@@@@@@@@@@@@@@@@@@@@@@@@@@@@@@@@@@@@@@@@@####",
"###@@@@@@@@@@@@@@@@@@@@@@@@@@@@@@@@@@@@@@@@@@@@@@@@@@@@@@@@@@@@@@@@@@@@@@@@@@@@@@@@@@@@@@@@@@@@@@###",
"###@@@@@@@@@@@@@@@@@@@@@@@@@@@@@@@@@@@@@@@@@@@@@@@@@@@@@@@@@@@@@@@@@@@@@@@@@@@@@@@@@@@@@@@@@@@@@@###",
"###@@@@@@@@@@@@@@@@@@@@@@@@@@@@@@@@@@@@@@@@@@@@@@OO@@@@@@@@@@@@@@@@@@@@@@@@@@@@@@@@@@@@@@@@@@@@@@###",
"###@@@@@@@@@@@@@@@@@@@@@@@@@@@@@@@@@@@@@@@@@@@@@O  O@@@@@@@@@@@@@@@@@@@@@@@@@@@@@@@@@@@@@@@@@@@@@###",
"###@@@@@@@@@@@@@@@@@@@@@@@@@@@@@@@@@@@@@@@@@@@@O XX O@@@@@@@@@@@@@@@@@@@@@@@@@@@@@@@@@@@@@@@@@@@@###",
"###@@@@@@@@@@@@@@@@@@@@@@@@@@@@@@@@@@@@@@@@@@@O XooX O@@@@@@@@@@@@@@@@@@@@@@@@@@@@@@@@@@@@@@@@@@@###",
"###@@@@@@@@@@@@@@@@@@@@@@@@@@@@@@@@@@@@@@@@@@O XooooX O@@@@@@@@@@@@@@@@@@@@@@@@@@@@@@@@@@@@@@@@@@###",
"###@@@@@@@@@@@@@@@@@@@@@@@@@@@@@@@@@@@@@@@@@O XooooooX O@@@@@@@@@@@@@@@@@@@@@@@@@@@@@@@@@@@@@@@@@###",
"###@@@@@@@@@@@@@@@@@@@@@@@@@@@@@@@@@@@@@@@@O XooooooooX O@@@@@@@@@@@@@@@@@@@@@@@@@@@@@@@@@@@@@@@@###",
"###@@@@@@@@@@@@@@@@@@@@@@@@@@@@@@@@@@@@@@@O XooooooooooX O@@@@@@@@@@@@@@@@@@@@@@@@@@@@@@@@@@@@@@@###",
"###@@@@@@@@@@@@@@@@@@@@@@@@@@@@@@@@@@@@@@O Xooooo@@oooooX O@@@@@@@@@@@@@@@@@@@@@@@@@@@@@@@@@@@@@@###",
"###@@@@@@@@@@@@@@@@@@@@@@@@@@@@@@@@@@@@@O Xooooo@  @oooooX O@@@@@@@@@@@@@@@@@@@@@@@@@@@@@@@@@@@@@###",
"###@@@@@@@@@@@@@@@@@@@@@@@@@@@@@@@@@@@@O Xooooo@    @oooooX O@@@@@@@@@@@@@@@@@@@@@@@@@@@@@@@@@@@@###",
"###@@@@@@@@@@@@@@@@@@@@@@@@@@@@@@@@@@@O Xooooo@      @oooooX O@@@@@@@@@@@@@@@@@@@@@@@@@@@@@@@@@@@###",
"###@@@@@@@@@@@@@@@@@@@@@@@@@@@@@@@@@@O Xooooo@        @oooooX O@@@@@@@@@@@@@@@@@@@@@@@@@@@@@@@@@@###",
"###@@@@@@@@@@@@@@@@@@@@@@@@@@@@@@@@@O Xooooo@          @oooooX O@@@@@@@@@@@@@@@@@@@@@@@@@@@@@@@@@###",
"###@@@@@@@@@@@@@@@@@@@@@@@@@@@@@@@@O Xooooo@            @oooooX O@@@@@@@@@@@@@@@@@@@@@@@@@@@@@@@@###",
"###@@@@@@@@@@@@@@@@@@@@@@@@@@@@@@@O Xooooo@              @oooooX O@@@@@@@@@@@@@@@@@@@@@@@@@@@@@@@###",
"###@@@@@@@@@@@@@@@@@@@@@@@@@@@@@@O Xooooo@                @oooooX O@@@@@@@@@@@@@@@@@@@@@@@@@@@@@@###",
"###@@@@@@@@@@@@@@@@@@@@@@@@@@@@@O Xooooo@                  @oooooX O@@@@@@@@@@@@@@@@@@@@@@@@@@@@@###",
"###@@@@@@@@@@@@@@@@@@@@@@@@@@@@O Xooooo@                    @oooooX O@@@@@@@@@@@@@@@@@@@@@@@@@@@@###",
"###@@@@@@@@@@@@@@@@@@@@@@@@@@@O Xooooo@                      @oooooX O@@@@@@@@@@@@@@@@@@@@@@@@@@@###",
"###@@@@@@@@@@@@@@@@@@@@@@@@@@O Xooooo@                        @oooooX O@@@@@@@@@@@@@@@@@@@@@@@@@@###",
"###@@@@@@@@@@@@@@@@@@@@@@@@@O Xooooo@                          @oooooX O@@@@@@@@@@@@@@@@@@@@@@@@@###",
"###@@@@@@@@@@@@@@@@@@@@@@@@O Xooooo@                            @oooooX O@@@@@@@@@@@@@@@@@@@@@@@@###",
"###@@@@@@@@@@@@@@@@@@@@@@@O Xooooo@                              @oooooX O@@@@@@@@@@@@@@@@@@@@@@@###",
"###@@@@@@@@@@@@@@@@@@@@@@O Xooooo@                                @oooooX O@@@@@@@@@@@@@@@@@@@@@@###",
"###@@@@@@@@@@@@@@@@@@@@@O Xooooo@                                  @oooooX O@@@@@@@@@@@@@@@@@@@@@###",
"###@@@@@@@@@@@@@@@@@@@@O Xooooo@                                    @oooooX O@@@@@@@@@@@@@@@@@@@@###",
"###@@@@@@@@@@@@@@@@@@@O Xooooo@                                      @oooooX O@@@@@@@@@@@@@@@@@@@###",
"###@@@@@@@@@@@@@@@@@@O Xooooo@                                        @oooooX O@@@@@@@@@@@@@@@@@@###",
"###@@@@@@@@@@@@@@@@@O Xooooo@                                          @oooooX O@@@@@@@@@@@@@@@@@###",
"###@@@@@@@@@@@@@@@@O Xooooo@                                            @oooooX O@@@@@@@@@@@@@@@@###",
"###@@@@@@@@@@@@@@@O Xooooo@                                              @oooooX O@@@@@@@@@@@@@@@###",
"###@@@@@@@@@@@@@@O Xooooo@                                                @oooooX O@@@@@@@@@@@@@@###",
"###@@@@@@@@@@@@@O Xooooo@                                                  @oooooX O@@@@@@@@@@@@@###",
"###@@@@@@@@@@@@O Xooooo@                @@@@@@@@@@@+@@@@@@@@                @oooooX O@@@@@@@@@@@@###",
"###@@@@@@@@@@@O Xooooo@                @&&&&&&&&&&&&&&&&&&&&@                @oooooX O@@@@@@@@@@@###",
"###@@@@@@@@@@O Xooooo@                @&$%****************%$&@                @oooooX O@@@@@@@@@@###",
"###@@@@@@@@@O Xooooo@                @&$$*&&&&&&&&&&&&&&&&*$$&@                @oooooX O@@@@@@@@@###",
"###@@@@@@@@O Xooooo@                @&$$*%$$$$$*%$$%*$$$$$%*$$&@                @oooooX O@@@@@@@@###",
"###@@@@@@@O Xooooo@                @&$$*%$$$$$$*%$$%*$$$$$$%*$$&@                @oooooX O@@@@@@@###",
"###@@@@@@O Xooooo@                @&$$*%$$$$$$*%$$$$%*$$$$$$%*$$&@                @oooooX O@@@@@@###",
"###@@@@@O.XooooO@                 @&$*%$$$$$$*%$$$$$$%*$$$$$$%*$&@                 @oooooX O@@@@@###",
"###@@@@O XooooO@                  @&*%$$$$$$$*%$$$$$$%*$$$$$$$%*&@                  @oooooX O@@@@###",
"###@@@O XooooO+                   @&%$$$$$$$*%$$$$$$$$%*$$$$$$$%&@                   @oooooX O@@@###",
"###@@@O XooooO+                    @&**$$$$$%$$$$$$$$$$%$$$$$**&@                    @oooooX O@@@###",
"###@@@@O XooooO@                    @&%*****%$$$$$$$$$$%*****%&@                    @oooooX O@@@@###",
"###@@@@@O Xooooo@                    @&%%%%&************&%%%%&@                    @oooooX O@@@@@###",
"###@@@@@@O Xooooo@                    @&$$$%&&&&&&&&&&&&%$$$&@                    @oooooX O@@@@@@###",
"###@@@@@@@O Xooooo@                    @&$$$*%$$$$$$$$%*$$$&@                    @oooooX O@@@@@@@###",
"###@@@@@@@@O Xooooo@                    @&$$$*%$$$$$$%*$$$&@                    @oooooX O@@@@@@@@###",
"###@@@@@@@@@O Xooooo@                    @&$$*%$$$$$$%*$$&@                    @oooooX O@@@@@@@@@###",
"###@@@@@@@@@@O Xooooo@                    @&$$*%$$$$%*$$&@                    @oooooX O@@@@@@@@@@###",
"###@@@@@@@@@@@O Xooooo@                    @&$*%$$$$%*$&@                    @oooooX O@@@@@@@@@@@###",
"###@@@@@@@@@@@@O Xooooo@                    @&$%$$$$%$&@                    @oooooX O@@@@@@@@@@@@###",
"###@@@@@@@@@@@@@O Xooooo@                    @&$%$$%$&@                    @oooooX O@@@@@@@@@@@@@###",
"###@@@@@@@@@@@@@@O Xooooo@                    @&%$$%&@                    @oooooX O@@@@@@@@@@@@@@###",
"###@@@@@@@@@@@@@@@O Xooooo@                    @&%%&@                    @oooooX O@@@@@@@@@@@@@@@###",
"###@@@@@@@@@@@@@@@@O Xooooo@                    @&&@                    @oooooX O@@@@@@@@@@@@@@@@###",
"###@@@@@@@@@@@@@@@@@O Xooooo@                    @@                    @oooooX O@@@@@@@@@@@@@@@@@###",
"###@@@@@@@@@@@@@@@@@@O Xooooo@                                        @oooooX O@@@@@@@@@@@@@@@@@@###",
"###@@@@@@@@@@@@@@@@@@@O Xooooo@                                      @oooooX O@@@@@@@@@@@@@@@@@@@###",
"###@@@@@@@@@@@@@@@@@@@@O Xooooo@                                    @oooooX O@@@@@@@@@@@@@@@@@@@@###",
"###@@@@@@@@@@@@@@@@@@@@@O Xooooo@                                  @oooooX O@@@@@@@@@@@@@@@@@@@@@###",
"###@@@@@@@@@@@@@@@@@@@@@@O Xooooo@                                @oooooX O@@@@@@@@@@@@@@@@@@@@@@###",
"###@@@@@@@@@@@@@@@@@@@@@@@O Xooooo@                              @oooooX O@@@@@@@@@@@@@@@@@@@@@@@###",
"###@@@@@@@@@@@@@@@@@@@@@@@@O Xooooo@                            @oooooX O@@@@@@@@@@@@@@@@@@@@@@@@###",
"###@@@@@@@@@@@@@@@@@@@@@@@@@O Xooooo@                          @oooooX O@@@@@@@@@@@@@@@@@@@@@@@@@###",
"###@@@@@@@@@@@@@@@@@@@@@@@@@@O Xooooo@                        @oooooX O@@@@@@@@@@@@@@@@@@@@@@@@@@###",
"###@@@@@@@@@@@@@@@@@@@@@@@@@@@O Xooooo@                      @oooooX O@@@@@@@@@@@@@@@@@@@@@@@@@@@###",
"###@@@@@@@@@@@@@@@@@@@@@@@@@@@@O Xooooo@                    @oooooX O@@@@@@@@@@@@@@@@@@@@@@@@@@@@###",
"###@@@@@@@@@@@@@@@@@@@@@@@@@@@@@O Xooooo@                  @oooooX O@@@@@@@@@@@@@@@@@@@@@@@@@@@@@###",
"###@@@@@@@@@@@@@@@@@@@@@@@@@@@@@@O Xooooo@                @oooooX O@@@@@@@@@@@@@@@@@@@@@@@@@@@@@@###",
"###@@@@@@@@@@@@@@@@@@@@@@@@@@@@@@@O Xooooo@              @oooooX O@@@@@@@@@@@@@@@@@@@@@@@@@@@@@@@###",
"###@@@@@@@@@@@@@@@@@@@@@@@@@@@@@@@@O Xooooo@            @oooooX O@@@@@@@@@@@@@@@@@@@@@@@@@@@@@@@@###",
"###@@@@@@@@@@@@@@@@@@@@@@@@@@@@@@@@@O Xooooo@          @oooooX O@@@@@@@@@@@@@@@@@@@@@@@@@@@@@@@@@###",
"###@@@@@@@@@@@@@@@@@@@@@@@@@@@@@@@@@@O Xooooo@        @oooooX O@@@@@@@@@@@@@@@@@@@@@@@@@@@@@@@@@@###",
"###@@@@@@@@@@@@@@@@@@@@@@@@@@@@@@@@@@@O Xooooo@      @oooooX O@@@@@@@@@@@@@@@@@@@@@@@@@@@@@@@@@@@###",
"###@@@@@@@@@@@@@@@@@@@@@@@@@@@@@@@@@@@@O Xooooo@    @oooooX O@@@@@@@@@@@@@@@@@@@@@@@@@@@@@@@@@@@@###",
"###@@@@@@@@@@@@@@@@@@@@@@@@@@@@@@@@@@@@@O Xooooo@  @oooooX O@@@@@@@@@@@@@@@@@@@@@@@@@@@@@@@@@@@@@###",
"###@@@@@@@@@@@@@@@@@@@@@@@@@@@@@@@@@@@@@@O Xooooo@@oooooX O@@@@@@@@@@@@@@@@@@@@@@@@@@@@@@@@@@@@@@###",
"###@@@@@@@@@@@@@@@@@@@@@@@@@@@@@@@@@@@@@@@O XooooooooooX O@@@@@@@@@@@@@@@@@@@@@@@@@@@@@@@@@@@@@@@###",
"###@@@@@@@@@@@@@@@@@@@@@@@@@@@@@@@@@@@@@@@@O XooooooooX O@@@@@@@@@@@@@@@@@@@@@@@@@@@@@@@@@@@@@@@@###",
"###@@@@@@@@@@@@@@@@@@@@@@@@@@@@@@@@@@@@@@@@@O XooooooX O@@@@@@@@@@@@@@@@@@@@@@@@@@@@@@@@@@@@@@@@@###",
"###@@@@@@@@@@@@@@@@@@@@@@@@@@@@@@@@@@@@@@@@@@O XooooX O@@@@@@@@@@@@@@@@@@@@@@@@@@@@@@@@@@@@@@@@@@###",
"###@@@@@@@@@@@@@@@@@@@@@@@@@@@@@@@@@@@@@@@@@@@O XooX O@@@@@@@@@@@@@@@@@@@@@@@@@@@@@@@@@@@@@@@@@@@###",
"###@@@@@@@@@@@@@@@@@@@@@@@@@@@@@@@@@@@@@@@@@@@@O XX O@@@@@@@@@@@@@@@@@@@@@@@@@@@@@@@@@@@@@@@@@@@@###",
"###@@@@@@@@@@@@@@@@@@@@@@@@@@@@@@@@@@@@@@@@@@@@@O  O@@@@@@@@@@@@@@@@@@@@@@@@@@@@@@@@@@@@@@@@@@@@@###",
"###@@@@@@@@@@@@@@@@@@@@@@@@@@@@@@@@@@@@@@@@@@@@@@OO@@@@@@@@@@@@@@@@@@@@@@@@@@@@@@@@@@@@@@@@@@@@@@###",
"###@@@@@@@@@@@@@@@@@@@@@@@@@@@@@@@@@@@@@@@@@@@@@@@@@@@@@@@@@@@@@@@@@@@@@@@@@@@@@@@@@@@@@@@@@@@@@@###",
"###@@@@@@@@@@@@@@@@@@@@@@@@@@@@@@@@@@@@@@@@@@@@@@@@@@@@@@@@@@@@@@@@@@@@@@@@@@@@@@@@@@@@@@@@@@@@@@###",
"####@@@@@@@@@@@@@@@@@@@@@@@@@@@@@@@@@@@@@@@@@@@@@@@@@@@@@@@@@@@@@@@@@@@@@@@@@@@@@@@@@@@@@@@@@@@@####",
"####################################################################################################",
"####################################################################################################",
"####################################################################################################"
};
