/* XPM */
static char *fce437b312a44257c057d290d29ea2b6N6QwwpwHxysD8bVe[] = {
/* columns rows colors chars-per-pixel */
"100 100 30 1 ",
"  c #162535",
". c #1E303E",
"X c #2F0544",
"o c #B05212",
"O c #BE5D1A",
"+ c #9E8103",
"@ c #B09312",
"# c #C6A207",
"$ c #640E8C",
"% c #640790",
"& c #670597",
"* c #690798",
"= c #6C039E",
"- c #6E079F",
"; c #79069A",
": c #7008A2",
"> c #7310A2",
", c #7A09B0",
"< c #8C039E",
"1 c #9605AA",
"2 c #841DB6",
"3 c #A207B6",
"4 c #8221B0",
"5 c #AD0AC2",
"6 c #912BC2",
"7 c #9F36D1",
"8 c #A13AD3",
"9 c #A742D7",
"0 c #B55EDF",
"q c #B354E1",
/* pixels */
"....................................................................................................",
"....................................................................................................",
"....................................................................................................",
"....................................................................................................",
"....................................................................................................",
"....................................................................................................",
"....................................................................................................",
"....................................................................................................",
"....................................................................................................",
"....................................................................................................",
"....................................................................................................",
"....................................................................................................",
"....................................................................................................",
"....................................................................................................",
"....................................................................................................",
"....................................................................................................",
"....................................................................................................",
"....................................................................................................",
"....................................................................................................",
"....................................................................................................",
"....................................................................................................",
"....................................................................................................",
"....................................................................................................",
"....................................................................................................",
"....................................................................................................",
"....................................................................................................",
"....................................................................................................",
"....................................................................................................",
"....................................................................................................",
".............................................=........=.............................................",
".............................................=2......2=.............................................",
".............................................=2======2=.............................................",
".............................................&=222222=&.............................................",
"............................................=2266666622=............................................",
"...........................................=266666666662=...........................................",
"...........................................=266666666662=...........................................",
"..........................................=26666666666662=..........................................",
"..........................................=26666666666662=..........................................",
"..........................................=26X66666666X62=..........................................",
"...............................,,,........=266XX6666XX662=.........,,,..............................",
"..............................,,:*,.......=2666X6666X6662=........,*:,,.............................",
"............................,,::*:,.......=26666666666662=........,:*::,,...........................",
"..........................,,::%%*:,........=26666OO66662=.........,:*%%::,,.........................",
".........................;::%%%%*:,........=26666oo66662=.........,:*%%%%::;........................",
"........................<<;;%%%%%*:,,.......=2266666622=........,,:*%%%%%;;<<.......................",
".......................355<<;;%%%%*::,,.....$==222222==$......,,::*%%%%;;<<553......................",
".......................35555<<;;%%%**::,,...$>>==--==>>$....,,::**%%%;;<<55553......................",
"......................35555555<<;;%%%**::,,$466>>>>>>664$.,,::**%%%;;<<55555553.....................",
".....................35555555555<<;;%%%**::$467777777764$,::**%%%;;<<55555555553....................",
"....................35555333555551<<;;%%%*$46978q00q87964$**%%%;;<<15555533355553...................",
"....................35333...35553311<<;;%%$46978q00q87964$%%%;;<<11335553...33353...................",
".....................3......3555333311<<;;$46978q00q87964$%;;<<1133335553......3....................",
"............................355333333311<<$469778qq877964$;<<113333333553...........................",
"............................35533333333311$46697788779664$<11333333333553...........................",
".............................3333333333333$46669777796664$13333333333333............................",
".............................<.......333333$466699996664$1333333.......<............................",
"...........................................$466666666664$3..........................................",
"............................................$6666666666$............................................",
"............................................$4466666644$............................................",
".............................................$$444444$$.............................................",
"...............................................$$$$$$...............................................",
"...............................................++..++...............................................",
"...............................................@+..+@...............................................",
"..............................................@.@..@.@..............................................",
"..............................................#.#..#.#..............................................",
"....................................................................................................",
"....................................................................................................",
"....................................................................................................",
"....................................................................................................",
"....................................................................................................",
"....................................................................................................",
"....................................................................................................",
"....................................................................................................",
"....................................................................................................",
"....................................................................................................",
"....................................................................................................",
"....................................................................................................",
"....................................................................................................",
"....................................................................................................",
"....................................................................................................",
"....................................................................................................",
"....................................................................................................",
"....................................................................................................",
"......................................                      ........................................",
"...............................                                     ................................",
"...........................                                             ............................",
"........................                                                  ..........................",
".......................                                                    .........................",
".......................                                                     ........................",
".......................                                                     ........................",
".......................                                                    .........................",
"........................                                                  ..........................",
"...........................                                             ............................",
"...............................                                     ................................",
"......................................                      ........................................",
"....................................................................................................",
"....................................................................................................",
"....................................................................................................",
"....................................................................................................",
"...................................................................................................."
};
