/* XPM */
static char *b7793d1c734e4f26c6e2f0a9ee8d34402fcgSK5vTqhC9k8W[] = {
/* columns rows colors chars-per-pixel */
"100 100 15 1 ",
"  c #111D2B",
". c #162533",
"X c #122739",
"o c #1E303E",
"O c #2E3946",
"+ c #214054",
"@ c #254960",
"# c #455364",
"$ c #525F6E",
"% c #347DA6",
"& c #657383",
"* c #3481AC",
"= c #3687B3",
"- c #71C7F7",
"; c #8F9DAE",
/* pixels */
"oooooooooooooooooooooooooooooooooooooooooooooooooooooooooooooooooooooooooooooooooooooooooooooooooooo",
"oo..........................XXXXXXXXXXXXXXXXXXXXXXXXXXXXXXXXXXXXXXXXXXXX..........................oo",
"o..........................X+$$$;X+$$$;;X+$$;;;X@@@@X;;;$$+X;;$$$+X;$$$+X..........................o",
"o.........................X+$&&;X+&&&;;X+&&;;;X@%%%%@X;;;&&+X;;&&&+X;&&$+X.........................o",
"o........................X+$&&;X+&&&;;X+&&;;;X@%****%@X;;;&&+X;;&&&+X;&&$+X........................o",
"o.....                  X+$$$;X+$$$;;X+$$;;;X@%**==**%@X;;;$$+X;;$$$+X;$$$+X                  .....o",
"o....                   XXXXX+XXXXXX+XXXXXXX+@%*=--=*%@+XXXXXXX+XXXXXX+XXXXX                   ....o",
"o....                  X+$$$+X+$$$#+X+$$$##+X@%*=--=*%@X+##$$$+X+#$$$+X+$$$+X                  ....o",
"o....                  XO&&&;X$&&&;;X$&&&;;;X@%*=--=*%@X;;;&&&$X;;&&&$X;&&&OX                  ....o",
"o....                  XO&&&;X$&&&;;X$&&&;;;X@%*=--=*%@X;;;&&&$X;;&&&$X;&&&OX                  ....o",
"o....                  XO&&&;X$&&&;;X$&&&;;;X@%*=--=*%@X;;;&&&$X;;&&&$X;&&&OX                  ....o",
"o....                  XO&&&;X$&&&;;X$&&&;;;X@%*=--=*%@X;;;&&&$X;;&&&$X;&&&OX                  ....o",
"o....                  XO&&&;X$&&&;;X$&&&;;;X@%*=--=*%@X;;;&&&$X;;&&&$X;&&&OX                  ....o",
"o....                  XO&&&;X$&&&;;X$&&&;;;X@%*=--=*%@X;;;&&&$X;;&&&$X;&&&OX                  ....o",
"o....                  X+$$$+X$&&&;;X+$$$##+X@%*=--=*%@X+##$$$+X;;&&&$X+$$$+X                  ....o",
"o....                  XXXXXX+$&&&;;+XXXXXXX+@%*=--=*%@+XXXXXXX+;;&&&$+XXXXXX                  ....o",
"o....                  X+$$$+X$&&&;;X+$$$##+X@%*=--=*%@X+##$$$+X;;&&&$X+$$$+X                  ....o",
"o....                  XO&&&;X$&&&;;X$&&&;;;X@%*=--=*%@X;;;&&&$X;;&&&$X;&&&OX                  ....o",
"o....                  XO&&&;X$&&&;;X$&&&;;;X@%*=--=*%@X;;;&&&$X;;&&&$X;&&&OX                  ....o",
"o....                  XO&&&;X$&&&;;X$&&&;;;X@%*=--=*%@X;;;&&&$X;;&&&$X;&&&OX                  ....o",
"o....                  XO&&&;X$&&&;;X$&&&;;;X@%*=--=*%@X;;;&&&$X;;&&&$X;&&&OX                  ....o",
"o....                  XO&&&;X$&&&;;X$&&&;;;X@%*=--=*%@X;;;&&&$X;;&&&$X;&&&OX                  ....o",
"o....                  XO&&&;X+$$$#+X$&&&;;;X@%*=--=*%@X;;;&&&$X+#$$$+X;&&&OX                  ....o",
"o....                  XO&&&;+XXXXXX+$&&&;;;X@%*=--=*%@X;;;&&&$+XXXXXX+;&&&OX                  ....o",
"o.... XXXXXXXXXXXXXXXXX+$&&&;X+$$$#+X$&&&;;;X@%*=--=*%@X;;;&&&$X+#$$$+X;&&&$+XXXXXXXXXXXXXXXXX ....o",
"o...XX+OOOOOX+OOOOOOOOO$&&&&;X$&&&;;X$&&&;;;X@%*=--=*%@X;;;&&&$X;;&&&$X;&&&&$OOOOOOOOO+XOOOOO+XX...o",
"o..X+X$&&&&&X$&&&&&&&&&&&&&&;X$&&&;;X$&&&;;;X@%*=--=*%@X;;;&&&$X;;&&&$X;&&&&&&&&&&&&&&$X&&&&&$X+X..o",
"o.X+$X$&&&&&X$&&&&&&&&&&&&&&;X$&&&;;X+$$$##+X@%*=--=*%@X+##$$$+X;;&&&$X;&&&&&&&&&&&&&&$X&&&&&$X$+X.o",
"oX+$&X+;;;;+X+;;;;;;;;;;;;;;+X$&&&;;+XXXXXXX+@%*=--=*%@+XXXXXXX+;;&&&$X+;;;;;;;;;;;;;;+X+;;;;+X&$+Xo",
"oX$&;+XXXXXX+XXXXXXXXX+XXXXXX+&&&&;;X+$$$##+X@%*=--=*%@X+##$$$+X;;&&&&+XXXXXX+XXXXXXXXX+XXXXXX+;&$Xo",
"oX&;XX+$$$$$$$$$$$$$$+X+$$$$$&&&&&;;X$&&&;;;X@%*=--=*%@X;;;&&&$X;;&&&&&$$$$$+X+$$$$$$$$$$$$$$+XX;&Xo",
"oX;X+X$&&&&&&&&&&&&&&$X$&&&&&&&&&&;;X$&&&;;;X@%*=--=*%@X;;;&&&$X;;&&&&&&&&&&$X$&&&&&&&&&&&&&&$X+X;Xo",
"oXX+$X$&&&&&&&&&&&&&&$X$&&&&&&&&&&;;X$&&&;;;X@%*=--=*%@X;;;&&&$X;;&&&&&&&&&&$X$&&&&&&&&&&&&&&$X$+XXo",
"oX+&$X$&&&&&&&&&&&&&&$X$&&&&&&&&&&;;X$&&&;;;X@%*=--=*%@X;;;&&&$X;;&&&&&&&&&&$X$&&&&&&&&&&&&&&$X$&+Xo",
"oX$&$X#;;;;;;;;;;;;;;#X#;;;;;;;;;;;;X$&&&;;;X@%*=--=*%@X;;;&&&$X;;;;;;;;;;;;#X#;;;;;;;;;;;;;;#X$&$Xo",
"oX$&;X+;;;;;;;;;;;;;;+X+;;;;;;;;;;;+X$&&&;;;X@%*=--=*%@X;;;&&&$X+;;;;;;;;;;;+X+;;;;;;;;;;;;;;+X;&$Xo",
"oX$;;+XXXXXX+XXXXXXXXX+XXXXXX+XXXXXX+&&&&;;;X@%*=--=*%@X;;;&&&&+XXXXXX+XXXXXX+XXXXXXXXX+XXXXXX+;;$Xo",
"oX;;XX+$$$$+X+$$$$$$$$$$$$$$+X+$$$$$&&&&&;;;X@%*=--=*%@X;;;&&&&&$$$$$+X+$$$$$$$$$$$$$$+X+$$$$+XX;;Xo",
"oX;X+X$&&&&$X$&&&&&&&&&&&&&&$X$&&&&&&&&&&;;;X@%*=--=*%@X;;;&&&&&&&&&&$X$&&&&&&&&&&&&&&$X$&&&&$X+X;Xo",
"oXX+$X$&&&&$X$&&&&&&&&&&&&&&$X$&&&&&&&&&&;;;X@%*=--=*%@X;;;&&&&&&&&&&$X$&&&&&&&&&&&&&&$X$&&&&$X$+XXo",
"oX+&$X$&&&&$X$&&&&&&&&&&&&&&$X$&&&&&&&&&&;;;X@%*=--=*%@X;;;&&&&&&&&&&$X$&&&&&&&&&&&&&&$X$&&&&$X$&+Xo",
"oX$&$X#;;;;#X#;;;;;;;;;;;;;;#X#;;;;;;;;;;;;;X@%*=--=*%@X;;;;;;;;;;;;;#X#;;;;;;;;;;;;;;#X#;;;;#X$&$Xo",
"oX$&;X#;;;;#X#;;;;;;;;;;;;;;#X#;;;;;;;;;;;;;X@%*=--=*%@X;;;;;;;;;;;;;#X#;;;;;;;;;;;;;;#X#;;;;#X;&$Xo",
"oX$;;X+;;;;+X+;;;;;;;;;;;;;;+X+;;;;;;;;;;;;+X@%*=--=*%@X+;;;;;;;;;;;;+X+;;;;;;;;;;;;;;+X+;;;;+X;;$Xo",
"oX;;;+XXXXXX+XXXXXXXXXXXXXXXX+XXXXXXXXXXXXXX+%%*=--=*%%+XXXXXXXXXXXXXX+XXXXXXXXXXXXXXXX+XXXXXX+;;;Xo",
"oX;;X@@@@@@@@@@@@@@@@@@@@@@@@@@@@@@@@@@@@@@@%%%*=--=*%%%@@@@@@@@@@@@@@@@@@@@@@@@@@@@@@@@@@@@@@@X;;Xo",
"oX;X@%%%%%%%%%%%%%%%%%%%%%%%%%%%%%%%%%%%%%%%%%%*=--=*%%%%%%%%%%%%%%%%%%%%%%%%%%%%%%%%%%%%%%%%%%@X;Xo",
"oXX@%******************************************==--==******************************************%@XXo",
"oX@%**==========================================----==========================================**%@Xo",
"oX@%*=----------------------------------------------------------------------------------------=*%@Xo",
"oX@%*=----------------------------------------------------------------------------------------=*%@Xo",
"oX@%**==========================================----==========================================**%@Xo",
"oXX@%******************************************==--==******************************************%@XXo",
"oX;X@%%%%%%%%%%%%%%%%%%%%%%%%%%%%%%%%%%%%%%%%%%*=--=*%%%%%%%%%%%%%%%%%%%%%%%%%%%%%%%%%%%%%%%%%%@X;Xo",
"oX;;X@@@@@@@@@@@@@@@@@@@@@@@@@@@@@@@@@@@@@@@%%%*=--=*%%%@@@@@@@@@@@@@@@@@@@@@@@@@@@@@@@@@@@@@@@X;;Xo",
"oX;;;+XXXXXX+XXXXXXXXXXXXXXXX+XXXXXXXXXXXXXX+%%*=--=*%%+XXXXXXXXXXXXXX+XXXXXXXXXXXXXXXX+XXXXXX+;;;Xo",
"oX$;;X+;;;;+X+;;;;;;;;;;;;;;+X+;;;;;;;;;;;;+X@%*=--=*%@X+;;;;;;;;;;;;+X+;;;;;;;;;;;;;;+X+;;;;+X;;$Xo",
"oX$&;X#;;;;#X#;;;;;;;;;;;;;;#X#;;;;;;;;;;;;;X@%*=--=*%@X;;;;;;;;;;;;;#X#;;;;;;;;;;;;;;#X#;;;;#X;&$Xo",
"oX$&$X#;;;;#X#;;;;;;;;;;;;;;#X#;;;;;;;;;;;;;X@%*=--=*%@X;;;;;;;;;;;;;#X#;;;;;;;;;;;;;;#X#;;;;#X$&$Xo",
"oX+&$X$&&&&$X$&&&&&&&&&&&&&&$X$&&&&&&&&&&;;;X@%*=--=*%@X;;;&&&&&&&&&&$X$&&&&&&&&&&&&&&$X$&&&&$X$&+Xo",
"oXX+$X$&&&&$X$&&&&&&&&&&&&&&$X$&&&&&&&&&&;;;X@%*=--=*%@X;;;&&&&&&&&&&$X$&&&&&&&&&&&&&&$X$&&&&$X$+XXo",
"oX;X+X$&&&&$X$&&&&&&&&&&&&&&$X$&&&&&&&&&&;;;X@%*=--=*%@X;;;&&&&&&&&&&$X$&&&&&&&&&&&&&&$X$&&&&$X+X;Xo",
"oX;;XX+$$$$+X+$$$$$$$$$$$$$$+X+$$$$$&&&&&;;;X@%*=--=*%@X;;;&&&&&$$$$$+X+$$$$$$$$$$$$$$+X+$$$$+XX;;Xo",
"oX$;;+XXXXXX+XXXXXXXXX+XXXXXX+XXXXXX+&&&&;;;X@%*=--=*%@X;;;&&&&+XXXXXX+XXXXXX+XXXXXXXXX+XXXXXX+;;$Xo",
"oX$&;X+;;;;;;;;;;;;;;+X+;;;;;;;;;;;+X$&&&;;;X@%*=--=*%@X;;;&&&$X+;;;;;;;;;;;+X+;;;;;;;;;;;;;;+X;&$Xo",
"oX$&$X#;;;;;;;;;;;;;;#X#;;;;;;;;;;;;X$&&&;;;X@%*=--=*%@X;;;&&&$X;;;;;;;;;;;;#X#;;;;;;;;;;;;;;#X$&$Xo",
"oX+&$X$&&&&&&&&&&&&&&$X$&&&&&&&&&&;;X$&&&;;;X@%*=--=*%@X;;;&&&$X;;&&&&&&&&&&$X$&&&&&&&&&&&&&&$X$&+Xo",
"oXX+$X$&&&&&&&&&&&&&&$X$&&&&&&&&&&;;X$&&&;;;X@%*=--=*%@X;;;&&&$X;;&&&&&&&&&&$X$&&&&&&&&&&&&&&$X$+XXo",
"oX;X+X$&&&&&&&&&&&&&&$X$&&&&&&&&&&;;X$&&&;;;X@%*=--=*%@X;;;&&&$X;;&&&&&&&&&&$X$&&&&&&&&&&&&&&$X+X;Xo",
"oX&;XX+$$$$$$$$$$$$$$+X+$$$$$&&&&&;;X$&&&;;;X@%*=--=*%@X;;;&&&$X;;&&&&&$$$$$+X+$$$$$$$$$$$$$$+XX;&Xo",
"oX$&;+XXXXXX+XXXXXXXXX+XXXXXX+&&&&;;X+$$$##+X@%*=--=*%@X+##$$$+X;;&&&&+XXXXXX+XXXXXXXXX+XXXXXX+;&$Xo",
"oX+$&X+;;;;+X+;;;;;;;;;;;;;;+X$&&&;;+XXXXXXX+@%*=--=*%@+XXXXXXX+;;&&&$X+;;;;;;;;;;;;;;+X+;;;;+X&$+Xo",
"o.X+$X$&&&&&X$&&&&&&&&&&&&&&;X$&&&;;X+$$$##+X@%*=--=*%@X+##$$$+X;;&&&$X;&&&&&&&&&&&&&&$X&&&&&$X$+X.o",
"o..X+X$&&&&&X$&&&&&&&&&&&&&&;X$&&&;;X$&&&;;;X@%*=--=*%@X;;;&&&$X;;&&&$X;&&&&&&&&&&&&&&$X&&&&&$X+X..o",
"o...XX+OOOOOX+OOOOOOOOO$&&&&;X$&&&;;X$&&&;;;X@%*=--=*%@X;;;&&&$X;;&&&$X;&&&&$OOOOOOOOO+XOOOOO+XX...o",
"o.... XXXXXXXXXXXXXXXXX+$&&&;X+$$$#+X$&&&;;;X@%*=--=*%@X;;;&&&$X+#$$$+X;&&&$+XXXXXXXXXXXXXXXXX ....o",
"o....                  XO&&&;+XXXXXX+$&&&;;;X@%*=--=*%@X;;;&&&$+XXXXXX+;&&&OX                  ....o",
"o....                  XO&&&;X+$$$#+X$&&&;;;X@%*=--=*%@X;;;&&&$X+#$$$+X;&&&OX                  ....o",
"o....                  XO&&&;X$&&&;;X$&&&;;;X@%*=--=*%@X;;;&&&$X;;&&&$X;&&&OX                  ....o",
"o....                  XO&&&;X$&&&;;X$&&&;;;X@%*=--=*%@X;;;&&&$X;;&&&$X;&&&OX                  ....o",
"o....                  XO&&&;X$&&&;;X$&&&;;;X@%*=--=*%@X;;;&&&$X;;&&&$X;&&&OX                  ....o",
"o....                  XO&&&;X$&&&;;X$&&&;;;X@%*=--=*%@X;;;&&&$X;;&&&$X;&&&OX                  ....o",
"o....                  XO&&&;X$&&&;;X$&&&;;;X@%*=--=*%@X;;;&&&$X;;&&&$X;&&&OX                  ....o",
"o....                  X+$$$+X$&&&;;X+$$$##+X@%*=--=*%@X+##$$$+X;;&&&$X+$$$+X                  ....o",
"o....                  XXXXXX+$&&&;;+XXXXXXX+@%*=--=*%@+XXXXXXX+;;&&&$+XXXXXX                  ....o",
"o....                  X+$$$+X$&&&;;X+$$$##+X@%*=--=*%@X+##$$$+X;;&&&$X+$$$+X                  ....o",
"o....                  XO&&&;X$&&&;;X$&&&;;;X@%*=--=*%@X;;;&&&$X;;&&&$X;&&&OX                  ....o",
"o....                  XO&&&;X$&&&;;X$&&&;;;X@%*=--=*%@X;;;&&&$X;;&&&$X;&&&OX                  ....o",
"o....                  XO&&&;X$&&&;;X$&&&;;;X@%*=--=*%@X;;;&&&$X;;&&&$X;&&&OX                  ....o",
"o....                  XO&&&;X$&&&;;X$&&&;;;X@%*=--=*%@X;;;&&&$X;;&&&$X;&&&OX                  ....o",
"o....                  XO&&&;X$&&&;;X$&&&;;;X@%*=--=*%@X;;;&&&$X;;&&&$X;&&&OX                  ....o",
"o....                  XO&&&;X$&&&;;X$&&&;;;X@%*=--=*%@X;;;&&&$X;;&&&$X;&&&OX                  ....o",
"o....                  X+$$$+X+$$$#+X+$$$##+X@%*=--=*%@X+##$$$+X+#$$$+X+$$$+X                  ....o",
"o....                   XXXXX+XXXXXX+XXXXXXX+@%*=--=*%@+XXXXXXX+XXXXXX+XXXXX                   ....o",
"o.....                  X+$$$;X+$$$;;X+$$;;;X@%**==**%@X;;;$$+X;;$$$+X;$$$+X                   ....o",
"o........................X+$&&;X+&&&;;X+&&;;;X@%****%@X;;;&&+X;;&&&+X;&&$+X........................o",
"o.........................X+$&&;X+&&&;;X+&&;;;X@%%%%@X;;;&&+X;;&&&+X;&&$+X.........................o",
"o..........................X+$$$;X+$$$;;X+$$;;;X@@@@X;;;$$+X;;$$$+X;$$$+X..........................o",
"oo..........................XXXXXXXXXXXXXXXXXXXXXXXXXXXXXXXXXXXXXXXXXXXX..........................oo",
"oooooooooooooooooooooooooooooooooooooooooooooooooooooooooooooooooooooooooooooooooooooooooooooooooooo"
};
