/* XPM */
static char *_175f55560a3477ed06421cd88d76e6acwKm9ZDnjWcg3eFJ[] = {
/* columns rows colors chars-per-pixel */
"100 100 21 1 ",
"  c #111D2B",
". c #162533",
"X c #122739",
"o c #1E303E",
"O c #133045",
"+ c #2E3946",
"@ c #214054",
"# c #164661",
"$ c #1B5B7F",
"% c #455364",
"& c #525F6E",
"* c #206287",
"= c #22658A",
"- c #286B91",
"; c #2C7299",
": c #347DA6",
"> c #657383",
", c #3481AC",
"< c #3687B3",
"1 c #71C7F7",
"2 c #8F9DAE",
/* pixels */
"        XXOOOOOOOOOOOOOOOOOOOOOOOOOOOOOOOOOOOOOOOOOOOOOOOOOOOOOOOOOOOOOOOOXXX           .......ooooo",
"       XXOO##%%%%%+++@X%%%+++++@X%%++++++@X%%++++++@X%%++++++@X%%++++++@XOOXXX          .......ooooo",
"      XXO##**#22222>>&@X2222>>>&@X222>>>>&@X222>>>>&@X222>>>>&@X222>>>>&@XOOXXX         .......ooooo",
"     XXO#;;;;*#22222>>&@X2222>>>&@X222>>>>&@X222>>>>&@X222>>>>&@X222>>>>&@XOOXXX        .......ooooo",
"     XO1<,:::;*#%%%%++++@X%%%+++++@X%%++++++@X%%++++++@X%%++++++@X%%++++++@XOOXX        .......ooooo",
"     XO1<,::::;*XXXXXXXXXXXXXXXXXXXXXXXXXXXXXXXXXXXXXXXXXXXXXXXXXXXXXXXXXXXXXOXX        ......o.....",
"     XO1<,:::-;*X@%%%++++@X@%%+++++@X@%++++++@X@%++++++@X@%++++++@X@%++++++@XOXX        ............",
"     XO1<,:::-;*X%222>>>&+X%22>>>>&+X%2>>>>>&+X%2>>>>>&+X%2>>>>>&+X%2>>>>>&+XOXX        ............",
"     XO1<,:::-;*X%222>>>&+X%22>>>>&+X%2>>>>>&+X%2>>>>>&+X%2>>>>>&+X%2>>>>>&+XOXX        ............",
"     XO1<,:::-;*X%222>>>&+X%22>>>>&+X%2>>>>>&+X%2>>>>>&+X%2>>>>>&+X%2>>>>>&+XOXX        ............",
"     XO1<,:::-;*X%222>>>&+X%22>>>>&+X%2>>>>>&+X%2>>>>>&+X%2>>>>>&+X%2>>>>>&+XOXX        ............",
"     XO1<,:::-;*X%222>>>&+X%22>>>>&+X%2>>>>>&+X%2>>>>>&+X%2>>>>>&+X%2>>>>>&+XOXX        ............",
"     XO1<,:::-;*X%222>>>&+X%22>>>>&+X%2>>>>>&+X%2>>>>>&+X%2>>>>>&+X%2>>>>>&+XOXX       .            ",
"     XO1<,:::-;*X%222>>>&+X%22>>>>&+X%2>>>>>&+X%2>>>>>&+X%2>>>>>&+X%2>>>>>&+XOXX                    ",
"     XO1<,:::-;*X%222>>>&+X%22>>>>&+X%2>>>>>&+X%2>>>>>&+X%2>>>>>&+X%2>>>>>&+XOXX                    ",
"     XO1<,:::-;*X%222>>>&+X%22>>>>&+X%2>>>>>&+X%2>>>>>&+X%2>>>>>&+X%2>>>>>&+XOXX                    ",
"     XO1<,:::-;*X%222>>>&+X%22>>>>&+X%2>>>>>&+X%2>>>>>&+X%2>>>>>&+X%2>>>>>&+XOXX                    ",
"     XO1<,:::-;*X%222>>>&+X%22>>>>&+X%2>>>>>&+X%2>>>>>&+X%2>>>>>&+X%2>>>>>&+XOXX                    ",
"     XO1=,::::;*X%222>>>&+X%22>>>>&+X%2>>>>>&+X%2>>>>>&+X%2>>>>>&+X%2>>>>>&+XOXX                    ",
"     XO1;$$$$$;*X@%%%++++@X%22>>>>&+X@%++++++@X%2>>>>>&+X@%++++++@X%2>>>>>&+XOXX                    ",
"     XO1<*****$$XXXXXXXXXXX%22>>>>&+XXXXXXXXXXX%2>>>>>&+XXXXXXXXXXX%2>>>>>&+XOX XXXXXXXXXXXXXXXXX   ",
"     XO1<;;;;;**X@%%%++++@X%22>>>>&+X@%++++++@X%2>>>>>&+X@%++++++@X%2>>>>>&+XOXXXXXXXXXXXXXXXXXXXX  ",
"     XO1<,::::;*X%222>>>&+X%22>>>>&+X%2>>>>>&+X%2>>>>>&+X%2>>>>>&+X%2>>>>>&+XOOOOOOOOOOOOOOOOOOOXXX ",
"     XO1<,:::-;*X%222>>>&+X%22>>>>&+X%2>>>>>&+X%2>>>>>&+X%2>>>>>&+X%2>>>>>&+@XXXXXXXXXXXXXXXXXXOOXXX",
"     XO1<,:::-;*X%222>>>&+X%22>>>>&+X%2>>>>>&+X%2>>>>>&+X%2>>>>>&+X%2>>>>>&@+++++++++++++++++@XXOOXX",
"     XO1<,:::-;*X%222>>>&+X%22>>>>&+X%2>>>>>&+X%2>>>>>&+X%2>>>>>&+X%2>>>>>>&&&&&&&&&&&&&&&&&&+X@XOOX",
"     XO1<,:::-;*X%222>>>&+X%22>>>>&+X%2>>>>>&+X%2>>>>>&+X%2>>>>>&+X%2>>>>>>>>>>>>>>>>>>>>>>>>+X+@XOO",
"     XO1<,:::-;*X%222>>>&+X%22>>>>&+X%2>>>>>&+X%2>>>>>&+X%2>>>>>&+X%2>>>>>>>>>>>>>>>>>>>>>>>>+X+&@XO",
"     XO1<,:::-;*X%222>>>&+X%22>>>>&+X%2>>>>>&+X%2>>>>>&+X%2>>>>>&+X%2>>>>>>>>>>>>>>>>>>>>>>>>+X+>&@O",
"     XO1<,:::-;*X%222>>>&+X@%%+++++@X%2>>>>>&+X@%++++++@X%2>>>>>&+X%2>>>>>>>>>>>>>>>>>>>>>>>>+X+>>+O",
"     XO1<,:::-;*X%222>>>&+XXXXXXXXXXX%2>>>>>&+XXXXXXXXXXX%2>>>>>&+X%22>>>>>>>>>>>>>>>>>>>>>>>+X+>>+O",
"     XO1<,:::-;*X%222>>>&+X@%%+++++@X%2>>>>>&+X@%++++++@X%2>>>>>&+X%2222222222222222222222222%X+>>+O",
"     XO1<,:::-;*X%222>>>&+X%22>>>>&+X%2>>>>>&+X%2>>>>>&+X%2>>>>>&+X@%%%%%%%%%%%%%%%%%%%%%%%%%@X%2>+O",
"     XO1<,:::-;*X%222>>>&+X%22>>>>&+X%2>>>>>&+X%2>>>>>&+X%2>>>>>&+@XXXXXXXXXXXXXXXXXXXXXXXXXXXX%22+O",
"     XO1<,:::-;*X%222>>>&+X%22>>>>&+X%2>>>>>&+X%2>>>>>&+X%2>>>>>&&+++++++++++@X@+++++++++++++@XX22%O",
"     XO1<,:::-;*X%222>>>&+X%22>>>>&+X%2>>>>>&+X%2>>>>>&+X%2>>>>>&&&&&&&&&&&&&+X+&&&&&&&&&&&&&+X@X2%O",
"     XO1<,:::-;*X%222>>>&+X%22>>>>&+X%2>>>>>&+X%2>>>>>&+X%2>>>>>>>>>>>>>>>>>>+X+>>>>>>>>>>>>>+X+@X%O",
"     XO1<,:::-;*X%222>>>&+X%22>>>>&+X%2>>>>>&+X%2>>>>>&+X%2>>>>>>>>>>>>>>>>>>+X+>>>>>>>>>>>>>+X+&@XO",
"     XO1<,:::-;*X%222>>>&+X%22>>>>&+X%2>>>>>&+X%2>>>>>&+X%2>>>>>>>>>>>>>>>>>>+X+>>>>>>>>>>>>>+X+>&@O",
"     XO1$,::::;*X%222>>>&+X%22>>>>&+X@%++++++@X%2>>>>>&+X%2>>>>>>>>>>>>>>>>>>+X+>>>>>>>>>>>>>+X+>>+O",
"     XO1<$$$$$;*X@%%%++++@X%22>>>>&+XXXXXXXXXXX%2>>>>>&+X%22>>>>>>>>>>>>>>>>>+X+>>>>>>>>>>>>>+X+>>+O",
"     XO1<,:::*$$XXXXXXXXXXX%22>>>>&+X@%++++++@X%2>>>>>&+X%2222222222222222222%X%2222222222222%X+>>+O",
"     XO1<,:::;**X@%%%++++@X%22>>>>&+X%2>>>>>&+X%2>>>>>&+X@%%%%%%%%%%%%%%%%%%%@X@%%%%%%%%%%%%%@X%>>+O",
"     XO1<,::::;*X%222>>>&+X%22>>>>&+X%2>>>>>&+X%2>>>>>&+XXXXXXXXXXXXXXXXXXXXXXXXXXXXXXXXXXXXXXX%2>+O",
"     XO1<,:::-;*X%222>>>&+X%22>>>>&+X%2>>>>>&+X%2>>>>>&+++++++++++++@X@++++++++++++++++++++++@XX22+O",
"     XO1<,:::-;*X%222>>>&+X%22>>>>&+X%2>>>>>&+X%2>>>>>&&&&&&&&&&&&&&+X+&&&&&&&&&&&&&&&&&&&&&&+X@X2%O",
"     XO1<,:::-;*X%222>>>&+X%22>>>>&+X%2>>>>>&+X%2>>>>>>>>>>>>>>>>>>>+X+>>>>>>>>>>>>>>>>>>>>>>+X+@X%O",
"     XO1<,:::-;*X%222>>>&+X%22>>>>&+X%2>>>>>&+X%2>>>>>>>>>>>>>>>>>>>+X+>>>>>>>>>>>>>>>>>>>>>>+X+&@XO",
"     XO1<,:::-;*X%222>>>&+X%22>>>>&+X%2>>>>>&+X%2>>>>>>>>>>>>>>>>>>>+X+>>>>>>>>>>>>>>>>>>>>>>+X+>&@O",
"     XO1<,:::-;*X%222>>>&+X%22>>>>&+X%2>>>>>&+X%2>>>>>>>>>>>>>>>>>>>+X+>>>>>>>>>>>>>>>>>>>>>>+X+>>+O",
"     XO1<,:::-;*X%222>>>&+X%22>>>>&+X%2>>>>>&+X%22>>>>>>>>>>>>>>>>>>+X+>>>>>>>>>>>>>>>>>>>>>>+X+>>+O",
"     XO1<,:::-;*X%222>>>&+X%22>>>>&+X%2>>>>>&+X%22222222222222222222%X%2222222222222222222222%X+>>+O",
"     XO1<,:::-;*X%222>>>&+X%22>>>>&+X%2>>>>>&+X@%%%%%%%%%%%%%%%%%%%%@X@%%%%%%%%%%%%%%%%%%%%%%@X%>>+O",
"     XO1<,:::-;*X%222>>>&+X%22>>>>&+X%2>>>>>&+@XXXXXXXXXXXXXXXXXXXXXXXXXXXXXXXXXXXXXXXXXXXXXXXX%2>+O",
"     XO1<,:::-;*X%222>>>&+X%22>>>>&+X%2>>>>>&&+++++++++++++@X@++++++++++++++++@X@++++++++++++@XX22+O",
"     XO1<,:::-;*X%222>>>&+X%22>>>>&+X%2>>>>>>&&&&&&&&&&&&&&+X+&&&&&&&&&&&&&&&&+X+&&&&&&&&&&&&+X@X2%O",
"     XO1<,:::-;*X%222>>>&+X%22>>>>&+X%2>>>>>>>>>>>>>>>>>>>>+X+>>>>>>>>>>>>>>>>+X+>>>>>>>>>>>>+X+@X%O",
"     XO1<,:::-;*X%222>>>&+X%22>>>>&+X%2>>>>>>>>>>>>>>>>>>>>+X+>>>>>>>>>>>>>>>>+X+>>>>>>>>>>>>+X+&@XO",
"     XO1=,::::;*X%222>>>&+X%22>>>>&+X%2>>>>>>>>>>>>>>>>>>>>+X+>>>>>>>>>>>>>>>>+X+>>>>>>>>>>>>+X+>&@O",
"     XO1;$$$$$;*X@%%%++++@X%22>>>>&+X%2>>>>>>>>>>>>>>>>>>>>+X+>>>>>>>>>>>>>>>>+X+>>>>>>>>>>>>+X+>>+O",
"     XO1<*****$$XXXXXXXXXXX%22>>>>&+X%22>>>>>>>>>>>>>>>>>>>+X+>>>>>>>>>>>>>>>>+X+>>>>>>>>>>>>+X+>>+O",
"     XO1<;;;;;**X@%%%++++@X%22>>>>&+X%222222222222222222222%X%2222222222222222%X%222222222222%X+>>+O",
"     XO1<,::::;*X%222>>>&+X%22>>>>&+X@%%%%%%%%%%%%%%%%%%%%%@X@%%%%%%%%%%%%%%%%@X@%%%%%%%%%%%%@X%>>+O",
"     XO1<,:::-;*X%222>>>&+X%22>>>>&+@XXXXXXXXXXXXXXXXXXXXXXXXXXXXXXXXXXXXXXXXXXXXXXXXXXXXXXXXXX%2>+O",
"     XO1<,:::-;*X%222>>>&+X%22>>>>&&++++++++++++++++++++++++++++++++@X@++++++++++++++++++++++@XX22+O",
"     XO1<,:::-;*X%222>>>&+X%22>>>>>&&&&&&&&&&&&&&&&&&&&&&&&&&&&&&&&&+X+&&&&&&&&&&&&&&&&&&&&&&+X@X2%O",
"     XO1<,:::-;*X%222>>>&+X%22>>>>>>>>>>>>>>>>>>>>>>>>>>>>>>>>>>>>>>+X+>>>>>>>>>>>>>>>>>>>>>>+X+@X%O",
"     XO1<,:::-;*X%222>>>&+X%22>>>>>>>>>>>>>>>>>>>>>>>>>>>>>>>>>>>>>>+X+>>>>>>>>>>>>>>>>>>>>>>+X+&@XO",
"     XO1<,:::-;*X%222>>>&+X%22>>>>>>>>>>>>>>>>>>>>>>>>>>>>>>>>>>>>>>+X+>>>>>>>>>>>>>>>>>>>>>>+X+>&@O",
"     XO1<,:::-;*X%222>>>&+X%222>>>>>>>>>>>>>>>>>>>>>>>>>>>>>>>>>>>>>+X+>>>>>>>>>>>>>>>>>>>>>>+X+>>+O",
"     XO1<,:::-;*X%222>>>&+X%2222222222222222222222222222222222222222%X%2222222222222222222222%X+>>+O",
"     XO1<,:::-;*X%222>>>&+X%2222222222222222222222222222222222222222%X%2222222222222222222222%X%>>+O",
"     XO1=,::::;*X%222>>>&+X@%%%%%%%%%%%%%%%%%%%%%%%%%%%%%%%%%%%%%%%%@X@%%%%%%%%%%%%%%%%%%%%%%@X%2>+O",
"     XO1;$$$$$;*X%222>>>&+@XXXXXXXXXXXXXXXXXXXXXXXXXXXXXXXXXXXXXXXXXXXXXXXXXXXXXXXXXXXXXXXXXXXX%22+O",
"     XO1<*****$$X%222>>>&&++++++++++++++@X@++++++++++++++++@X@++++++++++++++++@X@++++++++++++@XX22%O",
"     XO1<;;;;;**X%222>>>>&&&&&&&&&&&&&&&+X+&&&&&&&&&&&&&&&&+X+&&&&&&&&&&&&&&&&+X+&&&&&&&&&&&&+X@X2%O",
"     XO1<,::::;*X%222>>>>>>>>>>>>>>>>>>>+X+>>>>>>>>>>>>>>>>+X+>>>>>>>>>>>>>>>>+X+>>>>>>>>>>>>+X+@X%O",
"     XO1<,:::-;*X%222>>>>>>>>>>>>>>>>>>>+X+>>>>>>>>>>>>>>>>+X+>>>>>>>>>>>>>>>>+X+>>>>>>>>>>>>+X+&@XO",
"     XO1<,:::-;*X%2222>>>>>>>>>>>>>>>>>>+X+>>>>>>>>>>>>>>>>+X+>>>>>>>>>>>>>>>>+X+>>>>>>>>>>>>+X+>&@O",
"     XO1<,:::-;*X%2222222222222222222222%X%2222222222222222%X%2222222222222222%X%222222222222%X+>>+O",
"     XO1<,:::-;*X%2222222222222222222222%X%2222222222222222%X%2222222222222222%X%222222222222%X+>>+O",
"     XO1<,:::-;*X%2222222222222222222222%X%2222222222222222%X%2222222222222222%X%222222222222%X%2>+O",
"     XO1<,:::-;*X@%%%%%%%%%%%%%%%%%%%%%%@X@%%%%%%%%%%%%%%%%@X@%%%%%%%%%%%%%%%%@X@%%%%%%%%%%%%@X%22+O",
"     XO1<,:::-;*XXXXXXXXXXXXXXXXXXXXXXXXXXXXXXXXXXXXXXXXXXXXXXXXXXXXXXXXXXXXXXXXXXXXXXXXXXXXXXX%22%O",
"     XO1<,::::;*****$********************$******************$******************$***************#22%O",
"     XO1<,:::::;;;;;$*;;;;;;;;;;;;;;;;;;;$*;;;;;;;;;;;;;;;;;$*;;;;;;;;;;;;;;;;;$*;;;;;;;;;;;;;;;#2%O",
"     XO1<,:::::::::$*;:----------------:$*;:--------------:$*;:--------------:$*;:--------------:#%O",
"     XO1<,:::::::::$*;::::::::::::::::::$::::::::::::::::::$*;::::::::::::::::$*;:::::::::::::::::#O",
"     XO1<,:::::::::$*;::::::::::::::::::$::::::::::::::::::$*;::::::::::::::::$*;:::::::::::::::::#O",
"     XO1<,:::::::::$*;::::::::::::::::::$::::::::::::::::::$*;::::::::::::::::$*;::::::::::::::::#OO",
"     XO1<,,,,,,,,,,$*;,,,,,,,,,,,,,,,,,,$,,,,,,,,,,,,,,,,,,$*;,,,,,,,,,,,,,,,,$*;,,,,,,,,,,,,,,,,#OX",
"     XXO1<<<<<<<<<=;<<<<<<<<<<<<<<<<<<<$<<<<<<<<<<<<<<<<<<=;<<<<<<<<<<<<<<<<<=;<<<<<<<<<<<<<<<<<#OXX",
"      XXO111111111111111111111111111111111111111111111111111111111111111111111111111111111111111OXX ",
"       XXOOOOOOOOOOOOOOOOOOOOOOOOOOOOOOOOOOOOOOOOOOOOOOOOOOOOOOOOOOOOOOOOOOOOOOOOOOOOOOOOOOOOOOOXX  ",
"        XXXXXXXXXXXXXXXXXXXXXXXXXXXXXXXXXXXXXXXXXXXXXXXXXXXXXXXXXXXXXXXXXXXXXXXXXXXXXXXXXXXXXXXXX   ",
"                                                                                                    ",
"                                                                                                    ",
"                                                                                                    ",
"                                                                                                    ",
"                                                                                                    "
};
