/* XPM */
static char *_a1613032ba94ff0dc361079af9156d3fjhB9QWMj3kfbJpc[] = {
/* columns rows colors chars-per-pixel */
"100 100 21 1 ",
"  c #111D2B",
". c #162533",
"X c #122739",
"o c #1E303E",
"O c #133045",
"+ c #2E3946",
"@ c #214054",
"# c #164661",
"$ c #1B5B7F",
"% c #455364",
"& c #525F6E",
"* c #206287",
"= c #22658A",
"- c #286B91",
"; c #2C7299",
": c #347DA6",
"> c #657383",
", c #3481AC",
"< c #3687B3",
"1 c #71C7F7",
"2 c #8F9DAE",
/* pixels */
"        XXOOOOOOOOOOOOOOOOOOOOOOOOOOOOOOOOOOOOOOOOOOOOOOOOOOOOOOOOOOOOOOOOXXX           .......ooooo",
"       XXOO##%%%%++++@X%%%+++++@X%%++++++@X%%++++++@X%%++++++@X%%%+++++@XOOXXX          .......ooooo",
"      XXO##::#2222>>>&@X222>>>>&@X22>>>>>&@X22>>>>>&@X22>>>>>&@X222>>>>&@XOOXXX         .......ooooo",
"     XXO#,::::#2222>>>&@X222>>>>&@X22>>>>>&@X22>>>>>&@X22>>>>>&@X222>>>>&@XOOXXX        .......ooooo",
"     XO1<,:::-;#%%%+++++@X%%%+++++@X%%++++++@X%%++++++@X%%++++++@X%%++++++@XOOXX        .......ooooo",
"     XO1<,:::-;*XXXXXXXXXXXXXXXXXXXXXXXXXXXXXXXXXXXXXXXXXXXXXXXXXXXXXXXXXXXXXOXX        .......ooooo",
"     XO1<,:::-;*X@%%%++++@X@%%+++++@X@%++++++@X@%++++++@X@%++++++@X@%++++++@XOXX        .......ooooo",
"     XO1<,:::-;*X%222>>>&+X%22>>>>&+X%2>>>>>&+X%2>>>>>&+X%2>>>>>&+X%2>>>>>&+XOXX        .......ooooo",
"     XO1<,:::-;*X%222>>>&+X%22>>>>&+X%2>>>>>&+X%2>>>>>&+X%2>>>>>&+X%2>>>>>&+XOXX        .......ooooo",
"     XO1<,:::-;*X%222>>>&+X%22>>>>&+X%2>>>>>&+X%2>>>>>&+X%2>>>>>&+X%2>>>>>&+XOXX        .......ooooo",
"     XO1<,:::-;*X%222>>>&+X%22>>>>&+X%2>>>>>&+X%2>>>>>&+X%2>>>>>&+X%2>>>>>&+XOXX        .......ooooo",
"     XO1<,:::-;*X%222>>>&+X%22>>>>&+X%2>>>>>&+X%2>>>>>&+X%2>>>>>&+X%2>>>>>&+XOXX        .......ooooo",
"     XO1<,:::-;*X%222>>>&+X%22>>>>&+X%2>>>>>&+X%2>>>>>&+X%2>>>>>&+X%2>>>>>&+XOXX        .......ooooo",
"     XO1<,:::-;*X%222>>>&+X%22>>>>&+X%2>>>>>&+X%2>>>>>&+X%2>>>>>&+X%2>>>>>&+XOXX        .......ooooo",
"     XO1<,:::-;*X%222>>>&+X%22>>>>&+X%2>>>>>&+X%2>>>>>&+X%2>>>>>&+X%2>>>>>&+XOXX        .......ooooo",
"     XO1<,:::-;*X%222>>>&+X%22>>>>&+X%2>>>>>&+X%2>>>>>&+X%2>>>>>&+X%2>>>>>&+XOXX        .......ooooo",
"     XO1<,:::-;*X%222>>>&+X%22>>>>&+X%2>>>>>&+X%2>>>>>&+X%2>>>>>&+X%2>>>>>&+XOXX        .......ooooo",
"     XO1<,:::-;*X%222>>>&+X%22>>>>&+X%2>>>>>&+X%2>>>>>&+X%2>>>>>&+X%2>>>>>&+XOXX        .......ooooo",
"     XO1<,::::;*X%222>>>&+X%22>>>>&+X%2>>>>>&+X%2>>>>>&+X%2>>>>>&+X%2>>>>>&+XOXX        .......ooooo",
"     XO1<;;;;;**X@%%%++++@X%22>>>>&+X@%++++++@X%2>>>>>&+X%2>>>>>&+X%2>>>>>&+XOXX        .......ooooo",
"     XO1<*****$$XXXXXXXXXXX%22>>>>&+XXXXXXXXXXX%2>>>>>&+X@%++++++@X%2>>>>>&+XOXX        .......ooooo",
"     XO1;$$$$$;*X@%%%++++@X%22>>>>&+X@%++++++@X%2>>>>>&+XXXXXXXXXXX%2>>>>>&+XOXX        .......ooooo",
"     XO1=,::::;*X%222>>>&+X%22>>>>&+X%2>>>>>&+X%2>>>>>&+X@%++++++@X%2>>>>>&+XOXX        .......ooooo",
"     XO1<,:::-;*X%222>>>&+X%22>>>>&+X%2>>>>>&+X%2>>>>>&+X%2>>>>>&+X%2>>>>>&+XOXX        .......ooooo",
"     XO1<,:::-;*X%222>>>&+X%22>>>>&+X%2>>>>>&+X%2>>>>>&+X%2>>>>>&+X%2>>>>>&+XOXX        .......ooooo",
"     XO1<,:::-;*X%222>>>&+X%22>>>>&+X%2>>>>>&+X%2>>>>>&+X%2>>>>>&+X%2>>>>>&+XOXX        .......ooooo",
"     XO1<,:::-;*X%222>>>&+X%22>>>>&+X%2>>>>>&+X%2>>>>>&+X%2>>>>>&+X%2>>>>>&+XOXX        .......ooooo",
"     XO1<,:::-;*X%222>>>&+X%22>>>>&+X%2>>>>>&+X%2>>>>>&+X%2>>>>>&+X%2>>>>>&+XOXX        .......ooooo",
"     XO1<,:::-;*X%222>>>&+X%22>>>>&+X%2>>>>>&+X%2>>>>>&+X%2>>>>>&+X%2>>>>>&+XOXX        .......ooooo",
"     XO1<,:::-;*X%222>>>&+X@%%+++++@X%2>>>>>&+X@%++++++@X%2>>>>>&+X@%++++++@XOXX        .......ooooo",
"     XO1<,:::-;*X%222>>>&+XXXXXXXXXXX%2>>>>>&+XXXXXXXXXXX%2>>>>>&+XXXXXXXXXXXOXX        .......ooooo",
"     XO1<,:::-;*X%222>>>&+X@%%+++++@X%2>>>>>&+X@%++++++@X%2>>>>>&+X@%++++++@XOXX        .......ooooo",
"     XO1<,:::-;*X%222>>>&+X%22>>>>&+X%2>>>>>&+X%2>>>>>&+X%2>>>>>&+X%2>>>>>&+XOXX        .......ooooo",
"     XO1<,:::-;*X%222>>>&+X%22>>>>&+X%2>>>>>&+X%2>>>>>&+X%2>>>>>&+X%2>>>>>&+XOXX        .......ooooo",
"     XO1<,:::-;*X%222>>>&+X%22>>>>&+X%2>>>>>&+X%2>>>>>&+X%2>>>>>&+X%2>>>>>&+XOXX        .......ooooo",
"     XO1<,:::-;*X%222>>>&+X%22>>>>&+X%2>>>>>&+X%2>>>>>&+X%2>>>>>&+X%2>>>>>&+XOXX        .......ooooo",
"     XO1<,:::-;*X%222>>>&+X%22>>>>&+X%2>>>>>&+X%2>>>>>&+X%2>>>>>&+X%2>>>>>&+XOXX        .......ooooo",
"     XO1<,::::;*X%222>>>&+X%22>>>>&+X%2>>>>>&+X%2>>>>>&+X%2>>>>>&+X%2>>>>>&+XOXX        .......ooooo",
"     XO1<;;;;;**X@%%%++++@X%22>>>>&+X@%++++++@X%2>>>>>&+X@%++++++@X%2>>>>>&+XOXX        .......ooooo",
"     XO1<*****$$XXXXXXXXXXX%22>>>>&+XXXXXXXXXXX%2>>>>>&+XXXXXXXXXXX%2>>>>>&+XOXX        .......ooooo",
"     XO1;$$$$$;*X@%%%++++@X%22>>>>&+X@%++++++@X%2>>>>>&+X@%++++++@X%2>>>>>&+XOXX        .......ooooo",
"     XO1=,::::;*X%222>>>&+X%22>>>>&+X%2>>>>>&+X%2>>>>>&+X%2>>>>>&+X%2>>>>>&+XOXX        .......ooooo",
"     XO1<,:::-;*X%222>>>&+X%22>>>>&+X%2>>>>>&+X%2>>>>>&+X%2>>>>>&+X%2>>>>>&+XOXX        .......ooooo",
"     XO1<,:::-;*X%222>>>&+X%22>>>>&+X%2>>>>>&+X%2>>>>>&+X%2>>>>>&+X%2>>>>>&+XOXX        .......ooooo",
"     XO1<,:::-;*X%222>>>&+X%22>>>>&+X%2>>>>>&+X%2>>>>>&+X%2>>>>>&+X%2>>>>>&+XOXX        .......ooooo",
"     XO1<,:::-;*X%222>>>&+X%22>>>>&+X%2>>>>>&+X%2>>>>>&+X%2>>>>>&+X%2>>>>>&+XOXX        .......ooooo",
"     XO1<,:::-;*X%222>>>&+X%22>>>>&+X%2>>>>>&+X%2>>>>>&+X%2>>>>>&+X%2>>>>>&+XOXX        .......ooooo",
"     XO1<,:::-;*X%222>>>&+X%22>>>>&+X%2>>>>>&+X%2>>>>>&+X%2>>>>>&+X%2>>>>>&+XOXX        .......ooooo",
"     XO1<,:::-;*X%222>>>&+X%22>>>>&+X%2>>>>>&+X%2>>>>>&+X%2>>>>>&+X%2>>>>>&+XOXX        .......ooooo",
"     XO1<,:::-;*X%222>>>&+X%22>>>>&+X%2>>>>>&+X%2>>>>>&+X%2>>>>>&+X%2>>>>>&+XOXX        .......ooooo",
"     XO1<,:::-;*X%222>>>&+X%22>>>>&+X%2>>>>>&+X%2>>>>>&+X%2>>>>>&+X%2>>>>>&+XOXX        .......ooooo",
"     XO1<,:::-;*X%222>>>&+X%22>>>>&+X%2>>>>>&+X%2>>>>>&+X%2>>>>>&+X%2>>>>>&+XOXX        .......ooooo",
"     XO1<,:::-;*X%222>>>&+X%22>>>>&+X%2>>>>>&+X%2>>>>>&+X%2>>>>>&+X%2>>>>>&+XOXX        .......ooooo",
"     XO1<,:::-;*X%222>>>&+X%22>>>>&+X%2>>>>>&+X%2>>>>>&+X%2>>>>>&+X%2>>>>>&+XOXX        .......ooooo",
"     XO1<,:::-;*X%222>>>&+X%22>>>>&+X%2>>>>>&+X%2>>>>>&+X%2>>>>>&+X%2>>>>>&+XOXX        .......ooooo",
"     XO1<,:::-;*X%222>>>&+X%22>>>>&+X%2>>>>>&+X%2>>>>>&+X%2>>>>>&+X%2>>>>>&+XOXX        .......ooooo",
"     XO1<,::::;*X%222>>>&+X%22>>>>&+X%2>>>>>&+X%2>>>>>&+X%2>>>>>&+X%2>>>>>&+XOXX        .......ooooo",
"     XO1<,:::;**X@%%%++++@X%22>>>>&+X%2>>>>>&+X%2>>>>>&+X%2>>>>>&+X%2>>>>>&+XOXX        .......ooooo",
"     XO1<,:::*$$XXXXXXXXXXX%22>>>>&+X@%++++++@X%2>>>>>&+X@%++++++@X%2>>>>>&+XOXX        .......ooooo",
"     XO1<$$$$$;*X@%%%++++@X%22>>>>&+XXXXXXXXXXX%2>>>>>&+XXXXXXXXXXX%2>>>>>&+XOXX        .......ooooo",
"     XO1$,::::;*X%222>>>&+X%22>>>>&+X@%++++++@X%2>>>>>&+X@%++++++@X%2>>>>>&+XOXX        .......ooooo",
"     XO1<,:::-;*X%222>>>&+X%22>>>>&+X%2>>>>>&+X%2>>>>>&+X%2>>>>>&+X%2>>>>>&+XOXX        .......ooooo",
"     XO1<,:::-;*X%222>>>&+X%22>>>>&+X%2>>>>>&+X%2>>>>>&+X%2>>>>>&+X%2>>>>>&+XOXX        .......ooooo",
"     XO1<,:::-;*X%222>>>&+X%22>>>>&+X%2>>>>>&+X%2>>>>>&+X%2>>>>>&+X%2>>>>>&+XOXX        .......ooooo",
"     XO1<,:::-;*X%222>>>&+X%22>>>>&+X%2>>>>>&+X%2>>>>>&+X%2>>>>>&+X%2>>>>>&+XOXX        .......ooooo",
"     XO1<,:::-;*X%222>>>&+X%22>>>>&+X%2>>>>>&+X%2>>>>>&+X%2>>>>>&+X%2>>>>>&+XOXX        .......ooooo",
"     XO1<,:::-;*X%222>>>&+X%22>>>>&+X%2>>>>>&+X%2>>>>>&+X%2>>>>>&+X%2>>>>>&+XOXX        .......ooooo",
"     XO1<,:::-;*X%222>>>&+X%22>>>>&+X%2>>>>>&+X%2>>>>>&+X%2>>>>>&+X%2>>>>>&+XOXX        .......ooooo",
"     XO1<,:::-;*X%222>>>&+X@%%+++++@X%2>>>>>&+X@%++++++@X%2>>>>>&+X@%++++++@XOXX        .......ooooo",
"     XO1<,:::-;*X%222>>>&+XXXXXXXXXXX%2>>>>>&+XXXXXXXXXXX%2>>>>>&+XXXXXXXXXXXOXX        .......ooooo",
"     XO1<,:::-;*X%222>>>&+X@%%+++++@X%2>>>>>&+X@%++++++@X%2>>>>>&+X@%++++++@XOXX        .......ooooo",
"     XO1<,:::-;*X%222>>>&+X%22>>>>&+X%2>>>>>&+X%2>>>>>&+X%2>>>>>&+X%2>>>>>&+XOXX        .......ooooo",
"     XO1<,:::-;*X%222>>>&+X%22>>>>&+X%2>>>>>&+X%2>>>>>&+X%2>>>>>&+X%2>>>>>&+XOXX        .......ooooo",
"     XO1<,:::-;*X%222>>>&+X%22>>>>&+X%2>>>>>&+X%2>>>>>&+X%2>>>>>&+X%2>>>>>&+XOXX        .......ooooo",
"     XO1<,:::-;*X%222>>>&+X%22>>>>&+X%2>>>>>&+X%2>>>>>&+X%2>>>>>&+X%2>>>>>&+XOXX        .......ooooo",
"     XO1<,:::-;*X%222>>>&+X%22>>>>&+X%2>>>>>&+X%2>>>>>&+X%2>>>>>&+X%2>>>>>&+XOXX        .......ooooo",
"     XO1<,:::-;*X%222>>>&+X%22>>>>&+X%2>>>>>&+X%2>>>>>&+X%2>>>>>&+X%2>>>>>&+XOXX        .......ooooo",
"     XO1<,::::;*X%222>>>&+X%22>>>>&+X%2>>>>>&+X%2>>>>>&+X%2>>>>>&+X%2>>>>>&+XOXX        .......ooooo",
"     XO1<;;;;;**X@%%%++++@X%22>>>>&+X@%++++++@X%2>>>>>&+X@%++++++@X%2>>>>>&+XOXX        .......ooooo",
"     XO1<*****$$XXXXXXXXXXX%22>>>>&+XXXXXXXXXXX%2>>>>>&+XXXXXXXXXXX%2>>>>>&+XOXX        .......ooooo",
"     XO1;$$$$$;*X@%%%++++@X%22>>>>&+X@%++++++@X%2>>>>>&+X@%++++++@X%2>>>>>&+XOXX        .......ooooo",
"     XO1=,::::;*X%222>>>&+X%22>>>>&+X%2>>>>>&+X%2>>>>>&+X%2>>>>>&+X%2>>>>>&+XOXX        .......ooooo",
"     XO1<,:::-;*X%222>>>&+X%22>>>>&+X%2>>>>>&+X%2>>>>>&+X%2>>>>>&+X%2>>>>>&+XOXX        .......ooooo",
"     XO1<,:::-;*X%222>>>&+X%22>>>>&+X%2>>>>>&+X%2>>>>>&+X%2>>>>>&+X%2>>>>>&+XOXX        .......ooooo",
"     XO1<,:::-;*X%222>>>&+X%22>>>>&+X%2>>>>>&+X%2>>>>>&+X%2>>>>>&+X%2>>>>>&+XOXX        .......ooooo",
"     XO1<,:::-;*X%222>>>&+X%22>>>>&+X%2>>>>>&+X%2>>>>>&+X%2>>>>>&+X%2>>>>>&+XOXX        .......ooooo",
"     XO1<,:::-;*X%222>>>&+X%22>>>>&+X%2>>>>>&+X%2>>>>>&+X%2>>>>>&+X%2>>>>>&+XOXX        .......ooooo",
"     XO1<,:::-;*X%222>>>&+X%22>>>>&+X%2>>>>>&+X%2>>>>>&+X%2>>>>>&+X%2>>>>>&+XOXX        .......ooooo",
"     XO1<,:::-;*X%222>>>&+X%22>>>>&+X%2>>>>>&+X%2>>>>>&+X%2>>>>>&+X%2>>>>>&+XOXX        .......ooooo",
"     XO1<,:::-;*X%222>>>&+X%22>>>>&+X%2>>>>>&+X%2>>>>>&+X%2>>>>>&+X%2>>>>>&+XOXX        .......ooooo",
"     XO1<,:::-;*X%222>>>&+X%22>>>>&+X%2>>>>>&+X%2>>>>>&+X%2>>>>>&+X%2>>>>>&+XOXX        .......ooooo",
"     XO1<,:::-;*X%222>>>&+X%22>>>>&+X%2>>>>>&+X%2>>>>>&+X%2>>>>>&+X%2>>>>>&+XOXX        .......ooooo",
"     XO1<,:::-;*X%222>>>&+X%22>>>>&+X%2>>>>>&+X%2>>>>>&+X%2>>>>>&+X%2>>>>>&+XOXX        .......ooooo",
"     XO1<,:::-;*X@%%%++++@X@%%+++++@X@%++++++@X@%++++++@X@%++++++@X@%++++++@XOXX        .......ooooo",
"     XO1<,::::;*XXXXXXXXXXXXXXXXXXXXXXXXXXXXXXXXXXXXXXXXXXXXXXXXXXXXXXXXXXXXXOXX        .......ooooo",
"     XO1<,:::;*#%%%%++++@X%%%+++++@X%%++++++@X%%++++++@X%%++++++@X%%++++++@XOOXX        .......ooooo",
"     XXO#;;;;*#22222>>&@X2222>>>&@X222>>>>&@X222>>>>&@X222>>>>&@X222>>>>&@XOOXXX        .......ooooo",
"      XXO##**#22222>>&@X2222>>>&@X222>>>>&@X222>>>>&@X222>>>>&@X222>>>>&@XOOXXX         .......ooooo",
"       XXOO##%%%%%+++@X%%%+++++@X%%++++++@X%%++++++@X%%++++++@X%%++++++@XOOXXX          .......ooooo",
"        XXOOOOOOOOOOOOOOOOOOOOOOOOOOOOOOOOOOOOOOOOOOOOOOOOOOOOOOOOOOOOOOOOXXX           .......ooooo"
};
