/* XPM */
static char *_9958bd3f64841349e0a30db36842fbbMcqzGfAQUtkXzZiU[] = {
/* columns rows colors chars-per-pixel */
"100 100 21 1 ",
"  c #111D2B",
". c #162533",
"X c #122739",
"o c #1E303E",
"O c #133045",
"+ c #2E3946",
"@ c #214054",
"# c #164661",
"$ c #1B5B7F",
"% c #455364",
"& c #525F6E",
"* c #206287",
"= c #22658A",
"- c #286B91",
"; c #2C7299",
": c #347DA6",
"> c #657383",
", c #3481AC",
"< c #3687B3",
"1 c #71C7F7",
"2 c #8F9DAE",
/* pixels */
"ooooo.......           XXXOOOOOOOOOOOOOOOOOOOOOOOOOOOOOOOOOOOOOOOOOOOOOOOOOOOOOOOOOOOOOOOOXX        ",
"ooooo.......          XXXOOX@+++++%%%X@++++++%%X@++++++%%X@++++++%%X@+++++%%%X@++++%%%%##OOXX       ",
"ooooo.......         XXXOOX@&>>>>222X@&>>>>>22X@&>>>>>22X@&>>>>>22X@&>>>>222X@&>>>2222#::##OXX      ",
"ooooo.......        XXXOOX@&>>>>222X@&>>>>>22X@&>>>>>22X@&>>>>>22X@&>>>>222X@&>>>2222#::::,#OXX     ",
"ooooo.......        XXOOX@++++++%%X@++++++%%X@++++++%%X@++++++%%X@+++++%%%X@+++++%%%#;-:::,<1OX     ",
"ooooo.......        XXOXXXXXXXXXXXXXXXXXXXXXXXXXXXXXXXXXXXXXXXXXXXXXXXXXXXXXXXXXXXXX*;-:::,<1OX     ",
"ooooo.......        XXOX@++++++%@X@++++++%@X@++++++%@X@++++++%@X@+++++%%@X@++++%%%@X*;-:::,<1OX     ",
"ooooo.......        XXOX+&>>>>>2%X+&>>>>>2%X+&>>>>>2%X+&>>>>>2%X+&>>>>22%X+&>>>222%X*;-:::,<1OX     ",
"ooooo.......        XXOX+&>>>>>2%X+&>>>>>2%X+&>>>>>2%X+&>>>>>2%X+&>>>>22%X+&>>>222%X*;-:::,<1OX     ",
"ooooo.......        XXOX+&>>>>>2%X+&>>>>>2%X+&>>>>>2%X+&>>>>>2%X+&>>>>22%X+&>>>222%X*;-:::,<1OX     ",
"ooooo.......        XXOX+&>>>>>2%X+&>>>>>2%X+&>>>>>2%X+&>>>>>2%X+&>>>>22%X+&>>>222%X*;-:::,<1OX     ",
"ooooo.......        XXOX+&>>>>>2%X+&>>>>>2%X+&>>>>>2%X+&>>>>>2%X+&>>>>22%X+&>>>222%X*;-:::,<1OX     ",
"ooooo.......        XXOX+&>>>>>2%X+&>>>>>2%X+&>>>>>2%X+&>>>>>2%X+&>>>>22%X+&>>>222%X*;-:::,<1OX     ",
"ooooo.......        XXOX+&>>>>>2%X+&>>>>>2%X+&>>>>>2%X+&>>>>>2%X+&>>>>22%X+&>>>222%X*;-:::,<1OX     ",
"ooooo.......        XXOX+&>>>>>2%X+&>>>>>2%X+&>>>>>2%X+&>>>>>2%X+&>>>>22%X+&>>>222%X*;-:::,<1OX     ",
"ooooo.......        XXOX+&>>>>>2%X+&>>>>>2%X+&>>>>>2%X+&>>>>>2%X+&>>>>22%X+&>>>222%X*;-:::,<1OX     ",
"ooooo.......        XXOX+&>>>>>2%X+&>>>>>2%X+&>>>>>2%X+&>>>>>2%X+&>>>>22%X+&>>>222%X*;-:::,<1OX     ",
"ooooo.......        XXOX+&>>>>>2%X+&>>>>>2%X+&>>>>>2%X+&>>>>>2%X+&>>>>22%X+&>>>222%X*;-:::,<1OX     ",
"ooooo.......        XXOX+&>>>>>2%X+&>>>>>2%X+&>>>>>2%X+&>>>>>2%X+&>>>>22%X+&>>>222%X*;::::,<1OX     ",
"ooooo.......        XXOX+&>>>>>2%X+&>>>>>2%X+&>>>>>2%X@++++++%@X+&>>>>22%X@++++%%%@X**;;;;;<1OX     ",
"ooooo.......        XXOX+&>>>>>2%X@++++++%@X+&>>>>>2%XXXXXXXXXXX+&>>>>22%XXXXXXXXXXX$$*****<1OX     ",
"ooooo.......        XXOX+&>>>>>2%XXXXXXXXXXX+&>>>>>2%X@++++++%@X+&>>>>22%X@++++%%%@X*;$$$$$;1OX     ",
"ooooo.......        XXOX+&>>>>>2%X@++++++%@X+&>>>>>2%X+&>>>>>2%X+&>>>>22%X+&>>>222%X*;::::,=1OX     ",
"ooooo.......        XXOX+&>>>>>2%X+&>>>>>2%X+&>>>>>2%X+&>>>>>2%X+&>>>>22%X+&>>>222%X*;-:::,<1OX     ",
"ooooo.......        XXOX+&>>>>>2%X+&>>>>>2%X+&>>>>>2%X+&>>>>>2%X+&>>>>22%X+&>>>222%X*;-:::,<1OX     ",
"ooooo.......        XXOX+&>>>>>2%X+&>>>>>2%X+&>>>>>2%X+&>>>>>2%X+&>>>>22%X+&>>>222%X*;-:::,<1OX     ",
"ooooo.......        XXOX+&>>>>>2%X+&>>>>>2%X+&>>>>>2%X+&>>>>>2%X+&>>>>22%X+&>>>222%X*;-:::,<1OX     ",
"ooooo.......        XXOX+&>>>>>2%X+&>>>>>2%X+&>>>>>2%X+&>>>>>2%X+&>>>>22%X+&>>>222%X*;-:::,<1OX     ",
"ooooo.......        XXOX+&>>>>>2%X+&>>>>>2%X+&>>>>>2%X+&>>>>>2%X+&>>>>22%X+&>>>222%X*;-:::,<1OX     ",
"ooooo.......        XXOX@++++++%@X+&>>>>>2%X@++++++%@X+&>>>>>2%X@+++++%%@X+&>>>222%X*;-:::,<1OX     ",
"ooooo.......        XXOXXXXXXXXXXX+&>>>>>2%XXXXXXXXXXX+&>>>>>2%XXXXXXXXXXX+&>>>222%X*;-:::,<1OX     ",
"ooooo.......        XXOX@++++++%@X+&>>>>>2%X@++++++%@X+&>>>>>2%X@+++++%%@X+&>>>222%X*;-:::,<1OX     ",
"ooooo.......        XXOX+&>>>>>2%X+&>>>>>2%X+&>>>>>2%X+&>>>>>2%X+&>>>>22%X+&>>>222%X*;-:::,<1OX     ",
"ooooo.......        XXOX+&>>>>>2%X+&>>>>>2%X+&>>>>>2%X+&>>>>>2%X+&>>>>22%X+&>>>222%X*;-:::,<1OX     ",
"ooooo.......        XXOX+&>>>>>2%X+&>>>>>2%X+&>>>>>2%X+&>>>>>2%X+&>>>>22%X+&>>>222%X*;-:::,<1OX     ",
"ooooo.......        XXOX+&>>>>>2%X+&>>>>>2%X+&>>>>>2%X+&>>>>>2%X+&>>>>22%X+&>>>222%X*;-:::,<1OX     ",
"ooooo.......        XXOX+&>>>>>2%X+&>>>>>2%X+&>>>>>2%X+&>>>>>2%X+&>>>>22%X+&>>>222%X*;-:::,<1OX     ",
"ooooo.......        XXOX+&>>>>>2%X+&>>>>>2%X+&>>>>>2%X+&>>>>>2%X+&>>>>22%X+&>>>222%X*;::::,<1OX     ",
"ooooo.......        XXOX+&>>>>>2%X@++++++%@X+&>>>>>2%X@++++++%@X+&>>>>22%X@++++%%%@X**;;;;;<1OX     ",
"ooooo.......        XXOX+&>>>>>2%XXXXXXXXXXX+&>>>>>2%XXXXXXXXXXX+&>>>>22%XXXXXXXXXXX$$*****<1OX     ",
"ooooo.......        XXOX+&>>>>>2%X@++++++%@X+&>>>>>2%X@++++++%@X+&>>>>22%X@++++%%%@X*;$$$$$;1OX     ",
"ooooo.......        XXOX+&>>>>>2%X+&>>>>>2%X+&>>>>>2%X+&>>>>>2%X+&>>>>22%X+&>>>222%X*;::::,=1OX     ",
"ooooo.......        XXOX+&>>>>>2%X+&>>>>>2%X+&>>>>>2%X+&>>>>>2%X+&>>>>22%X+&>>>222%X*;-:::,<1OX     ",
"ooooo.......        XXOX+&>>>>>2%X+&>>>>>2%X+&>>>>>2%X+&>>>>>2%X+&>>>>22%X+&>>>222%X*;-:::,<1OX     ",
"ooooo.......        XXOX+&>>>>>2%X+&>>>>>2%X+&>>>>>2%X+&>>>>>2%X+&>>>>22%X+&>>>222%X*;-:::,<1OX     ",
"ooooo.......        XXOX+&>>>>>2%X+&>>>>>2%X+&>>>>>2%X+&>>>>>2%X+&>>>>22%X+&>>>222%X*;-:::,<1OX     ",
"ooooo.......        XXOX+&>>>>>2%X+&>>>>>2%X+&>>>>>2%X+&>>>>>2%X+&>>>>22%X+&>>>222%X*;-:::,<1OX     ",
"ooooo.......        XXOX+&>>>>>2%X+&>>>>>2%X+&>>>>>2%X+&>>>>>2%X+&>>>>22%X+&>>>222%X*;-:::,<1OX     ",
"ooooo.......        XXOX+&>>>>>2%X+&>>>>>2%X+&>>>>>2%X+&>>>>>2%X+&>>>>22%X+&>>>222%X*;-:::,<1OX     ",
"ooooo.......        XXOX+&>>>>>2%X+&>>>>>2%X+&>>>>>2%X+&>>>>>2%X+&>>>>22%X+&>>>222%X*;-:::,<1OX     ",
"ooooo.......        XXOX+&>>>>>2%X+&>>>>>2%X+&>>>>>2%X+&>>>>>2%X+&>>>>22%X+&>>>222%X*;-:::,<1OX     ",
"ooooo.......        XXOX+&>>>>>2%X+&>>>>>2%X+&>>>>>2%X+&>>>>>2%X+&>>>>22%X+&>>>222%X*;-:::,<1OX     ",
"ooooo.......        XXOX+&>>>>>2%X+&>>>>>2%X+&>>>>>2%X+&>>>>>2%X+&>>>>22%X+&>>>222%X*;-:::,<1OX     ",
"ooooo.......        XXOX+&>>>>>2%X+&>>>>>2%X+&>>>>>2%X+&>>>>>2%X+&>>>>22%X+&>>>222%X*;-:::,<1OX     ",
"ooooo.......        XXOX+&>>>>>2%X+&>>>>>2%X+&>>>>>2%X+&>>>>>2%X+&>>>>22%X+&>>>222%X*;-:::,<1OX     ",
"ooooo.......        XXOX+&>>>>>2%X+&>>>>>2%X+&>>>>>2%X+&>>>>>2%X+&>>>>22%X+&>>>222%X*;-:::,<1OX     ",
"ooooo.......        XXOX+&>>>>>2%X+&>>>>>2%X+&>>>>>2%X+&>>>>>2%X+&>>>>22%X+&>>>222%X*;::::,<1OX     ",
"ooooo.......        XXOX+&>>>>>2%X+&>>>>>2%X+&>>>>>2%X+&>>>>>2%X+&>>>>22%X@++++%%%@X**;:::,<1OX     ",
"ooooo.......        XXOX+&>>>>>2%X@++++++%@X+&>>>>>2%X@++++++%@X+&>>>>22%XXXXXXXXXXX$$*:::,<1OX     ",
"ooooo.......        XXOX+&>>>>>2%XXXXXXXXXXX+&>>>>>2%XXXXXXXXXXX+&>>>>22%X@++++%%%@X*;$$$$$<1OX     ",
"ooooo.......        XXOX+&>>>>>2%X@++++++%@X+&>>>>>2%X@++++++%@X+&>>>>22%X+&>>>222%X*;::::,$1OX     ",
"ooooo.......        XXOX+&>>>>>2%X+&>>>>>2%X+&>>>>>2%X+&>>>>>2%X+&>>>>22%X+&>>>222%X*;-:::,<1OX     ",
"ooooo.......        XXOX+&>>>>>2%X+&>>>>>2%X+&>>>>>2%X+&>>>>>2%X+&>>>>22%X+&>>>222%X*;-:::,<1OX     ",
"ooooo.......        XXOX+&>>>>>2%X+&>>>>>2%X+&>>>>>2%X+&>>>>>2%X+&>>>>22%X+&>>>222%X*;-:::,<1OX     ",
"ooooo.......        XXOX+&>>>>>2%X+&>>>>>2%X+&>>>>>2%X+&>>>>>2%X+&>>>>22%X+&>>>222%X*;-:::,<1OX     ",
"ooooo.......        XXOX+&>>>>>2%X+&>>>>>2%X+&>>>>>2%X+&>>>>>2%X+&>>>>22%X+&>>>222%X*;-:::,<1OX     ",
"ooooo.......        XXOX+&>>>>>2%X+&>>>>>2%X+&>>>>>2%X+&>>>>>2%X+&>>>>22%X+&>>>222%X*;-:::,<1OX     ",
"ooooo.......        XXOX+&>>>>>2%X+&>>>>>2%X+&>>>>>2%X+&>>>>>2%X+&>>>>22%X+&>>>222%X*;-:::,<1OX     ",
"ooooo.......        XXOX@++++++%@X+&>>>>>2%X@++++++%@X+&>>>>>2%X@+++++%%@X+&>>>222%X*;-:::,<1OX     ",
"ooooo.......        XXOXXXXXXXXXXX+&>>>>>2%XXXXXXXXXXX+&>>>>>2%XXXXXXXXXXX+&>>>222%X*;-:::,<1OX     ",
"ooooo.......        XXOX@++++++%@X+&>>>>>2%X@++++++%@X+&>>>>>2%X@+++++%%@X+&>>>222%X*;-:::,<1OX     ",
"ooooo.......        XXOX+&>>>>>2%X+&>>>>>2%X+&>>>>>2%X+&>>>>>2%X+&>>>>22%X+&>>>222%X*;-:::,<1OX     ",
"ooooo.......        XXOX+&>>>>>2%X+&>>>>>2%X+&>>>>>2%X+&>>>>>2%X+&>>>>22%X+&>>>222%X*;-:::,<1OX     ",
"ooooo.......        XXOX+&>>>>>2%X+&>>>>>2%X+&>>>>>2%X+&>>>>>2%X+&>>>>22%X+&>>>222%X*;-:::,<1OX     ",
"ooooo.......        XXOX+&>>>>>2%X+&>>>>>2%X+&>>>>>2%X+&>>>>>2%X+&>>>>22%X+&>>>222%X*;-:::,<1OX     ",
"ooooo.......        XXOX+&>>>>>2%X+&>>>>>2%X+&>>>>>2%X+&>>>>>2%X+&>>>>22%X+&>>>222%X*;-:::,<1OX     ",
"ooooo.......        XXOX+&>>>>>2%X+&>>>>>2%X+&>>>>>2%X+&>>>>>2%X+&>>>>22%X+&>>>222%X*;-:::,<1OX     ",
"ooooo.......        XXOX+&>>>>>2%X+&>>>>>2%X+&>>>>>2%X+&>>>>>2%X+&>>>>22%X+&>>>222%X*;::::,<1OX     ",
"ooooo.......        XXOX+&>>>>>2%X@++++++%@X+&>>>>>2%X@++++++%@X+&>>>>22%X@++++%%%@X**;;;;;<1OX     ",
"ooooo.......        XXOX+&>>>>>2%XXXXXXXXXXX+&>>>>>2%XXXXXXXXXXX+&>>>>22%XXXXXXXXXXX$$*****<1OX     ",
"ooooo.......        XXOX+&>>>>>2%X@++++++%@X+&>>>>>2%X@++++++%@X+&>>>>22%X@++++%%%@X*;$$$$$;1OX     ",
"ooooo.......        XXOX+&>>>>>2%X+&>>>>>2%X+&>>>>>2%X+&>>>>>2%X+&>>>>22%X+&>>>222%X*;::::,=1OX     ",
"ooooo.......        XXOX+&>>>>>2%X+&>>>>>2%X+&>>>>>2%X+&>>>>>2%X+&>>>>22%X+&>>>222%X*;-:::,<1OX     ",
"ooooo.......        XXOX+&>>>>>2%X+&>>>>>2%X+&>>>>>2%X+&>>>>>2%X+&>>>>22%X+&>>>222%X*;-:::,<1OX     ",
"ooooo.......        XXOX+&>>>>>2%X+&>>>>>2%X+&>>>>>2%X+&>>>>>2%X+&>>>>22%X+&>>>222%X*;-:::,<1OX     ",
"ooooo.......        XXOX+&>>>>>2%X+&>>>>>2%X+&>>>>>2%X+&>>>>>2%X+&>>>>22%X+&>>>222%X*;-:::,<1OX     ",
"ooooo.......        XXOX+&>>>>>2%X+&>>>>>2%X+&>>>>>2%X+&>>>>>2%X+&>>>>22%X+&>>>222%X*;-:::,<1OX     ",
"ooooo.......        XXOX+&>>>>>2%X+&>>>>>2%X+&>>>>>2%X+&>>>>>2%X+&>>>>22%X+&>>>222%X*;-:::,<1OX     ",
"ooooo.......        XXOX+&>>>>>2%X+&>>>>>2%X+&>>>>>2%X+&>>>>>2%X+&>>>>22%X+&>>>222%X*;-:::,<1OX     ",
"ooooo.......        XXOX+&>>>>>2%X+&>>>>>2%X+&>>>>>2%X+&>>>>>2%X+&>>>>22%X+&>>>222%X*;-:::,<1OX     ",
"ooooo.......        XXOX+&>>>>>2%X+&>>>>>2%X+&>>>>>2%X+&>>>>>2%X+&>>>>22%X+&>>>222%X*;-:::,<1OX     ",
"ooooo.......        XXOX+&>>>>>2%X+&>>>>>2%X+&>>>>>2%X+&>>>>>2%X+&>>>>22%X+&>>>222%X*;-:::,<1OX     ",
"ooooo.......        XXOX+&>>>>>2%X+&>>>>>2%X+&>>>>>2%X+&>>>>>2%X+&>>>>22%X+&>>>222%X*;-:::,<1OX     ",
"ooooo.......        XXOX@++++++%@X@++++++%@X@++++++%@X@++++++%@X@+++++%%@X@++++%%%@X*;-:::,<1OX     ",
"ooooo.......        XXOXXXXXXXXXXXXXXXXXXXXXXXXXXXXXXXXXXXXXXXXXXXXXXXXXXXXXXXXXXXXX*;::::,<1OX     ",
"ooooo.......        XXOOX@++++++%%X@++++++%%X@++++++%%X@++++++%%X@+++++%%%X@++++%%%%#*;:::,<1OX     ",
"ooooo.......        XXXOOX@&>>>>222X@&>>>>222X@&>>>>222X@&>>>>222X@&>>>2222X@&>>22222#*;;;;#OXX     ",
"ooooo.......         XXXOOX@&>>>>222X@&>>>>222X@&>>>>222X@&>>>>222X@&>>>2222X@&>>22222#**##OXX      ",
"ooooo.......          XXXOOX@++++++%%X@++++++%%X@++++++%%X@++++++%%X@+++++%%%X@+++%%%%%##OOXX       ",
"ooooo.......           XXXOOOOOOOOOOOOOOOOOOOOOOOOOOOOOOOOOOOOOOOOOOOOOOOOOOOOOOOOOOOOOOOOXX        "
};
