/* XPM */
static char *_07563625f424943d1a3ec8a8d228f09BBcERVsULB5KoNQC[] = {
/* columns rows colors chars-per-pixel */
"100 100 21 1 ",
"  c #111D2B",
". c #162533",
"X c #122739",
"o c #1E303E",
"O c #133045",
"+ c #2E3946",
"@ c #214054",
"# c #164661",
"$ c #1B5B7F",
"% c #455364",
"& c #525F6E",
"* c #206287",
"= c #22658A",
"- c #286B91",
"; c #2C7299",
": c #347DA6",
"> c #657383",
", c #3481AC",
"< c #3687B3",
"1 c #71C7F7",
"2 c #8F9DAE",
/* pixels */
"                                                                                                    ",
"                                                                                                    ",
"                                                                                                    ",
"                                                                                                    ",
"                                                                                                    ",
"   XXXXXXXXXXXXXXXXXXXXXXXXXXXXXXXXXXXXXXXXXXXXXXXXXXXXXXXXXXXXXXXXXXXXXXXXXXXXXXXXXXXXXXXXX        ",
"  XXOOOOOOOOOOOOOOOOOOOOOOOOOOOOOOOOOOOOOOOOOOOOOOOOOOOOOOOOOOOOOOOOOOOOOOOOOOOOOOOOOOOOOOOXX       ",
" XXO111111111111111111111111111111111111111111111111111111111111111111111111111111111111111OXX      ",
"XXO#<<<<<<<<<<<<<<<<<;=<<<<<<<<<<<<<<<<<;=<<<<<<<<<<<<<<<<<<$<<<<<<<<<<<<<<<<<<<;=<<<<<<<<<1OXX     ",
"XO#,,,,,,,,,,,,,,,,;*$,,,,,,,,,,,,,,,,;*$,,,,,,,,,,,,,,,,,,$,,,,,,,,,,,,,,,,,,;*$,,,,,,,,,,<1OX     ",
"OO#::::::::::::::::;*$::::::::::::::::;*$::::::::::::::::::$::::::::::::::::::;*$:::::::::,<1OX     ",
"O#:::::::::::::::::;*$::::::::::::::::;*$::::::::::::::::::$::::::::::::::::::;*$:::::::::,<1OX     ",
"O#:::::::::::::::::;*$::::::::::::::::;*$::::::::::::::::::$::::::::::::::::::;*$:::::::::,<1OX     ",
"O%#:--------------:;*$:--------------:;*$:--------------:;*$:----------------:;*$:::::::::,<1OX     ",
"O%2#;;;;;;;;;;;;;;;*$;;;;;;;;;;;;;;;;;*$;;;;;;;;;;;;;;;;;*$;;;;;;;;;;;;;;;;;;;*$;;;;;:::::,<1OX     ",
"O%22#***************$******************$******************$********************$*****;::::,<1OX     ",
"O%22%XXXXXXXXXXXXXXXXXXXXXXXXXXXXXXXXXXXXXXXXXXXXXXXXXXXXXXXXXXXXXXXXXXXXXXXXXXXXXXX*;-:::,<1OX     ",
"O+22%X@%%%%%%%%%%%%@X@%%%%%%%%%%%%%%%%@X@%%%%%%%%%%%%%%%%@X@%%%%%%%%%%%%%%%%%%%%%%@X*;-:::,<1OX     ",
"O+>2%X%222222222222%X%2222222222222222%X%2222222222222222%X%2222222222222222222222%X*;-:::,<1OX     ",
"O+>>+X%222222222222%X%2222222222222222%X%2222222222222222%X%2222222222222222222222%X*;-:::,<1OX     ",
"O+>>+X%222222222222%X%2222222222222222%X%2222222222222222%X%2222222222222222222222%X*;-:::,<1OX     ",
"O@&>+X+>>>>>>>>>>>>+X+>>>>>>>>>>>>>>>>+X+>>>>>>>>>>>>>>>>+X+>>>>>>>>>>>>>>>>>>2222%X*;-:::,<1OX     ",
"OX@&+X+>>>>>>>>>>>>+X+>>>>>>>>>>>>>>>>+X+>>>>>>>>>>>>>>>>+X+>>>>>>>>>>>>>>>>>>>222%X*;-:::,<1OX     ",
"O%X@+X+>>>>>>>>>>>>+X+>>>>>>>>>>>>>>>>+X+>>>>>>>>>>>>>>>>+X+>>>>>>>>>>>>>>>>>>>222%X*;::::,<1OX     ",
"O%2X@X+&&&&&&&&&&&&+X+&&&&&&&&&&&&&&&&+X+&&&&&&&&&&&&&&&&+X+&&&&&&&&&&&&&&&>>>>222%X**;;;;;<1OX     ",
"O%22XX@++++++++++++@X@++++++++++++++++@X@++++++++++++++++@X@++++++++++++++&&>>>222%X$$*****<1OX     ",
"O+22%XXXXXXXXXXXXXXXXXXXXXXXXXXXXXXXXXXXXXXXXXXXXXXXXXXXXXXXXXXXXXXXXXXXX@+&>>>222%X*;$$$$$;1OX     ",
"O+>2%X@%%%%%%%%%%%%%%%%%%%%%%@X@%%%%%%%%%%%%%%%%%%%%%%%%%%%%%%%%%%%%%%%%@X+&>>>222%X*;::::,=1OX     ",
"O+>>%X%2222222222222222222222%X%2222222222222222222222222222222222222222%X+&>>>222%X*;-:::,<1OX     ",
"O+>>+X%2222222222222222222222%X%2222222222222222222222222222222222222222%X+&>>>222%X*;-:::,<1OX     ",
"O+>>+X+>>>>>>>>>>>>>>>>>>>>>>+X+>>>>>>>>>>>>>>>>>>>>>>>>>>>>>>>>>>>>>222%X+&>>>222%X*;-:::,<1OX     ",
"O@&>+X+>>>>>>>>>>>>>>>>>>>>>>+X+>>>>>>>>>>>>>>>>>>>>>>>>>>>>>>>>>>>>>>22%X+&>>>222%X*;-:::,<1OX     ",
"OX@&+X+>>>>>>>>>>>>>>>>>>>>>>+X+>>>>>>>>>>>>>>>>>>>>>>>>>>>>>>>>>>>>>>22%X+&>>>222%X*;-:::,<1OX     ",
"O%X@+X+>>>>>>>>>>>>>>>>>>>>>>+X+>>>>>>>>>>>>>>>>>>>>>>>>>>>>>>>>>>>>>>22%X+&>>>222%X*;-:::,<1OX     ",
"O%2X@X+&&&&&&&&&&&&&&&&&&&&&&+X+&&&&&&&&&&&&&&&&&&&&&&&&&&&&&&&&&>>>>>22%X+&>>>222%X*;-:::,<1OX     ",
"O+22XX@++++++++++++++++++++++@X@++++++++++++++++++++++++++++++++&&>>>>22%X+&>>>222%X*;-:::,<1OX     ",
"O+>2%XXXXXXXXXXXXXXXXXXXXXXXXXXXXXXXXXXXXXXXXXXXXXXXXXXXXXXXXXX@+&>>>>22%X+&>>>222%X*;-:::,<1OX     ",
"O+>>%X@%%%%%%%%%%%%@X@%%%%%%%%%%%%%%%%@X@%%%%%%%%%%%%%%%%%%%%%@X+&>>>>22%X+&>>>222%X*;::::,<1OX     ",
"O+>>+X%222222222222%X%2222222222222222%X%222222222222222222222%X+&>>>>22%X@++++%%%@X**;;;;;<1OX     ",
"O+>>+X+>>>>>>>>>>>>+X+>>>>>>>>>>>>>>>>+X+>>>>>>>>>>>>>>>>>>>22%X+&>>>>22%XXXXXXXXXXX$$*****<1OX     ",
"O+>>+X+>>>>>>>>>>>>+X+>>>>>>>>>>>>>>>>+X+>>>>>>>>>>>>>>>>>>>>2%X+&>>>>22%X@++++%%%@X*;$$$$$;1OX     ",
"O@&>+X+>>>>>>>>>>>>+X+>>>>>>>>>>>>>>>>+X+>>>>>>>>>>>>>>>>>>>>2%X+&>>>>22%X+&>>>222%X*;::::,=1OX     ",
"OX@&+X+>>>>>>>>>>>>+X+>>>>>>>>>>>>>>>>+X+>>>>>>>>>>>>>>>>>>>>2%X+&>>>>22%X+&>>>222%X*;-:::,<1OX     ",
"O%X@+X+>>>>>>>>>>>>+X+>>>>>>>>>>>>>>>>+X+>>>>>>>>>>>>>>>>>>>>2%X+&>>>>22%X+&>>>222%X*;-:::,<1OX     ",
"O%2X@X+&&&&&&&&&&&&+X+&&&&&&&&&&&&&&&&+X+&&&&&&&&&&&&&&>>>>>>2%X+&>>>>22%X+&>>>222%X*;-:::,<1OX     ",
"O+22XX@++++++++++++@X@++++++++++++++++@X@+++++++++++++&&>>>>>2%X+&>>>>22%X+&>>>222%X*;-:::,<1OX     ",
"O+>2%XXXXXXXXXXXXXXXXXXXXXXXXXXXXXXXXXXXXXXXXXXXXXXXX@+&>>>>>2%X+&>>>>22%X+&>>>222%X*;-:::,<1OX     ",
"O+>>%X@%%%%%%%%%%%%%%%%%%%%%%@X@%%%%%%%%%%%%%%%%%%%%@X+&>>>>>2%X+&>>>>22%X+&>>>222%X*;-:::,<1OX     ",
"O+>>+X%2222222222222222222222%X%22222222222222222222%X+&>>>>>2%X+&>>>>22%X+&>>>222%X*;-:::,<1OX     ",
"O+>>+X+>>>>>>>>>>>>>>>>>>>>>>+X+>>>>>>>>>>>>>>>>>>22%X+&>>>>>2%X+&>>>>22%X+&>>>222%X*;-:::,<1OX     ",
"O+>>+X+>>>>>>>>>>>>>>>>>>>>>>+X+>>>>>>>>>>>>>>>>>>>2%X+&>>>>>2%X+&>>>>22%X+&>>>222%X*;-:::,<1OX     ",
"O@&>+X+>>>>>>>>>>>>>>>>>>>>>>+X+>>>>>>>>>>>>>>>>>>>2%X+&>>>>>2%X+&>>>>22%X+&>>>222%X*;-:::,<1OX     ",
"OX@&+X+>>>>>>>>>>>>>>>>>>>>>>+X+>>>>>>>>>>>>>>>>>>>2%X+&>>>>>2%X+&>>>>22%X+&>>>222%X*;-:::,<1OX     ",
"O%X@+X+>>>>>>>>>>>>>>>>>>>>>>+X+>>>>>>>>>>>>>>>>>>>2%X+&>>>>>2%X+&>>>>22%X+&>>>222%X*;-:::,<1OX     ",
"O%2X@X+&&&&&&&&&&&&&&&&&&&&&&+X+&&&&&&&&&&&&&&>>>>>2%X+&>>>>>2%X+&>>>>22%X+&>>>222%X*;-:::,<1OX     ",
"O+22XX@++++++++++++++++++++++@X@+++++++++++++&>>>>>2%X+&>>>>>2%X+&>>>>22%X+&>>>222%X*;-:::,<1OX     ",
"O+>2%XXXXXXXXXXXXXXXXXXXXXXXXXXXXXXXXXXXXXXX+&>>>>>2%X+&>>>>>2%X+&>>>>22%X+&>>>222%X*;::::,<1OX     ",
"O+>>%X@%%%%%%%%%%%%%@X@%%%%%%%%%%%%%%%%%%%@X+&>>>>>2%X+&>>>>>2%X+&>>>>22%X@++++%%%@X**;:::,<1OX     ",
"O+>>+X%2222222222222%X%2222222222222222222%X+&>>>>>2%X@++++++%@X+&>>>>22%XXXXXXXXXXX$$*:::,<1OX     ",
"O+>>+X+>>>>>>>>>>>>>+X+>>>>>>>>>>>>>>>>>22%X+&>>>>>2%XXXXXXXXXXX+&>>>>22%X@++++%%%@X*;$$$$$<1OX     ",
"O+>>+X+>>>>>>>>>>>>>+X+>>>>>>>>>>>>>>>>>>2%X+&>>>>>2%X@++++++%@X+&>>>>22%X+&>>>222%X*;::::,$1OX     ",
"O@&>+X+>>>>>>>>>>>>>+X+>>>>>>>>>>>>>>>>>>2%X+&>>>>>2%X+&>>>>>2%X+&>>>>22%X+&>>>222%X*;-:::,<1OX     ",
"OX@&+X+>>>>>>>>>>>>>+X+>>>>>>>>>>>>>>>>>>2%X+&>>>>>2%X+&>>>>>2%X+&>>>>22%X+&>>>222%X*;-:::,<1OX     ",
"O%X@+X+>>>>>>>>>>>>>+X+>>>>>>>>>>>>>>>>>>2%X+&>>>>>2%X+&>>>>>2%X+&>>>>22%X+&>>>222%X*;-:::,<1OX     ",
"O%2X@X+&&&&&&&&&&&&&+X+&&&&&&&&&&&&&>>>>>2%X+&>>>>>2%X+&>>>>>2%X+&>>>>22%X+&>>>222%X*;-:::,<1OX     ",
"O%22XX@+++++++++++++@X@+++++++++++&&>>>>>2%X+&>>>>>2%X+&>>>>>2%X+&>>>>22%X+&>>>222%X*;-:::,<1OX     ",
"O+22%XXXXXXXXXXXXXXXXXXXXXXXXXXXX@+&>>>>>2%X+&>>>>>2%X+&>>>>>2%X+&>>>>22%X+&>>>222%X*;-:::,<1OX     ",
"O+>2%X@%%%%%%%%%%%%%%%%%%%%%%%%%@X+&>>>>>2%X+&>>>>>2%X+&>>>>>2%X+&>>>>22%X+&>>>222%X*;-:::,<1OX     ",
"O+>>+X%2222222222222222222222222%X+&>>>>>2%X@++++++%@X+&>>>>>2%X@+++++%%@X+&>>>222%X*;-:::,<1OX     ",
"O+>>+X+>>>>>>>>>>>>>>>>>>>>>>>22%X+&>>>>>2%XXXXXXXXXXX+&>>>>>2%XXXXXXXXXXX+&>>>222%X*;-:::,<1OX     ",
"O+>>+X+>>>>>>>>>>>>>>>>>>>>>>>>2%X+&>>>>>2%X@++++++%@X+&>>>>>2%X@+++++%%@X+&>>>222%X*;-:::,<1OX     ",
"O@&>+X+>>>>>>>>>>>>>>>>>>>>>>>>2%X+&>>>>>2%X+&>>>>>2%X+&>>>>>2%X+&>>>>22%X+&>>>222%X*;-:::,<1OX     ",
"OX@&+X+>>>>>>>>>>>>>>>>>>>>>>>>2%X+&>>>>>2%X+&>>>>>2%X+&>>>>>2%X+&>>>>22%X+&>>>222%X*;-:::,<1OX     ",
"OOX@+X+>>>>>>>>>>>>>>>>>>>>>>>>2%X+&>>>>>2%X+&>>>>>2%X+&>>>>>2%X+&>>>>22%X+&>>>222%X*;-:::,<1OX     ",
"XOOX@X+&&&&&&&&&&&&&&&&&&>>>>>>2%X+&>>>>>2%X+&>>>>>2%X+&>>>>>2%X+&>>>>22%X+&>>>222%X*;-:::,<1OX     ",
"XXOOXX@+++++++++++++++++@&>>>>>2%X+&>>>>>2%X+&>>>>>2%X+&>>>>>2%X+&>>>>22%X+&>>>222%X*;-:::,<1OX     ",
"XXXOOXXXXXXXXXXXXXXXXXX@+&>>>>>2%X+&>>>>>2%X+&>>>>>2%X+&>>>>>2%X+&>>>>22%X+&>>>222%X*;-:::,<1OX     ",
" XXXOOOOOOOOOOOOOOOOOOOX+&>>>>>2%X+&>>>>>2%X+&>>>>>2%X+&>>>>>2%X+&>>>>22%X+&>>>222%X*;::::,<1OX     ",
"  XXXXXXXXXXXXXXXXXXXXOX+&>>>>>2%X@++++++%@X+&>>>>>2%X@++++++%@X+&>>>>22%X@++++%%%@X**;;;;;<1OX     ",
"   XXXXXXXXXXXXXXXXX XOX+&>>>>>2%XXXXXXXXXXX+&>>>>>2%XXXXXXXXXXX+&>>>>22%XXXXXXXXXXX$$*****<1OX     ",
"                    XXOX+&>>>>>2%X@++++++%@X+&>>>>>2%X@++++++%@X+&>>>>22%X@++++%%%@X*;$$$$$;1OX     ",
"                    XXOX+&>>>>>2%X+&>>>>>2%X+&>>>>>2%X+&>>>>>2%X+&>>>>22%X+&>>>222%X*;::::,=1OX     ",
"                    XXOX+&>>>>>2%X+&>>>>>2%X+&>>>>>2%X+&>>>>>2%X+&>>>>22%X+&>>>222%X*;-:::,<1OX     ",
"                    XXOX+&>>>>>2%X+&>>>>>2%X+&>>>>>2%X+&>>>>>2%X+&>>>>22%X+&>>>222%X*;-:::,<1OX     ",
"                    XXOX+&>>>>>2%X+&>>>>>2%X+&>>>>>2%X+&>>>>>2%X+&>>>>22%X+&>>>222%X*;-:::,<1OX     ",
"                    XXOX+&>>>>>2%X+&>>>>>2%X+&>>>>>2%X+&>>>>>2%X+&>>>>22%X+&>>>222%X*;-:::,<1OX     ",
"                    XXOX+&>>>>>2%X+&>>>>>2%X+&>>>>>2%X+&>>>>>2%X+&>>>>22%X+&>>>222%X*;-:::,<1OX     ",
"            .       XXOX+&>>>>>2%X+&>>>>>2%X+&>>>>>2%X+&>>>>>2%X+&>>>>22%X+&>>>222%X*;-:::,<1OX     ",
"............        XXOX+&>>>>>2%X+&>>>>>2%X+&>>>>>2%X+&>>>>>2%X+&>>>>22%X+&>>>222%X*;-:::,<1OX     ",
"............        XXOX+&>>>>>2%X+&>>>>>2%X+&>>>>>2%X+&>>>>>2%X+&>>>>22%X+&>>>222%X*;-:::,<1OX     ",
"............        XXOX+&>>>>>2%X+&>>>>>2%X+&>>>>>2%X+&>>>>>2%X+&>>>>22%X+&>>>222%X*;-:::,<1OX     ",
"............        XXOX+&>>>>>2%X+&>>>>>2%X+&>>>>>2%X+&>>>>>2%X+&>>>>22%X+&>>>222%X*;-:::,<1OX     ",
"............        XXOX+&>>>>>2%X+&>>>>>2%X+&>>>>>2%X+&>>>>>2%X+&>>>>22%X+&>>>222%X*;-:::,<1OX     ",
"............        XXOX@++++++%@X@++++++%@X@++++++%@X@++++++%@X@+++++%%@X@++++%%%@X*;-:::,<1OX     ",
".....o......        XXOXXXXXXXXXXXXXXXXXXXXXXXXXXXXXXXXXXXXXXXXXXXXXXXXXXXXXXXXXXXXX*;::::,<1OX     ",
"ooooo.......        XXOOX@++++++%%X@++++++%%X@++++++%%X@++++++%%X@+++++%%%X@++++%%%%#*;:::,<1OX     ",
"ooooo.......        XXXOOX@&>>>>222X@&>>>>222X@&>>>>222X@&>>>>222X@&>>>2222X@&>>22222#*;;;;#OXX     ",
"ooooo.......         XXXOOX@&>>>>222X@&>>>>222X@&>>>>222X@&>>>>222X@&>>>2222X@&>>22222#**##OXX      ",
"ooooo.......          XXXOOX@++++++%%X@++++++%%X@++++++%%X@++++++%%X@+++++%%%X@+++%%%%%##OOXX       ",
"ooooo.......           XXXOOOOOOOOOOOOOOOOOOOOOOOOOOOOOOOOOOOOOOOOOOOOOOOOOOOOOOOOOOOOOOOOXX        "
};
