/* XPM */
static char *d0202d5f79f44bd4e74bf3759ec17c48ks3IdczdmWoTOzDG[] = {
/* columns rows colors chars-per-pixel */
"100 100 21 1 ",
"  c #111D2B",
". c #162533",
"X c #122739",
"o c #1E303E",
"O c #133045",
"+ c #2E3946",
"@ c #214054",
"# c #164661",
"$ c #1B5B7F",
"% c #455364",
"& c #525F6E",
"* c #206287",
"= c #22658A",
"- c #286B91",
"; c #2C7299",
": c #347DA6",
"> c #657383",
", c #3481AC",
"< c #3687B3",
"1 c #71C7F7",
"2 c #8F9DAE",
/* pixels */
"                                                                                                    ",
"                                                                                                    ",
"                                                                                                    ",
"                                                                                                    ",
"                                                                                                    ",
"   XXXXXXXXXXXXXXXXXXXXXXXXXXXXXXXXXXXXXXXXXXXXXXXXXXXXXXXXXXXXXXXXXXXXXXXXXXXXXXXXXXXXXXXXXXXXXX   ",
"  XXOOOOOOOOOOOOOOOOOOOOOOOOOOOOOOOOOOOOOOOOOOOOOOOOOOOOOOOOOOOOOOOOOOOOOOOOOOOOOOOOOOOOOOOOOOOOXX  ",
" XXO11111111111111111111111111111111111111111111111111111111111111111111111111111111111111111111OXX ",
"XXO#<<<<<<<<<<<<<<<<<;=<<<<<<<<<<<<<<<<<;=<<<<<<<<<<<<<<<<<<$<<<<<<<<<<<<<<<<<<<;=<<<<<<<<<<<<<<#OXX",
"XO#,,,,,,,,,,,,,,,,;*$,,,,,,,,,,,,,,,,;*$,,,,,,,,,,,,,,,,,,$,,,,,,,,,,,,,,,,,,;*$,,,,,,,,,,,,,,,;#OX",
"OO#::::::::::::::::;*$::::::::::::::::;*$::::::::::::::::::$::::::::::::::::::;*$:::::::::::::::;#OO",
"O#:::::::::::::::::;*$::::::::::::::::;*$::::::::::::::::::$::::::::::::::::::;*$:::::::::::::::;*#O",
"O#:::::::::::::::::;*$::::::::::::::::;*$::::::::::::::::::$::::::::::::::::::;*$:::::::::::::::;*#O",
"O%#:--------------:;*$:--------------:;*$:--------------:;*$:----------------:;*$:------------:;*#%O",
"O%2#;;;;;;;;;;;;;;;*$;;;;;;;;;;;;;;;;;*$;;;;;;;;;;;;;;;;;*$;;;;;;;;;;;;;;;;;;;*$;;;;;;;;;;;;;;;*#2%O",
"O%22#***************$******************$******************$********************$***************#22%O",
"O%22%XXXXXXXXXXXXXXXXXXXXXXXXXXXXXXXXXXXXXXXXXXXXXXXXXXXXXXXXXXXXXXXXXXXXXXXXXXXXXXXXXXXXXXXXXX%22%O",
"O+22%X@%%%%%%%%%%%%@X@%%%%%%%%%%%%%%%%@X@%%%%%%%%%%%%%%%%@X@%%%%%%%%%%%%%%%%%%@X@%%%%%%%%%%%%@X%22%O",
"O+>2%X%222222222222%X%2222222222222222%X%2222222222222222%X%222222222222222222%X%222222222222%X%22+O",
"O+>>+X%222222222222%X%2222222222222222%X%2222222222222222%X%222222222222222222%X%222222222222%X%2>+O",
"O+>>+X%222222222222%X%2222222222222222%X%2222222222222222%X%222222222222222222%X%222222222222%X+>>+O",
"O@&>+X+>>>>>>>>>>>>+X+>>>>>>>>>>>>>>>>+X+>>>>>>>>>>>>>>>>+X+>>>>>>>>>>>>>>>>>>+X+>>>>>>>>>>>>+X+>&@O",
"OX@&+X+>>>>>>>>>>>>+X+>>>>>>>>>>>>>>>>+X+>>>>>>>>>>>>>>>>+X+>>>>>>>>>>>>>>>>>>+X+>>>>>>>>>>>>+X+&@XO",
"O%X@+X+>>>>>>>>>>>>+X+>>>>>>>>>>>>>>>>+X+>>>>>>>>>>>>>>>>+X+>>>>>>>>>>>>>>>>>>+X+>>>>>>>>>>>>+X+@X%O",
"O%2X@X+&&&&&&&&&&&&+X+&&&&&&&&&&&&&&&&+X+&&&&&&&&&&&&&&&&+X+&&&&&&&&&&&&&&&&&&+X+&&&&&&&&&&&&+X@X2%O",
"O%22XX@++++++++++++@X@++++++++++++++++@X@++++++++++++++++@X@++++++++++++++++++@X@++++++++++++@XX22%O",
"O+22%XXXXXXXXXXXXXXXXXXXXXXXXXXXXXXXXXXXXXXXXXXXXXXXXXXXXXXXXXXXXXXXXXXXXXXXXXXXXXXXXXXXXXXXXXX%22+O",
"O+>2%X@%%%%%%%%%%%%%%%%%%%%%%@X@%%%%%%%%%%%%%%%%%%%%%%%%%%%%%%%%%%%%@X@%%%%%%%%%%%%%%%%%%%%%%@X%22+O",
"O+>>%X%2222222222222222222222%X%222222222222222222222222222222222222%X%2222222222222222222222%X%2>+O",
"O+>>+X%2222222222222222222222%X%222222222222222222222222222222222222%X%2222222222222222222222%X+>>+O",
"O+>>+X+>>>>>>>>>>>>>>>>>>>>>>+X+>>>>>>>>>>>>>>>>>>>>>>>>>>>>>>>>>>>>+X+>>>>>>>>>>>>>>>>>>>>>>+X+>>+O",
"O@&>+X+>>>>>>>>>>>>>>>>>>>>>>+X+>>>>>>>>>>>>>>>>>>>>>>>>>>>>>>>>>>>>+X+>>>>>>>>>>>>>>>>>>>>>>+X+>&@O",
"OX@&+X+>>>>>>>>>>>>>>>>>>>>>>+X+>>>>>>>>>>>>>>>>>>>>>>>>>>>>>>>>>>>>+X+>>>>>>>>>>>>>>>>>>>>>>+X+&@XO",
"O%X@+X+>>>>>>>>>>>>>>>>>>>>>>+X+>>>>>>>>>>>>>>>>>>>>>>>>>>>>>>>>>>>>+X+>>>>>>>>>>>>>>>>>>>>>>+X+@X%O",
"O%2X@X+&&&&&&&&&&&&&&&&&&&&&&+X+&&&&&&&&&&&&&&&&&&&&&&&&&&&&&&&&&&&&+X+&&&&&&&&&&&&&&&&&&&&&&+X@X2%O",
"O+22XX@++++++++++++++++++++++@X@++++++++++++++++++++++++++++++++++++@X@++++++++++++++++++++++@XX22+O",
"O+>2%XXXXXXXXXXXXXXXXXXXXXXXXXXXXXXXXXXXXXXXXXXXXXXXXXXXXXXXXXXXXXXXXXXXXXXXXXXXXXXXXXXXXXXXXXX%22+O",
"O+>>%X@%%%%%%%%%%%%@X@%%%%%%%%%%%%%%%%@X@%%%%%%%%%%%%%%%%%@X@%%%%%%%%%%%%%%%%%@X@%%%%%%%%%%%%@X%2>+O",
"O+>>+X%222222222222%X%2222222222222222%X%22222222222222222%X%22222222222222222%X%222222222222%X+>>+O",
"O+>>+X+>>>>>>>>>>>>+X+>>>>>>>>>>>>>>>>+X+>>>>>>>>>>>>>>>>>+X+>>>>>>>>>>>>>>>>>+X+>>>>>>>>>>>>+X+>>+O",
"O+>>+X+>>>>>>>>>>>>+X+>>>>>>>>>>>>>>>>+X+>>>>>>>>>>>>>>>>>+X+>>>>>>>>>>>>>>>>>+X+>>>>>>>>>>>>+X+>>+O",
"O@&>+X+>>>>>>>>>>>>+X+>>>>>>>>>>>>>>>>+X+>>>>>>>>>>>>>>>>>+X+>>>>>>>>>>>>>>>>>+X+>>>>>>>>>>>>+X+>&@O",
"OX@&+X+>>>>>>>>>>>>+X+>>>>>>>>>>>>>>>>+X+>>>>>>>>>>>>>>>>>+X+>>>>>>>>>>>>>>>>>+X+>>>>>>>>>>>>+X+&@XO",
"O%X@+X+>>>>>>>>>>>>+X+>>>>>>>>>>>>>>>>+X+>>>>>>>>>>>>>>>>>+X+>>>>>>>>>>>>>>>>>+X+>>>>>>>>>>>>+X+@X%O",
"O%2X@X+&&&&&&&&&&&&+X+&&&&&&&&&&&&&&&&+X+&&&&&&&&&&&&&&&&&+X+&&&&&&&&&&&&&&&&&+X+&&&&&&&&&&&&+X@X2%O",
"O+22XX@++++++++++++@X@++++++++++++++++@X@+++++++++++++++++@X@+++++++++++++++++@X@++++++++++++@XX22+O",
"O+>2%XXXXXXXXXXXXXXXXXXXXXXXXXXXXXXXXXXXXXXXXXXXXXXXXXXXXXXXXXXXXXXXXXXXXXXXXXXXXXXXXXXXXXXXXXX%22+O",
"O+>>%X@%%%%%%%%%%%%%%%%%%%%%%@X@%%%%%%%%%%%%%%%%%%%%%%%%%%%%%%%%%%%%@X@%%%%%%%%%%%%%%%%%%%%%%@X%2>+O",
"O+>>+X%2222222222222222222222%X%222222222222222222222222222222222222%X%2222222222222222222222%X+>>+O",
"O+>>+X+>>>>>>>>>>>>>>>>>>>>>>+X+>>>>>>>>>>>>>>>>>>>>>>>>>>>>>>>>>>>>+X+>>>>>>>>>>>>>>>>>>>>>>+X+>>+O",
"O+>>+X+>>>>>>>>>>>>>>>>>>>>>>+X+>>>>>>>>>>>>>>>>>>>>>>>>>>>>>>>>>>>>+X+>>>>>>>>>>>>>>>>>>>>>>+X+>>+O",
"O@&>+X+>>>>>>>>>>>>>>>>>>>>>>+X+>>>>>>>>>>>>>>>>>>>>>>>>>>>>>>>>>>>>+X+>>>>>>>>>>>>>>>>>>>>>>+X+>&@O",
"OX@&+X+>>>>>>>>>>>>>>>>>>>>>>+X+>>>>>>>>>>>>>>>>>>>>>>>>>>>>>>>>>>>>+X+>>>>>>>>>>>>>>>>>>>>>>+X+&@XO",
"O%X@+X+>>>>>>>>>>>>>>>>>>>>>>+X+>>>>>>>>>>>>>>>>>>>>>>>>>>>>>>>>>>>>+X+>>>>>>>>>>>>>>>>>>>>>>+X+@X%O",
"O%2X@X+&&&&&&&&&&&&&&&&&&&&&&+X+&&&&&&&&&&&&&&&&&&&&&&&&&&&&&&&&&&&&+X+&&&&&&&&&&&&&&&&&&&&&&+X@X2%O",
"O+22XX@++++++++++++++++++++++@X@++++++++++++++++++++++++++++++++++++@X@++++++++++++++++++++++@XX22+O",
"O+>2%XXXXXXXXXXXXXXXXXXXXXXXXXXXXXXXXXXXXXXXXXXXXXXXXXXXXXXXXXXXXXXXXXXXXXXXXXXXXXXXXXXXXXXXXXX%22+O",
"O+>>%X@%%%%%%%%%%%%%@X@%%%%%%%%%%%%%%%@X@%%%%%%%%%%%%%%%%%@X@%%%%%%%%%%%%%%%%%@X@%%%%%%%%%%%%@X%2>+O",
"O+>>+X%2222222222222%X%222222222222222%X%22222222222222222%X%22222222222222222%X%222222222222%X+>>+O",
"O+>>+X+>>>>>>>>>>>>>+X+>>>>>>>>>>>>>>>+X+>>>>>>>>>>>>>>>>>+X+>>>>>>>>>>>>>>>>>+X+>>>>>>>>>>>>+X+>>+O",
"O+>>+X+>>>>>>>>>>>>>+X+>>>>>>>>>>>>>>>+X+>>>>>>>>>>>>>>>>>+X+>>>>>>>>>>>>>>>>>+X+>>>>>>>>>>>>+X+>>+O",
"O@&>+X+>>>>>>>>>>>>>+X+>>>>>>>>>>>>>>>+X+>>>>>>>>>>>>>>>>>+X+>>>>>>>>>>>>>>>>>+X+>>>>>>>>>>>>+X+>&@O",
"OX@&+X+>>>>>>>>>>>>>+X+>>>>>>>>>>>>>>>+X+>>>>>>>>>>>>>>>>>+X+>>>>>>>>>>>>>>>>>+X+>>>>>>>>>>>>+X+&@XO",
"O%X@+X+>>>>>>>>>>>>>+X+>>>>>>>>>>>>>>>+X+>>>>>>>>>>>>>>>>>+X+>>>>>>>>>>>>>>>>>+X+>>>>>>>>>>>>+X+@X%O",
"O%2X@X+&&&&&&&&&&&&&+X+&&&&&&&&&&&&&&&+X+&&&&&&&&&&&&&&&&&+X+&&&&&&&&&&&&&&&&&+X+&&&&&&&&&&&&+X@X2%O",
"O%22XX@+++++++++++++@X@+++++++++++++++@X@+++++++++++++++++@X@+++++++++++++++++@X@++++++++++++@XX22+O",
"O+22%XXXXXXXXXXXXXXXXXXXXXXXXXXXXXXXXXXXXXXXXXXXXXXXXXXXXXXXXXXXXXXXXXXXXXXXXXXXXXXXXXXXXXXXXXX%22+O",
"O+>2%X@%%%%%%%%%%%%%%%%%%%%%%@X@%%%%%%%%%%%%%%%%%%%%%%%%%%%%%%%%%%%%@X@%%%%%%%%%%%%%%%%%%%%%%@X%2>+O",
"O+>>+X%2222222222222222222222%X%222222222222222222222222222222222222%X%2222222222222222222222%X+>>+O",
"O+>>+X+>>>>>>>>>>>>>>>>>>>>>>+X+>>>>>>>>>>>>>>>>>>>>>>>>>>>>>>>>>>>>+X+>>>>>>>>>>>>>>>>>>>>>>+X+>>+O",
"O+>>+X+>>>>>>>>>>>>>>>>>>>>>>+X+>>>>>>>>>>>>>>>>>>>>>>>>>>>>>>>>>>>>+X+>>>>>>>>>>>>>>>>>>>>>>+X+>>+O",
"O@&>+X+>>>>>>>>>>>>>>>>>>>>>>+X+>>>>>>>>>>>>>>>>>>>>>>>>>>>>>>>>>>>>+X+>>>>>>>>>>>>>>>>>>>>>>+X+>&@O",
"OX@&+X+>>>>>>>>>>>>>>>>>>>>>>+X+>>>>>>>>>>>>>>>>>>>>>>>>>>>>>>>>>>>>+X+>>>>>>>>>>>>>>>>>>>>>>+X+&@XO",
"OOX@+X+>>>>>>>>>>>>>>>>>>>>>>+X+>>>>>>>>>>>>>>>>>>>>>>>>>>>>>>>>>>>>+X+>>>>>>>>>>>>>>>>>>>>>>+X+@XOO",
"XOOX@X+&&&&&&&&&&&&&&&&&&&&&&+X+&&&&&&&&&&&&&&&&&&&&&&&&&&&&&&&&&&&&+X+&&&&&&&&&&&&&&&&&&&&&&+X@XOOX",
"XXOOXX@++++++++++++++++++++++@X@++++++++++++++++++++++++++++++++++++@X@++++++++++++++++++++++@XXOOXX",
"XXXOOXXXXXXXXXXXXXXXXXXXXXXXXXXXXXXXXXXXXXXXXXXXXXXXXXXXXXXXXXXXXXXXXXXXXXXXXXXXXXXXXXXXXXXXXXXOOXXX",
" XXXOOOOOOOOOOOOOOOOOOOOOOOOOOOOOOOOOOOOOOOOOOOOOOOOOOOOOOOOOOOOOOOOOOOOOOOOOOOOOOOOOOOOOOOOOOOOXXX ",
"  XXXXXXXXXXXXXXXXXXXXXXXXXXXXXXXXXXXXXXXXXXXXXXXXXXXXXXXXXXXXXXXXXXXXXXXXXXXXXXXXXXXXXXXXXXXXXXXX  ",
"   XXXXXXXXXXXXXXXXXXXXXXXXXXXXXXXXXXXXXXXXXXXXXXXXXXXXXXXXXXXXXXXXXXXXXXXXXXXXXXXXXXXXXXXXXXXXXX   ",
"                                                                                                    ",
"                                                                                                    ",
"                                                                                                    ",
"                                                                                                    ",
"                                                                                                    ",
"                                                                                                    ",
"                                                                                                    ",
"                                                                                                    ",
"....................................................................................................",
"....................................................................................................",
"....................................................................................................",
"....................................................................................................",
"....................................................................................................",
"....................................................................................................",
"....................................................................................................",
"oooooooooooooooooooooooooooooooooooooooooooooooooooooooooooooooooooooooooooooooooooooooooooooooooooo",
"oooooooooooooooooooooooooooooooooooooooooooooooooooooooooooooooooooooooooooooooooooooooooooooooooooo",
"oooooooooooooooooooooooooooooooooooooooooooooooooooooooooooooooooooooooooooooooooooooooooooooooooooo",
"oooooooooooooooooooooooooooooooooooooooooooooooooooooooooooooooooooooooooooooooooooooooooooooooooooo",
"oooooooooooooooooooooooooooooooooooooooooooooooooooooooooooooooooooooooooooooooooooooooooooooooooooo"
};
