/* XPM */
static char *_d64042a1144470cf4ca4a42c49a7d33kru2DN8mAtQ7XXKC[] = {
/* columns rows colors chars-per-pixel */
"100 100 30 1 ",
"  c #162535",
". c #1E303E",
"X c #2F0544",
"o c #B05212",
"O c #BE5D1A",
"+ c #9E8103",
"@ c #B09312",
"# c #C6A207",
"$ c #640E8C",
"% c #640790",
"& c #670597",
"* c #690798",
"= c #6C039E",
"- c #6E079F",
"; c #79069A",
": c #7008A2",
"> c #7310A2",
", c #7A09B0",
"< c #8C039E",
"1 c #9605AA",
"2 c #841DB6",
"3 c #A207B6",
"4 c #8221B0",
"5 c #AD0AC2",
"6 c #912BC2",
"7 c #9F36D1",
"8 c #A13AD3",
"9 c #A742D7",
"0 c #B55EDF",
"q c #B354E1",
/* pixels */
"....................................................................................................",
"....................................................................................................",
"....................................................................................................",
"....................................................................................................",
"....................................................................................................",
"....................................................................................................",
"....................................................................................................",
"....................................................................................................",
"....................................................................................................",
"....................................................................................................",
"....................................................................................................",
"....................................................................................................",
"....................................................................................................",
"....................................................................................................",
"....................................................................................................",
"....................................................................................................",
"....................................................................................................",
"....................................................................................................",
"....................................................................................................",
"....................................................................................................",
"....................................................................................................",
"....................................................................................................",
"....................................................................................................",
"....................................................................................................",
"....................................................................................................",
"....................................................................................................",
"....................................................................................................",
"....................................................................................................",
"....................................................................................................",
"....................................................................................................",
".............................................=........=.............................................",
".............................................=2......2=.............................................",
".............................................=2======2=.............................................",
".............................................&=222222=&.............................................",
"............................................=2266666622=............................................",
"...........................................=266666666662=...........................................",
"...........................................=266666666662=...........................................",
"..........................................=26666666666662=..........................................",
"..........................................=26666666666662=..........................................",
"..........................................=26X66666666X62=..........................................",
"..........................................=266XX6666XX662=..........................................",
".............................,,,..........=2666X6666X6662=..........,,,.............................",
"............................,,:*,.........=26666666666662=.........,*:,,............................",
"...........................,::*:,..........=26666OO66662=..........,:*::,...........................",
"..........................,,%%*:,..........=26666oo66662=..........,:*%%,,..........................",
"........................,,::%%*:,...........=2266666622=...........,:*%%::,,........................",
".......................;::%%%%%*:,,.........$==222222==$.........,,:*%%%%%::;.......................",
"......................<<;;%%%%%%*::,,.......$>>==--==>>$.......,,::*%%%%%%;;<<......................",
".....................355<<;;;;%%%**::,,:,,.$466>>>>>>664$.,,:,,::**%%%;;;;<<553.....................",
".....................35555<<5<<;;%%%**:*::,$467777777764$,::*:**%%%;;<<5<<55553.....................",
".....................3555555555<<;;%%%*%**$46978q00q87964$**%*%%%;;<<5555555553.....................",
"....................3555555555551<<;;%%%%%$46978q00q87964$%%%%%;;<<1555555555553....................",
"...................3555533355553311<<;;;;%$46978q00q87964$%;;;;<<1133555533355553...................",
"...................35333...3555333311<<<<;$469778qq877964$;<<<<1133335553...33353...................",
"....................3......35533333331111<$46697788779664$<11113333333553......3....................",
"...........................355333333333131$46669777796664$131333333333553...........................",
"...........................3533333333333331$466699996664$1333333333333353...........................",
"............................3.......3333..3$466666666664$3..3333.......3............................",
"............................<...............$6666666666$...............<............................",
"............................................$4466666644$............................................",
".............................................$$444444$$.............................................",
"...............................................$$$$$$...............................................",
"...............................................++..++...............................................",
"...............................................@+..+@...............................................",
"..............................................@.@..@.@..............................................",
"..............................................#.#..#.#..............................................",
"....................................................................................................",
"....................................................................................................",
"....................................................................................................",
"....................................................................................................",
"....................................................................................................",
"....................................................................................................",
"....................................................................................................",
"....................................................................................................",
"....................................................................................................",
"....................................................................................................",
"....................................................................................................",
"....................................................................................................",
"....................................................................................................",
"....................................................................................................",
"....................................................................................................",
"....................................................................................................",
"....................................................................................................",
"......................................                      ........................................",
"...............................                                     ................................",
"...........................                                             ............................",
"........................                                                  ..........................",
".......................                                                    .........................",
".......................                                                     ........................",
".......................                                                     ........................",
".......................                                                    .........................",
"........................                                                  ..........................",
"...........................                                             ............................",
"...............................                                     ................................",
"......................................                      ........................................",
"....................................................................................................",
"....................................................................................................",
"....................................................................................................",
"....................................................................................................",
"...................................................................................................."
};
