/* XPM */
static char *_b242e5e2e4e4a46945e77ac9302b67daMTaDdZ2RLfgXIec[] = {
/* columns rows colors chars-per-pixel */
"100 100 30 1 ",
"  c #162535",
". c #1E303E",
"X c #2F0544",
"o c #B05212",
"O c #BE5D1A",
"+ c #9E8103",
"@ c #B09312",
"# c #C6A207",
"$ c #640E8C",
"% c #640790",
"& c #670597",
"* c #690798",
"= c #6C039E",
"- c #6E079F",
"; c #79069A",
": c #7008A2",
"> c #7310A2",
", c #7A09B0",
"< c #8C039E",
"1 c #9605AA",
"2 c #841DB6",
"3 c #A207B6",
"4 c #8221B0",
"5 c #AD0AC2",
"6 c #912BC2",
"7 c #9F36D1",
"8 c #A13AD3",
"9 c #A742D7",
"0 c #B55EDF",
"q c #B354E1",
/* pixels */
"....................................................................................................",
"....................................................................................................",
"....................................................................................................",
"....................................................................................................",
"....................................................................................................",
"....................................................................................................",
"....................................................................................................",
"....................................................................................................",
"....................................................................................................",
"....................................................................................................",
"....................................................................................................",
"....................................................................................................",
"....................................................................................................",
"....................................................................................................",
"....................................................................................................",
"....................................................................................................",
"....................................................................................................",
"....................................................................................................",
"....................................................................................................",
"....................................................................................................",
"....................................................................................................",
"....................................................................................................",
"....................................................................................................",
"....................................................................................................",
"....................................................................................................",
"....................................................................................................",
".............................................=........=.............................................",
".............................................=2......2=.............................................",
".............................................=2======2=.............................................",
".............................................&=222222=&.............................................",
".................................,..........=2266666622=..........,.................................",
"...........................,,,,,,:,........=266666666662=........,:,,,,,,...........................",
"..........................;::::::**,.......=266666666662=.......,**::::::;..........................",
".......................3<<;%%%%%%*:,......=26666666666662=......,:*%%%%%%;<<3.......................",
".......................355<;%%%%*::,......=26666666666662=......,::*%%%%;<553.......................",
"....................3355555<;;%%%:,.......=26X66666666X62=.......,:%%%;;<5555533....................",
"...................33555555<<<%%%*:,......=266XX6666XX662=......,:*%%%<<<55555533...................",
"...................3555555555<;%%%*:,.....=2666X6666X6662=.....,:*%%%;<5555555553...................",
"...................33335333555<;;%**,,....=26666666666662=....,,**%;;<55533353333...................",
"..........................55555<<%%%::,....=26666OO66662=....,::%%%<<55555..........................",
"..........................3555511;;%**:,...=26666oo66662=...,:**%;;1155553..........................",
"..........................355533<<;;%**:,,..=2266666622=..,,:**%;;<<335553..........................",
".........................335553311<<%%%::,..$==222222==$..,::%%%<<113355533.........................",
"..........................553333331<;;%**:,.$>>==--==>>$.,:**%;;<133333355..........................",
"..........................333333333<<<%%%*:$466>>>>>>664$:*%%%<<<333333333..........................",
"..........................<..33333311<;%%%*$467777777764$*%%%;<11333333..<..........................",
"................................333331<;%%$46978q00q87964$%%;<133333................................",
".................................333331<;%$46978q00q87964$%;<133333.................................",
"...................................3331<;%$46978q00q87964$%;<1333...................................",
"......................................31<;$469778qq877964$;<13......................................",
".......................................31<$46697788779664$<13.......................................",
"..........................................$46669777796664$..........................................",
"...........................................$466699996664$...........................................",
"...........................................$466666666664$...........................................",
"............................................$6666666666$............................................",
"............................................$4466666644$............................................",
".............................................$$444444$$.............................................",
"...............................................$$$$$$...............................................",
"...............................................++..++...............................................",
"...............................................@+..+@...............................................",
"..............................................@.@..@.@..............................................",
"..............................................#.#..#.#..............................................",
"....................................................................................................",
"....................................................................................................",
"....................................................................................................",
"....................................................................................................",
"....................................................................................................",
"....................................................................................................",
"....................................................................................................",
"....................................................................................................",
"....................................................................................................",
"....................................................................................................",
"....................................................................................................",
"....................................................................................................",
"....................................................................................................",
"....................................................................................................",
"....................................................................................................",
"....................................................................................................",
"....................................................................................................",
"....................................................................................................",
"....................................................................................................",
"....................................................................................................",
"....................................................................................................",
"..........................................                 .........................................",
"....................................                             ...................................",
".................................                                   ................................",
"...............................                                       ..............................",
"..............................                                         .............................",
"..............................                                         .............................",
"..............................                                         .............................",
"..............................                                         .............................",
"...............................                                       ..............................",
".................................                                   ................................",
"....................................                             ...................................",
"..........................................                 .........................................",
"....................................................................................................",
"....................................................................................................",
"....................................................................................................",
"....................................................................................................",
"...................................................................................................."
};
