/* XPM */
static char *f6ce626da04e449ebef7b83eca013469FkP5uFS1McP4lJpb[] = {
/* columns rows colors chars-per-pixel */
"100 100 30 1 ",
"  c #162535",
". c #1E303E",
"X c #2F0544",
"o c #B05212",
"O c #BE5D1A",
"+ c #9E8103",
"@ c #B09312",
"# c #C6A207",
"$ c #640E8C",
"% c #640790",
"& c #670597",
"* c #690798",
"= c #6C039E",
"- c #6E079F",
"; c #79069A",
": c #7008A2",
"> c #7310A2",
", c #7A09B0",
"< c #8C039E",
"1 c #9605AA",
"2 c #841DB6",
"3 c #A207B6",
"4 c #8221B0",
"5 c #AD0AC2",
"6 c #912BC2",
"7 c #9F36D1",
"8 c #A13AD3",
"9 c #A742D7",
"0 c #B55EDF",
"q c #B354E1",
/* pixels */
"....................................................................................................",
"....................................................................................................",
"....................................................................................................",
"....................................................................................................",
"....................................................................................................",
"....................................................................................................",
"....................................................................................................",
"....................................................................................................",
"....................................................................................................",
"....................................................................................................",
"....................................................................................................",
"....................................................................................................",
"....................................................................................................",
"....................................................................................................",
"....................................................................................................",
"....................................................................................................",
"....................................................................................................",
"....................................................................................................",
"....................................................................................................",
"....................................................................................................",
"....................................................................................................",
"....................................................................................................",
"....................................................................................................",
"....................................................................................................",
"....................................................................................................",
"....................................................................................................",
"....................................................................................................",
"....................................................................................................",
".............................................=........=.............................................",
".............................................=2......2=.............................................",
".............................................=2======2=.............................................",
".............................................&=222222=&.............................................",
"............................................=2266666622=............................................",
"...........................................=266666666662=...........................................",
"...........................................=266666666662=...........................................",
"...............................,,,........=26666666666662=........,,,...............................",
"............................,,,,:*,.......=26666666666662=.......,*:,,,,............................",
"..........................,,::::*:,.......=26X66666666X62=.......,:*::::,,..........................",
".........................;::%%%%*:,.......=266XX6666XX662=.......,:*%%%%::;.........................",
".......................3<;;%%%%*:,........=2666X6666X6662=........,:*%%%%;;<3.......................",
"......................355<<;;%%%*:,,......=26666666666662=......,,:*%%%;;<<553......................",
".....................355555<<;%%%*::,......=26666OO66662=......,::*%%%;<<555553.....................",
"....................355555555<;%%%**:,.....=26666oo66662=.....,:**%%%;<555555553....................",
"...................35555555555<;;%%%*:,,....=2266666622=....,,:*%%%;;<55555555553...................",
"...................353333335555<<;;%%*::,,..$==222222==$..,,::*%%;;<<555533333353...................",
"....................3......355551<<;;%**::,,$>>==--==>>$,,::**%;;<<155553......3....................",
"...........................3553311<<;%%**::$466>>>>>>664$::**%%;<<1133553...........................",
"..........................3553333311<;%%%**$467777777764$**%%%;<1133333553..........................",
"..........................35533333331<;;%%$46978q00q87964$%%;;<13333333553..........................",
"...........................33333333331<<;%$46978q00q87964$%;<<13333333333...........................",
"...........................<...333333311<;$46978q00q87964$;<113333333...<...........................",
"...................................333331<$469778qq877964$<133333...................................",
".....................................33331$46697788779664$13333.....................................",
"........................................31$46669777796664$13........................................",
"...........................................$466699996664$...........................................",
"...........................................$466666666664$...........................................",
"............................................$6666666666$............................................",
"............................................$4466666644$............................................",
".............................................$$444444$$.............................................",
"...............................................$$$$$$...............................................",
"...............................................++..++...............................................",
"...............................................@+..+@...............................................",
"..............................................@.@..@.@..............................................",
"..............................................#.#..#.#..............................................",
"....................................................................................................",
"....................................................................................................",
"....................................................................................................",
"....................................................................................................",
"....................................................................................................",
"....................................................................................................",
"....................................................................................................",
"....................................................................................................",
"....................................................................................................",
"....................................................................................................",
"....................................................................................................",
"....................................................................................................",
"....................................................................................................",
"....................................................................................................",
"....................................................................................................",
"....................................................................................................",
"....................................................................................................",
"....................................................................................................",
"....................................................................................................",
"..........................................                 .........................................",
"....................................                              ..................................",
".................................                                    ...............................",
"..............................                                         .............................",
".............................                                           ............................",
".............................                                           ............................",
".............................                                           ............................",
".............................                                           ............................",
"..............................                                         .............................",
".................................                                    ...............................",
"....................................                              ..................................",
"..........................................                 .........................................",
"....................................................................................................",
"....................................................................................................",
"....................................................................................................",
"....................................................................................................",
"...................................................................................................."
};
