/* XPM */
static char *b019826e0df5474bd4aa115fd146a0e8awV7YfkxuKKsKxEc[] = {
/* columns rows colors chars-per-pixel */
"6 8 2 1 ",
"  c #000F22",
". c white",
/* pixels */
"...  .",
".    .",
".    .",
"  .  .",
"...  .",
"...  .",
"...  .",
"      "
};
