/* XPM */
static char *_72207b754a1401081c7d9d8d9f35b34b6Eko31NgHst7aZe[] = {
/* columns rows colors chars-per-pixel */
"6 8 2 1 ",
"  c #000F22",
". c white",
/* pixels */
".    .",
" ...  ",
"....  ",
"....  ",
".... .",
".   ..",
"   ...",
"      "
};
