/* XPM */
static char *_0efa7dfb5c647dfc2229f0c4213dcd9BnhAJdGQzY89YbFH[] = {
/* columns rows colors chars-per-pixel */
"6 8 2 1 ",
"  c #000F22",
". c white",
/* pixels */
"      ",
" .... ",
"..... ",
".     ",
".     ",
"..... ",
" .... ",
"      "
};
