/* XPM */
static char *eb98d7bbb549413c993649e952ef094d4toY8zPiKM6pzZaD[] = {
/* columns rows colors chars-per-pixel */
"6 8 2 1 ",
"  c #000F22",
". c white",
/* pixels */
"...   ",
"..    ",
".  .  ",
"  ..  ",
" ...  ",
"      ",
"....  ",
"....  "
};
