/* XPM */
static char *_58a1164443740bfbf57b1852607391aSp38DKJY7Uq49JXI[] = {
/* columns rows colors chars-per-pixel */
"6 8 2 1 ",
"  c #000F22",
". c white",
/* pixels */
"      ",
"  ....",
"     .",
".     ",
"....  ",
" ...  ",
"      ",
".    ."
};
