/* XPM */
static char *_1c7f9cb2a054396dd038e9db9d78551s4E2grIs8SccHZMd[] = {
/* columns rows colors chars-per-pixel */
"6 8 2 1 ",
"  c #000F22",
". c white",
/* pixels */
".    .",
"  ... ",
"  ....",
"     .",
"  ... ",
"  ... ",
"      ",
".    ."
};
