/* XPM */
static char *c69d7e56a3a5439ba174d3194d59c48802mQgHIsJqykRC4k[] = {
/* columns rows colors chars-per-pixel */
"6 8 2 1 ",
"  c #000F22",
". c white",
/* pixels */
"     .",
"      ",
"....  ",
"...  .",
"...  .",
"..  ..",
"..  ..",
".   .."
};
