/* XPM */
static char *_679f2756fbf42d5da1c4c7e4bdc8ca5q5sVf7SwZ6OqmfPJ[] = {
/* columns rows colors chars-per-pixel */
"6 8 2 1 ",
"  c #000F22",
". c white",
/* pixels */
".    .",
"  ..  ",
"  ..  ",
".    .",
"  ..  ",
"  ..  ",
"  ..  ",
".    ."
};
