/* XPM */
static char *_e1edd04301f44759a981540e8fb35bekXFUtZHJY8rmvGGt[] = {
/* columns rows colors chars-per-pixel */
"6 8 2 1 ",
"  c #000F22",
". c white",
/* pixels */
".    .",
"  ..  ",
"  ..  ",
".     ",
"....  ",
"....  ",
"...   ",
".    ."
};
