/* XPM */
static char *_750086aac3d4421bd70b533a5ec90e3jkLM1PQcvp8ney9E[] = {
/* columns rows colors chars-per-pixel */
"90 30 13 1 ",
"  c #3A1800",
". c #000F22",
"X c #122739",
"o c #A45B7E",
"O c #999696",
"+ c #C384AE",
"@ c #D192BD",
"# c #BAEE89",
"$ c #D99AC5",
"% c #E4A6D1",
"& c #C5C1C1",
"* c gray86",
"= c white",
/* pixels */
"XX                                                                          o           XX",
"X OOOOOOOOOOOOOOOOOOOOOOOOOOOOOOOOOOOOOOOOOOOOOOOOOOOOOOOOOOOOOOOOOOOOOOOOOO+OOOOOOOOOOO X",
" OO&&&&&&&&&&&&&&&&&&&&&&&&&&&&&&&&&&&&&&&&&&&&&&&&&&&&&&&&&&&&&&&&&&&&&&&&&@&&&&&&&&&&OO ",
" O&=************************************************************************$*********=&O ",
" O&*========================================================================%=========*&O ",
" O&*====....===..==========================######=######=######=######=######=######==*&O ",
" O&*===......==..==========================#====#=#====#=#====#=#====#=#====#=#====#==*&O ",
" O&*===..==..=....==...==....===....=======#====#=#====#=#====#=#====#=#====#=#====#==*&O ",
" O&*===..======..==..=..=.....=..===.=..===#====#=#====#=#====#=#====#=#====#=#====#==*&O ",
" O&*====....===..==..=..=..=..=...====..===#====#=#====#=#====#=#====#=#====#=#====#==*&O ",
" O&*=======..==..==....==..=..====...======#====#=#====#=#====#=#====#=#====#=#====#==*&O ",
" O&*===..==..==..==..====.....=..==..=..===#====#=#====#=#====#=#====#=#====#=#====#==*&O ",
" O&*====....====..==....=....===....==..===######=######=######=######=######=######==*&O ",
" O&*=====================..=================================================%======%==*&O ",
" O&*=====================..=================================================%======%==*&O ",
" O&*===..==..==============================######=######=######=######=######=######==*&O ",
" O&*===..==..==============================#====#=#====#=#====#=#====#=#====#=#====#==*&O ",
" O&*===..=..===============================#====#=#====#=#====#=#====#=#====#=#====#==*&O ",
" O&*===..=..===...===..=..===....==========#====#=#====#=#====#=#====#=#====#=#====#==*&O ",
" O&*===....===..=..==..=..==..===.====..===#====#=#====#=#====#=#====#=#====#=#====#==*&O ",
" O&*===...====..=..==..=..==...=======..===#====#=#====#=#====#=#====#=#====#=#====#==*&O ",
" O&*===..=..==....====....=====...=========#====#=#====#=#====#=#====#=#====#=#====#==*&O ",
" O&*===..=...=..=======...==..==..====..===#====#=#====#=#====#=#====#=#====#=#====#==*&O ",
" O&*===..==..==....==..=..===....=====..===######=######=######=######=######=######==*&O ",
" O&*==================...===================================================%=========*&O ",
" O&*========================================================================%=========*&O ",
" O&=************************************************************************$*********=&O ",
" OO&&&&&&&&&&&&&&&&&&&&&&&&&&&&&&&&&&&&&&&&&&&&&&&&&&&&&&&&&&&&&&&&&&&&&&&&&@&&&&&&&&&&OO ",
"X OOOOOOOOOOOOOOOOOOOOOOOOOOOOOOOOOOOOOOOOOOOOOOOOOOOOOOOOOOOOOOOOOOOOOOOOOO+OOOOOOOOOOO X",
"XX                                                                          o           XX"
};
