/* XPM */
static char *_857879ed40b4c7cf7729149c1188913byZb0g5CahveUM6O[] = {
/* columns rows colors chars-per-pixel */
"90 30 7 1 ",
"  c #3A1800",
". c #000F22",
"X c #122739",
"o c #999696",
"O c #C5C1C1",
"+ c gray86",
"@ c white",
/* pixels */
"XX                                                                                      XX",
"X oooooooooooooooooooooooooooooooooooooooooooooooooooooooooooooooooooooooooooooooooooooo X",
" ooOOOOOOOOOOOOOOOOOOOOOOOOOOOOOOOOOOOOOOOOOOOOOOOOOOOOOOOOOOOOOOOOOOOOOOOOOOOOOOOOOOOOoo ",
" oO@++++++++++++++++++++++++++++++++++++++++++++++++++++++++++++++++++++++++++++++++++@Oo ",
" oO+@@@@@@@@@@@@@@@@@@@@@@@@@@@@@@@@@@@@@@@@@@@@@@@@@@@@@@@@@@@@@@@@@@@@@@@@@@@@@@@@@@+Oo ",
" oO+@@@@....@@@..@@@@@@@@@@@@@@@@@@@@@@@@@@@@@@@@@@@@@@@@@@@@@@@@@@@@@@@@@@@@@@@@@@@@@+Oo ",
" oO+@@@......@@..@@@@@@@@@@@@@@@@@@@@@@@@@@@@@@@@@@@@@@@@@@@@@@@@@@@@@@@@@@@@@@@@@@@@@+Oo ",
" oO+@@@..@@..@....@@...@@....@@@....@@@@@@@@@@@@@@@@@@@@@@@@@@@@@@@@@@@@@@@@@@@@@@@@@@+Oo ",
" oO+@@@..@@@@@@..@@..@..@.....@..@@@.@..@@@@@@@@@@@@@@@@@@@@@@@@@@@@@@@@@@@@@@@@@@@@@@+Oo ",
" oO+@@@@....@@@..@@..@..@..@..@...@@@@..@@@@@@@@@@@@@@@@@@@@@@@@@@@@@@@@@@@@@@@@@@@@@@+Oo ",
" oO+@@@@@@@..@@..@@....@@..@..@@@@...@@@@@@@@@@@@@@@@@@@@@@@@@@@@@@@@@@@@@@@@@@@@@@@@@+Oo ",
" oO+@@@..@@..@@..@@..@@@@.....@..@@..@..@@@@@@@@@@@@@@@@@@@@@@@@@@@@@@@@@@@@@@@@@@@@@@+Oo ",
" oO+@@@@....@@@@..@@....@....@@@....@@..@@@@@@@@@@@@@@@@@@@@@@@@@@@@@@@@@@@@@@@@@@@@@@+Oo ",
" oO+@@@@@@@@@@@@@@@@@@@@@..@@@@@@@@@@@@@@@@@@@@@@@@@@@@@@@@@@@@@@@@@@@@@@@@@@@@@@@@@@@+Oo ",
" oO+@@@@@@@@@@@@@@@@@@@@@..@@@@@@@@@@@@@@@@@@@@@@@@@@@@@@@@@@@@@@@@@@@@@@@@@@@@@@@@@@@+Oo ",
" oO+@@@..@@..@@@@@@@@@@@@@@@@@@@@@@@@@@@@@@@@@@@@@@@@@@@@@@@@@@@@@@@@@@@@@@@@@@@@@@@@@+Oo ",
" oO+@@@..@@..@@@@@@@@@@@@@@@@@@@@@@@@@@@@@@@@@@@@@@@@@@@@@@@@@@@@@@@@@@@@@@@@@@@@@@@@@+Oo ",
" oO+@@@..@..@@@@@@@@@@@@@@@@@@@@@@@@@@@@@@@@@@@@@@@@@@@@@@@@@@@@@@@@@@@@@@@@@@@@@@@@@@+Oo ",
" oO+@@@..@..@@@...@@@..@..@@@....@@@@@@@@@@@@@@@@@@@@@@@@@@@@@@@@@@@@@@@@@@@@@@@@@@@@@+Oo ",
" oO+@@@....@@@..@..@@..@..@@..@@@.@@@@..@@@@@@@@@@@@@@@@@@@@@@@@@@@@@@@@@@@@@@@@@@@@@@+Oo ",
" oO+@@@...@@@@..@..@@..@..@@...@@@@@@@..@@@@@@@@@@@@@@@@@@@@@@@@@@@@@@@@@@@@@@@@@@@@@@+Oo ",
" oO+@@@..@..@@....@@@@....@@@@@...@@@@@@@@@@@@@@@@@@@@@@@@@@@@@@@@@@@@@@@@@@@@@@@@@@@@+Oo ",
" oO+@@@..@...@..@@@@@@@...@@..@@..@@@@..@@@@@@@@@@@@@@@@@@@@@@@@@@@@@@@@@@@@@@@@@@@@@@+Oo ",
" oO+@@@..@@..@@....@@..@..@@@....@@@@@..@@@@@@@@@@@@@@@@@@@@@@@@@@@@@@@@@@@@@@@@@@@@@@+Oo ",
" oO+@@@@@@@@@@@@@@@@@@...@@@@@@@@@@@@@@@@@@@@@@@@@@@@@@@@@@@@@@@@@@@@@@@@@@@@@@@@@@@@@+Oo ",
" oO+@@@@@@@@@@@@@@@@@@@@@@@@@@@@@@@@@@@@@@@@@@@@@@@@@@@@@@@@@@@@@@@@@@@@@@@@@@@@@@@@@@+Oo ",
" oO@++++++++++++++++++++++++++++++++++++++++++++++++++++++++++++++++++++++++++++++++++@Oo ",
" ooOOOOOOOOOOOOOOOOOOOOOOOOOOOOOOOOOOOOOOOOOOOOOOOOOOOOOOOOOOOOOOOOOOOOOOOOOOOOOOOOOOOOoo ",
"X oooooooooooooooooooooooooooooooooooooooooooooooooooooooooooooooooooooooooooooooooooooo X",
"XX                                                                                      XX"
};
