/* XPM */
static char *_c857a6bacb24214e79330376bdd93a8UJBSsgTDnYbSS8oW[] = {
/* columns rows colors chars-per-pixel */
"100 100 17 1 ",
"  c black",
". c #111D2B",
"X c #152331",
"o c #162533",
"O c #162535",
"+ c #182836",
"@ c #1A2B3B",
"# c #1E303E",
"$ c #213446",
"% c #45627C",
"& c #D1AD4A",
"* c #FFD96E",
"= c #FCF46D",
"- c #597E9E",
"; c #FBF480",
": c #80B0DC",
"> c #FDFDF3",
/* pixels */
"####################################################################################################",
"####################################################################################################",
"####################################################################################################",
"####################################################################################################",
"################################################  ##################################################",
"############################################### >> #################################################",
"############################################## >;;> ################################################",
"############################################# >;;;;> ###############################################",
"############################################ >;;  ;;> ##############################################",
"########################################### >== ## ==> #############################################",
"########################################## >== #### ==> ############################################",
"######################################### >== ###### ==> ###########################################",
"######################################## >== ######## ==> ##########################################",
"####################################### >== ####  #### ==> #########################################",
"###################################### >== #### ;; #### ==> ########################################",
"##################################### >== #### ;;;; #### ==> #######################################",
"###################################### === ## ====== ## === ########################################",
"####################################### === ## **** ## === #########################################",
"######################################## === ## && ## === ##########################################",
"######################################### *** ##  ## *** ###########################################",
"########################################## *** #### *** ############################################",
"########################################### *** ## *** #############################################",
"############################################ &&&  &&& ##############################################",
"############################################# &&&&&& ###############################################",
"############################################## &&&& ################################################",
"############################################### && #################################################",
"################################################  ##################################################",
"####################################################################################################",
"################################################  ##################################################",
"############################################### =* #################################################",
"############################################## >=*& ################################################",
"############################################## >=*& ################################################",
"############################################## >=*& ################################################",
"############################################## >=*& ################################################",
"############################################## >=*& ################################################",
"############################################## >=*& ################################################",
"############################################## >=*& ################################################",
"############################################## >=*& ################################################",
"############################################## >=*& ################################################",
"############################################## >=*& ################################################",
"############################################## >=*& ################################################",
"############################################## >=*& ################################################",
"############################################## >=*& ################################################",
"############################################## >=*& ################################################",
"############################################## >=*& ################################################",
"############################################## >=*& ################################################",
"############################################## >=*& ################################################",
"############################################## >=*& ################################################",
"############################################## >=*& ################################################",
"############################################## >=*& ################################################",
"####@@@@@@@@@@@@@@@@@@@@@@@@@@@@@@@@@@@@@@@@@@ >=*& @@@@@@@@@@@@@@@@@@@@@@@@@@@@@@@@@@@@@@@@@@@@####",
"###@@@@@@@@@@@@@@@@@@@@@@@@@@@@@@@@@@@@@@@@@@@ >=*& @@@@@@@@@@@@@@@@@@@@@@@@@@@@@@@@@@@@@@@@@@@@@###",
"###@@@@@@@@@@@@@@@@@@@@@@@@@@@@@@@@@@@@@@@@@@@ >=*& @@@@@@@@@@@@@@@@@@@@@@@@@@@@@@@@@@@@@@@@@@@@@###",
"###@@@@@@@@@@@@@@@@@@@@@@@@@@@@@@@@@@@@@@@@@@@ >=*& .O@@@@@@@@@@@@@@@@@@@@@@@@@@@@@@@@@@@@@@@@@@@###",
"###@@@@@@@@@@@@@@@@@@@@@@@@@@@@@@@@@@@@@@@@@O. >=*& oX.O@@@@@@@@@@@@@@@@@@@@@@@@@@@@@@@@@@@@@@@@@###",
"###@@@@@@@@@@@@@@@@@@@@@@@@@@@@@@@@@@@@@@@O.Xo >=*& oooX.O@@@@@@@@@@@@@@@@@@@@@@@@@@@@@@@@@@@@@@@###",
"###@@@@@@@@@@@@@@@@@@@@@@@@@@@@@@@@@@@@@O.Xooo >=*& oooooX.O@@@@@@@@@@@@@@@@@@@@@@@@@@@@@@@@@@@@@###",
"###@@@@@@@@@@@@@@@@@@@@@@@@@@@@@@@@@@@O.Xooooo >=*& .@oooooX.O@@@@@@@@@@@@@@@@@@@@@@@@@@@@@@@@@@@###",
"###@@@@@@@@@@@@@@@@@@@@@@@@@@@@@@@@@O.Xooooo@. >=*&>     ooooX.O@@@@@@@@@@@@@@@@@@@@@@@@@@@@@@@@@###",
"###@@@@@@@@@@@@@@@@@@@@@@@@@@@@@@@O.Xooooo@... >=*&====== oooooX.O@@@@@@@@@@@@@@@@@@@@@@@@@@@@@@@###",
"###@@@@@@@@@@@@@@@@@@@@@@@@@@@@@O.Xooooo@..... >=*& ****** @oooooX.O@@@@@@@@@@@@@@@@@@@@@@@@@@@@@###",
"###@@@@@@@@@@@@@@@@@@@@@@@@@@@O.Xooooo@....... >=*&.      ...@oooooX.O@@@@@@@@@@@@@@@@@@@@@@@@@@@###",
"###@@@@@@@@@@@@@@@@@@@@@@@@@O.Xooooo@......... >=*& ...........@oooooX.O@@@@@@@@@@@@@@@@@@@@@@@@@###",
"###@@@@@@@@@@@@@@@@@@@@@@@O.Xooooo@........... >=*&>    .........@oooooX.O@@@@@@@@@@@@@@@@@@@@@@@###",
"###@@@@@@@@@@@@@@@@@@@@@O.Xooooo@............. >=*&=>>>> ..........@oooooX.O@@@@@@@@@@@@@@@@@@@@@###",
"###@@@@@@@@@@@@@@@@@@@O.Xooooo@............... >=*&===== ............@oooooX.O@@@@@@@@@@@@@@@@@@@###",
"###@@@@@@@@@@@@@@@@O.Xooooo@.................. >=*&***** ...............@oooooX.O@@@@@@@@@@@@@@@@###",
"###@@@@@@@@@@@@@@O.Xooooo@.................... >=*&&    ..................@oooooX.O@@@@@@@@@@@@@@###",
"###@@@@@@@@@@@@O.Xooooo@................@@@@@@+     @@@@@@@@................@oooooX.O@@@@@@@@@@@@###",
"###@@@@@@@@@@O.Xooooo@................@-$%::::::::::::::::%$-@................@oooooX.O@@@@@@@@@@###",
"###@@@@@@@@O.Xooooo@................@-$$:%$$$$$:%$$%:$$$$$%:$$-@................@oooooX.O@@@@@@@@###",
"###@@@@@@O.Xooooo@................@-$$:%$$$$$$:%$$$$%:$$$$$$%:$$-@................@oooooX.O@@@@@@###",
"###@@@@O.XooooO@..................@-:%$$$$$$$:%$$$$$$%:$$$$$$$%:-@..................@oooooX.O@@@@###",
"###@@@O.XooooO+....................@-::$$$$$%$$$$$$$$$$%$$$$$::-@....................@oooooX.O@@@###",
"###@@@@@O.Xooooo@....................@-%%%%OOOOOOOOOOOOOO%%%%-@....................@oooooX.O@@@@@###",
"###@@@@@@@O.Xooooo@....................@OOOOOOOOOOOOOOOOOOOO@....................@oooooX.O@@@@@@@###",
"###@@@@@@@@@O.Xooooo@................OOOOOOOOOOOOOOOOOOOOOOOOOO................@oooooX.O@@@@@@@@@###",
"###@@@@@@@@@@@O.Xooooo@..............OOOOOOOOOOOOOOOOOOOOOOOOOOOO............@oooooX.O@@@@@@@@@@@###",
"###@@@@@@@@@@@@@O.Xooooo@..........OOOOOOOOOOOOOOOOOOOOOOOOOOOOOO..........@oooooX.O@@@@@@@@@@@@@###",
"###@@@@@@@@@@@@@@@O.Xooooo@........OOOOOOOOOOOOOOOOOOOOOOOOOOOOOO........@oooooX.O@@@@@@@@@@@@@@@###",
"###@@@@@@@@@@@@@@@@@@O.Xooooo@.....OOOOOOOOOOOOOOOOOOOOOOOOOOOOOO.....@oooooX.O@@@@@@@@@@@@@@@@@@###",
"###@@@@@@@@@@@@@@@@@@@@O.Xooooo@.....OOOOOOOOOOOOOOOOOOOOOOOOOOOO...@oooooX.O@@@@@@@@@@@@@@@@@@@@###",
"###@@@@@@@@@@@@@@@@@@@@@@O.Xooooo@...OOOOOOOOOOOOOOOOOOOOOOOOOO...@oooooX.O@@@@@@@@@@@@@@@@@@@@@@###",
"###@@@@@@@@@@@@@@@@@@@@@@@@O.Xooooo@....OOOOOOOOOOOOOOOOOOOO....@oooooX.O@@@@@@@@@@@@@@@@@@@@@@@@###",
"###@@@@@@@@@@@@@@@@@@@@@@@@@@O.Xooooo@.....OOOOOOOOOOOOOO.....@oooooX.O@@@@@@@@@@@@@@@@@@@@@@@@@@###",
"###@@@@@@@@@@@@@@@@@@@@@@@@@@@@O.Xooooo@....................@oooooX.O@@@@@@@@@@@@@@@@@@@@@@@@@@@@###",
"###@@@@@@@@@@@@@@@@@@@@@@@@@@@@@@O.Xooooo@................@oooooX.O@@@@@@@@@@@@@@@@@@@@@@@@@@@@@@###",
"###@@@@@@@@@@@@@@@@@@@@@@@@@@@@@@@@O.Xooooo@............@oooooX.O@@@@@@@@@@@@@@@@@@@@@@@@@@@@@@@@###",
"###@@@@@@@@@@@@@@@@@@@@@@@@@@@@@@@@@@O.Xooooo@........@oooooX.O@@@@@@@@@@@@@@@@@@@@@@@@@@@@@@@@@@###",
"###@@@@@@@@@@@@@@@@@@@@@@@@@@@@@@@@@@@@O.Xooooo@....@oooooX.O@@@@@@@@@@@@@@@@@@@@@@@@@@@@@@@@@@@@###",
"###@@@@@@@@@@@@@@@@@@@@@@@@@@@@@@@@@@@@@@O.Xooooo@@oooooX.O@@@@@@@@@@@@@@@@@@@@@@@@@@@@@@@@@@@@@@###",
"###@@@@@@@@@@@@@@@@@@@@@@@@@@@@@@@@@@@@@@@@O.XooooooooX.O@@@@@@@@@@@@@@@@@@@@@@@@@@@@@@@@@@@@@@@@###",
"###@@@@@@@@@@@@@@@@@@@@@@@@@@@@@@@@@@@@@@@@@@O.XooooX.O@@@@@@@@@@@@@@@@@@@@@@@@@@@@@@@@@@@@@@@@@@###",
"###@@@@@@@@@@@@@@@@@@@@@@@@@@@@@@@@@@@@@@@@@@@@O.XX.O@@@@@@@@@@@@@@@@@@@@@@@@@@@@@@@@@@@@@@@@@@@@###",
"###@@@@@@@@@@@@@@@@@@@@@@@@@@@@@@@@@@@@@@@@@@@@@@OO@@@@@@@@@@@@@@@@@@@@@@@@@@@@@@@@@@@@@@@@@@@@@@###",
"###@@@@@@@@@@@@@@@@@@@@@@@@@@@@@@@@@@@@@@@@@@@@@@@@@@@@@@@@@@@@@@@@@@@@@@@@@@@@@@@@@@@@@@@@@@@@@@###",
"####@@@@@@@@@@@@@@@@@@@@@@@@@@@@@@@@@@@@@@@@@@@@@@@@@@@@@@@@@@@@@@@@@@@@@@@@@@@@@@@@@@@@@@@@@@@@####",
"####################################################################################################",
"####################################################################################################",
"####################################################################################################"
};
