/* XPM */
static char *_91aa6c8f80d4a70e3308af432dd06b3Ic7tsWnkk3n5O293[] = {
/* columns rows colors chars-per-pixel */
"100 100 27 1 ",
"  c #1B0404",
". c #2B0101",
"X c #230909",
"o c #320E0E",
"O c #361414",
"+ c #111D2B",
"@ c #162535",
"# c #1A2B3B",
"$ c #1E303E",
"% c #590B0B",
"& c #5D0D0D",
"* c #421818",
"= c #591111",
"- c #5E1111",
"; c #680E0E",
": c #7B2121",
"> c #902222",
", c #9E2323",
"< c #982525",
"1 c #923030",
"2 c #A23A3A",
"3 c #E43E3E",
"4 c #C74040",
"5 c #D04242",
"6 c #F35F5F",
"7 c #FF6868",
"8 c #FF7D7D",
/* pixels */
"$$$$$$$$$$$$$$$$$$$$$$$$$$$$$$$$$$$$$$$$$$$$$$$$$$$$$$$$$$$$$$$$$$$$$$$$$$$$$$$$$$$$$$$$$$$$$$$$$$$$",
"$$$$$$$$$$$$$$$$$$$$$$$$$$$$$$$$$$$$$$$$$$$$$$$$$$$$$$$$$$$$$$$$$$$$$$$$$$$$$$$$$$$$$$$$$$$$$$$$$$$$",
"$$$$$$$$$$$$$$$$$$$$$$$$$$$$$$$$$$$$$$$$$$$$$$$$$$$$$$$$$$$$$$$$$$$$$$$$$$$$$$$$$$$$$$$$$$$$$$$$$$$$",
"$$$$############################################################################################$$$$",
"$$$##############################################################################################$$$",
"$$$##############################################################################################$$$",
"$$$#########@##########################################################################@#########$$$",
"$$$##########@@@@@@@@@@@@@@@@@@@@@@@@@@@@@@@@@@@@@@@@@@@@@@@@@@@@@@@@@@@@@@@@@@@@@@@@@@##########$$$",
"$$$##########@++++++++++++++++++++++++++++++++++++++++++++++++++++++++++++++++++++++++@##########$$$",
"$$$##########@++ooooooooooooooooooooooooooooooooo..ooooooooooooooooooooooooooooooooo++@##########$$$",
"$$$##########@+o=&&&;;;;;;;;;;;;;;;;;;;;;;;%%%%%%..%%%%%%;;;;;;;;;;;;;;;;;;;;;;;&&&=o+@##########$$$",
"$$$##########@+o:<<<,,,,,,,,,,,,,,,,,,,,,,,655<<;..;<<556,,,,,,,,,,,,,,,,,,,,,,,<<<:o+@##########$$$",
"$$$##########@+o:<<<,,,,,,,,,,,,,,,,,,,,,,,655<<;..;<<556,,,,,,,,,,,,,,,,,,,,,,,<<<:o+@##########$$$",
"$$$##########@+o155533333333333333333333333655<<;..;<<556333333333333333333333335551o+@##########$$$",
"$$$##########@+o155533333333333333333333333733,,;..;,,337333333333333333333333335551o+@##########$$$",
"$$$##########@+o266677777777777777777777777733,,;..;,,337777777777777777777777776662o+@##########$$$",
"$$$##########@+oOOOX X%%%%%X    X%%%%X    X73,,<;..;<,,37X    X%%%%X    X%%%%%X XOOOo+@##########$$$",
"$$$##########@+oOOOX X;;;;;X    X;;;;X    X73,,<;..;<,,37X    X;;;;X    X;;;;;X XOOOo+@##########$$$",
"$$$##########@+oO**X X773,,X    X73,,X    X73,,<;..;<,,37X    X,,37X    X,,377X X**Oo+@##########$$$",
"$$$##########@+oO**X X773,,X    X73,,X    X73,,<;..;<,,37X    X,,37X    X,,377X X**Oo+@##########$$$",
"$$$##########@+oO**X X773,,X    X73,,X    X73,,<;..;<,,37X    X,,37X    X,,377X X**Oo+@##########$$$",
"$$$##########@+oO**X X773,,X    X73,,X    X73,,<;..;<,,37X    X,,37X    X,,377X X**Oo+@##########$$$",
"$$$##########@+oO**X X773,,X    X73,,X    X73,,<;..;<,,37X    X,,37X    X,,377X X**Oo+@##########$$$",
"$$$##########@+oO**X X773,,X    X73,,X    X73,,<;..;<,,37X    X,,37X    X,,377X X**Oo+@##########$$$",
"$$$##########@+oO**X X773,,X    X73,,X    X73,,<;..;<,,37X    X,,37X    X,,377X X**Oo+@##########$$$",
"$$$##########@+oO**X X773,,X    X73,,X    X73,,<;..;<,,37X    X,,37X    X,,377X X**Oo+@##########$$$",
"$$$##########@+oO**X X773,,X    X73,,X    X73,,<;..;<,,37X    X,,37X    X,,377X X**Oo+@##########$$$",
"$$$##########@+oO**X X773,,X    X73,,X    X73,,<;..;<,,37X    X,,37X    X,,377X X**Oo+@##########$$$",
"$$$##########@+oO**X X773,,X    X73,,X    X73,,<;..;<,,37X    X,,37X    X,,377X X**Oo+@##########$$$",
"$$$##########@+oO**X X665<<X    X65<<X    X73,,<;..;<,,37X    X<<56X    X<<566X X**Oo+@##########$$$",
"$$$##########@+oO**XXX44444XXXXXX4444XXXXXX73,,<;..;<,,37XXXXXX4444XXXXXX44444XXX**Oo+@##########$$$",
"$$$##########@+o26667777777777777777777777773,,<;..;<,,37777777777777777777777776662o+@##########$$$",
"$$$##########@+o15553333333333333333333333373,,<;..;<,,37333333333333333333333335551o+@##########$$$",
"$$$##########@+o15553333333333333333333333365,,<;..;<,,56333333333333333333333335551o+@##########$$$",
"$$$##########@+o:<<<,,,,,,,,,,,,,,,,,,,,,,,65,,<;..;<,,56,,,,,,,,,,,,,,,,,,,,,,,<<<:o+@##########$$$",
"$$$##########@+o:<<<,,,,,,,,,,,,,,,,,,,,,,,65,,<;..;<,,56,,,,,,,,,,,,,,,,,,,,,,,<<<:o+@##########$$$",
"$$$##########@+o=&&&;;;;;;;;;;;;;;;;;;;;;;;>>>>>;..;>>>>>;;;;;;;;;;;;;;;;;;;;;;;&&&=o+@##########$$$",
"$$$##########@+oOOOXXX%%%%%XXXXXX%%%%XXXXXX%%%%%%..%%%%%%XXXXXX%%%%XXXXXX%%%%%XXXOOOo+@##########$$$",
"$$$##########@+oOOOX X;;;;;X    X;;;;X    X;;;;;;..;;;;;;X    X;;;;X    X;;;;;X XOOOo+@##########$$$",
"$$$##########@+oO**X X773,,X    X73,,X    X7733,,..,,3377X    X,,37X    X,,377X X**Oo+@##########$$$",
"$$$##########@+oO**X X773,,X    X73,,X    X7733,,..,,3377X    X,,37X    X,,377X X**Oo+@##########$$$",
"$$$##########@+oO**X X773,,X    X73,,X  XXX7733,,..,,3377XXX  X,,37X    X,,377X X**Oo+@##########$$$",
"$$$##########@+oO**X X773,,X    X73,,X X7777733,,..,,3377777X X,,37X    X,,377X X**Oo+@##########$$$",
"$$$##########@+oO**X X665<<X    X65<<X X3333333,,..,,3333333X X<<56X    X<<566X X**Oo+@##########$$$",
"$$$##########@+oO**XXX44444XXXXXX4444XXX7333333,,..,,3333337XXX4444XXXXXX44444XXX**Oo+@##########$$$",
"$$$##########@+o2666777777777777777765<;7333333,,..,,3333337;<5677777777777777776662o+@##########$$$",
"$$$##########@+o1555333333333333333355<;7333333,,..,,3333337;<5533333333333333335551o+@##########$$$",
"$$$##########@+o:<<<,,,,,,,,,,,,,,,,,<<;7358885,,..,,5888537;<<,,,,,,,,,,,,,,,,,<<<:o+@##########$$$",
"$$$##########@+o:<<<,,,,,,,,,,,,,,,,,<<;7367776<,..,<6777637;<<,,,,,,,,,,,,,,,,,<<<:o+@##########$$$",
"$$$##########@+o=&&&;;;;;;;;;;;;;;;;;;;;7353335<,..,<5333537;;;;;;;;;;;;;;;;;;;;&&&=o+@##########$$$",
"$$$##########@+oOOOXXX%%%%%XXXXXX%%%%XXX7353335<,..,<5333537XXX%%%%XXXXXX%%%%%XXXOOOo+@##########$$$",
"$$$##########@+oOOOX X;;;;;X    X;;;;X X73<555<,,..,,<555<37X X;;;;X    X;;;;;X XOOOo+@##########$$$",
"$$$##########@+oO**X X773,,X    X733,X X735<<<5,,..,,5<<<537X X,337X    X,,377X X**Oo+@##########$$$",
"$$$##########@+oO**X X773,,X    X733,X X7335553,,..,,3555337X X,337X    X,,377X X**Oo+@##########$$$",
"$$$##########@+oO**X X773,,X    X733,X X7333333,,..,,3333337X X,337X    X,,377X X**Oo+@##########$$$",
"$$$##########@+oO**X X773,,X    X733,X  X%%%%%%%%..%%%%%%%%X  X,337X    X,,377X X**Oo+@##########$$$",
"$$$##########@+oO**X X773,,X    X733,X   XX;;;;;-..-;;;;;XX   X,337X    X,,377X X**Oo+@##########$$$",
"$$$##########@+oO**X X773,,X    X733,X    X733,,-..-,,337X    X,337X    X,,377X X**Oo+@##########$$$",
"$$$##########@+oO**X X773,,X    X733,X    X733,,-..-,,337X    X,337X    X,,377X X**Oo+@##########$$$",
"$$$##########@+oO**X X773,,X    X733,X    X733,,-..-,,337X    X,337X    X,,377X X**Oo+@##########$$$",
"$$$##########@+oO**X X773,,X    X733,X    X733,,;..;,,337X    X,337X    X,,377X X**Oo+@##########$$$",
"$$$##########@+oO**X X773,,X    X733,X    X733,,;..;,,337X    X,337X    X,,377X X**Oo+@##########$$$",
"$$$##########@+oO**X X773,,X    X733,X    X733,,;..;,,337X    X,337X    X,,377X X**Oo+@##########$$$",
"$$$##########@+oO**X X773,,X    X733,X    X733,,;..;,,337X    X,337X    X,,377X X**Oo+@##########$$$",
"$$$##########@+oO**X X773,,X    X733,X    X733,,;..;,,337X    X,337X    X,,377X X**Oo+@##########$$$",
"$$$##########@+oO**X X555<<X    X555<X    X733,,;..;,,337X    X<555X    X<<555X X**Oo+@##########$$$",
"$$$##########@+oO**XXX44444XXXXXX4444XXXXXX733,,;..;,,337XXXXXX4444XXXXXX44444XXX**Oo+@##########$$$",
"$$$##########@+o266677777777777777777777777733,,;..;,,337777777777777777777777776662o+@##########$$$",
"$$$##########@+o155533333333333333333333333733,,;..;,,337333333333333333333333335551o+@##########$$$",
"$$$##########@+o155533333333333333333333333655<<;..;<<556333333333333333333333335551o+@##########$$$",
"$$$##########@+o:<<<,,,,,,,,,,,,,,,,,,,,,,,655<<;..;<<556,,,,,,,,,,,,,,,,,,,,,,,<<<:o+@##########$$$",
"$$$##########@+o:<<<,,,,,,,,,,,,,,,,,,,,,,,655<<;..;<<556,,,,,,,,,,,,,,,,,,,,,,,<<<:o+@##########$$$",
"$$$##########@+o=&&&;;;;;;;;;;;;;;;;;;;;;;;<<<<<;..;<<<<<;;;;;;;;;;;;;;;;;;;;;;;&&&=o+@##########$$$",
"$$$##########@+oOOOXXX%%%%%XXXXXX%%%%XXXXXX%%%%%%..%%%%%%XXXXXX%%%%XXXXXX%%%%%XXXOOOo+@##########$$$",
"$$$##########@+oOOOX X%%%%%X    X%%%%X    X;;;;;-..-;;;;;X    X%%%%X    X%%%%%X XOOOo+@##########$$$",
"$$$##########@+oO**X X;;;;;X    X;;;;X    X733,,-..-,,337X    X;;;;X    X;;;;;X X**Oo+@##########$$$",
"$$$##########@+oO**X X773,,X    X73,,X    X733,,-..-,,337X    X,,37X    X,,377X X**Oo+@##########$$$",
"$$$##########@+oO**X X773,,X    X73,,X    X733,,;..;,,337X    X,,37X    X,,377X X**Oo+@##########$$$",
"$$$##########@+oO**X X773,,X    X73,,X    X733,,;..;,,337X    X,,37X    X,,377X X**Oo+@##########$$$",
"$$$##########@+oO**X X773,,X    X73,,X    X733,,;..;,,337X    X,,37X    X,,377X X**Oo+@##########$$$",
"$$$##########@+oO**X X773,,X    X73,,X    X733,,;..;,,337X    X,,37X    X,,377X X**Oo+@##########$$$",
"$$$##########@+oO**X X773,,X    X73,,X    X733,,;..;,,337X    X,,37X    X,,377X X**Oo+@##########$$$",
"$$$##########@+oO**X X333,,X    X33,,X    X733,,;..;,,337X    X,,33X    X,,333X X**Oo+@##########$$$",
"$$$##########@+oO**X X555<<X    X55<<X    X733,,;..;,,337X    X<<55X    X<<555X X**Oo+@##########$$$",
"$$$##########@+oO**XXX44444XXXXXX4444XXXXXX733,,;..;,,337XXXXXX4444XXXXXX44444XXX**Oo+@##########$$$",
"$$$##########@+o266677777777777777777777777733,,;..;,,337777777777777777777777776662o+@##########$$$",
"$$$##########@+o155533333333333333333333333733,,;..;,,337333333333333333333333335551o+@##########$$$",
"$$$##########@+o155533333333333333333333333655<<;..;<<556333333333333333333333335551o+@##########$$$",
"$$$##########@+o:<<<,,,,,,,,,,,,,,,,,,,,,,,655<<;..;<<556,,,,,,,,,,,,,,,,,,,,,,,<<<:o+@##########$$$",
"$$$##########@+o:<<<,,,,,,,,,,,,,,,,,,,,,,,655<<;..;<<556,,,,,,,,,,,,,,,,,,,,,,,<<<:o+@##########$$$",
"$$$##########@+o=&&&;;;;;;;;;;;;;;;;;;;;;;;%%%%%%..%%%%%%;;;;;;;;;;;;;;;;;;;;;;;&&&=o+@##########$$$",
"$$$##########@++ooooooooooooooooooooooooooooooooo..ooooooooooooooooooooooooooooooooo++@##########$$$",
"$$$##########@+++++++++++++++++++++++++++++++++++++++++++++++++++++++++++++++++++++++@@##########$$$",
"$$$##########@@@@@@@@@@@@@@@@@@@@@@@@@@@@@@@@@@@@@@@@@@@@@@@@@@@@@@@@@@@@@@@@@@@@@@@@@@##########$$$",
"$$$#########@##########################################################################@#########$$$",
"$$$##############################################################################################$$$",
"$$$$############################################################################################$$$$",
"$$$$$$$$$$$$$$$$$$$$$$$$$$$$$$$$$$$$$$$$$$$$$$$$$$$$$$$$$$$$$$$$$$$$$$$$$$$$$$$$$$$$$$$$$$$$$$$$$$$$",
"$$$$$$$$$$$$$$$$$$$$$$$$$$$$$$$$$$$$$$$$$$$$$$$$$$$$$$$$$$$$$$$$$$$$$$$$$$$$$$$$$$$$$$$$$$$$$$$$$$$$",
"$$$$$$$$$$$$$$$$$$$$$$$$$$$$$$$$$$$$$$$$$$$$$$$$$$$$$$$$$$$$$$$$$$$$$$$$$$$$$$$$$$$$$$$$$$$$$$$$$$$$"
};
