/* XPM */
static char *_fa7697cffcc4783e60197c1415e3561yEqNLluZ1vpFnhxl[] = {
/* columns rows colors chars-per-pixel */
"100 100 26 1 ",
"  c #1B0404",
". c #2B0101",
"X c #230909",
"o c #320E0E",
"O c #361414",
"+ c #111D2B",
"@ c #1A2B3B",
"# c #1E303E",
"$ c #590B0B",
"% c #5D0D0D",
"& c #421818",
"* c #591111",
"= c #5E1111",
"- c #680E0E",
"; c #7B2121",
": c #902222",
"> c #9E2323",
", c #982525",
"< c #923030",
"1 c #A23A3A",
"2 c #E43E3E",
"3 c #C74040",
"4 c #D04242",
"5 c #F35F5F",
"6 c #FF6868",
"7 c #FF7D7D",
/* pixels */
"####################################################################################################",
"####################################################################################################",
"####################################################################################################",
"####################################################################################################",
"####################################################################################################",
"####################################################################################################",
"####################################################################################################",
"####################################################################################################",
"################++++++++++++++++++++++++++++++++++++++++++++++++++++++++++++++++++++################",
"###############+ooooooooooooooooooooooooooooooooo..ooooooooooooooooooooooooooooooooo+###############",
"##############+o*%%%-----------------------$$$$$$..$$$$$$-----------------------%%%*o+##############",
"##############+o;,,,>>>>>>>>>>>>>>>>>>>>>>>544,,-..-,,445>>>>>>>>>>>>>>>>>>>>>>>,,,;o+##############",
"##############+o;,,,>>>>>>>>>>>>>>>>>>>>>>>544,,-..-,,445>>>>>>>>>>>>>>>>>>>>>>>,,,;o+##############",
"##############+o<44422222222222222222222222544,,-..-,,44522222222222222222222222444<o+##############",
"#############++o<44422222222222222222222222622>>-..->>22622222222222222222222222444<o++#############",
"#############++o155566666666666666666666666622>>-..->>226666666666666666666666665551o++#############",
"#############++oOOOX X$$$$$X    X$$$$X    X62>>,-..-,>>26X    X$$$$X    X$$$$$X XOOOo++#############",
"#############++oOOOX X-----X    X----X    X62>>,-..-,>>26X    X----X    X-----X XOOOo++#############",
"#############++oO&&X X662>>X    X62>>X    X62>>,-..-,>>26X    X>>26X    X>>266X X&&Oo++#############",
"#############++oO&&X X662>>X    X62>>X    X62>>,-..-,>>26X    X>>26X    X>>266X X&&Oo++#############",
"#############++oO&&X X662>>X    X62>>X    X62>>,-..-,>>26X    X>>26X    X>>266X X&&Oo++#############",
"#############++oO&&X X662>>X    X62>>X    X62>>,-..-,>>26X    X>>26X    X>>266X X&&Oo++#############",
"#############++oO&&X X662>>X    X62>>X    X62>>,-..-,>>26X    X>>26X    X>>266X X&&Oo++#############",
"#############++oO&&X X662>>X    X62>>X    X62>>,-..-,>>26X    X>>26X    X>>266X X&&Oo++#############",
"#############++oO&&X X662>>X    X62>>X    X62>>,-..-,>>26X    X>>26X    X>>266X X&&Oo++#############",
"#############++oO&&X X662>>X    X62>>X    X62>>,-..-,>>26X    X>>26X    X>>266X X&&Oo++#############",
"#############++oO&&X X662>>X    X62>>X    X62>>,-..-,>>26X    X>>26X    X>>266X X&&Oo++#############",
"#############++oO&&X X662>>X    X62>>X    X62>>,-..-,>>26X    X>>26X    X>>266X X&&Oo++#############",
"#############++oO&&X X662>>X    X62>>X    X62>>,-..-,>>26X    X>>26X    X>>266X X&&Oo++#############",
"#############++oO&&X X554,,X    X54,,X    X62>>,-..-,>>26X    X,,45X    X,,455X X&&Oo++#############",
"#############++oO&&XXX33333XXXXXX3333XXXXXX62>>,-..-,>>26XXXXXX3333XXXXXX33333XXX&&Oo++#############",
"#############++o15556666666666666666666666662>>,-..-,>>26666666666666666666666665551o++#############",
"#############++o<4442222222222222222222222262>>,-..-,>>2622222222222222222222222444<o++#############",
"#############++o<4442222222222222222222222254>>,-..-,>>4522222222222222222222222444<o++#############",
"#############++o;,,,>>>>>>>>>>>>>>>>>>>>>>>54>>,-..-,>>45>>>>>>>>>>>>>>>>>>>>>>>,,,;o++#############",
"#############++o;,,,>>>>>>>>>>>>>>>>>>>>>>>54>>,-..-,>>45>>>>>>>>>>>>>>>>>>>>>>>,,,;o++#############",
"#############++o*%%%-----------------------:::::-..-:::::-----------------------%%%*o++#############",
"#############++oOOOXXX$$$$$XXXXXX$$$$XXXXXX$$$$$$..$$$$$$XXXXXX$$$$XXXXXX$$$$$XXXOOOo++#############",
"#############++oOOOX X-----X    X----X    X------..------X    X----X    X-----X XOOOo++#############",
"#############++oO&&X X662>>X    X62>>X    X6622>>..>>2266X    X>>26X    X>>266X X&&Oo++#############",
"#############++oO&&X X662>>X    X62>>X    X6622>>..>>2266X    X>>26X    X>>266X X&&Oo++#############",
"#############++oO&&X X662>>X    X62>>X  XXX6622>>..>>2266XXX  X>>26X    X>>266X X&&Oo++#############",
"#############++oO&&X X662>>X    X62>>X X6666622>>..>>2266666X X>>26X    X>>266X X&&Oo++#############",
"#############++oO&&X X554,,X    X54,,X X2222222>>..>>2222222X X,,45X    X,,455X X&&Oo++#############",
"#############++oO&&XXX33333XXXXXX3333XXX6222222>>..>>2222226XXX3333XXXXXX33333XXX&&Oo++#############",
"#############++o1555666666666666666654,-6222222>>..>>2222226-,4566666666666666665551o++#############",
"#############++o<444222222222222222244,-6222222>>..>>2222226-,442222222222222222444<o++#############",
"#############++o;,,,>>>>>>>>>>>>>>>>>,,-6247774>>..>>4777426-,,>>>>>>>>>>>>>>>>>,,,;o++#############",
"#############++o;,,,>>>>>>>>>>>>>>>>>,,-6256665,>..>,5666526-,,>>>>>>>>>>>>>>>>>,,,;o++#############",
"#############++o*%%%--------------------6242224,>..>,4222426--------------------%%%*o++#############",
"####@@@@@@@@@++oOOOXXX$$$$$XXXXXX$$$$XXX6242224,>..>,4222426XXX$$$$XXXXXX$$$$$XXXOOOo++@@@@@@@@@####",
"###@@@@@@@@@@++oOOOX X-----X    X----X X62,444,>>..>>,444,26X X----X    X-----X XOOOo++@@@@@@@@@@###",
"###@@@@@@@@@@++oO&&X X662>>X    X622>X X624,,,4>>..>>4,,,426X X>226X    X>>266X X&&Oo++@@@@@@@@@@###",
"###@@@@@@@@@@++oO&&X X662>>X    X622>X X6224442>>..>>2444226X X>226X    X>>266X X&&Oo++@@@@@@@@@@###",
"###@@@@@@@@@@++oO&&X X662>>X    X622>X X6222222>>..>>2222226X X>226X    X>>266X X&&Oo++@@@@@@@@@@###",
"###@@@@@@@@@@++oO&&X X662>>X    X622>X  X$$$$$$$$..$$$$$$$$X  X>226X    X>>266X X&&Oo++@@@@@@@@@@###",
"###@@@@@@@@@@++oO&&X X662>>X    X622>X   XX-----=..=-----XX   X>226X    X>>266X X&&Oo++@@@@@@@@@@###",
"###@@@@@@@@@@++oO&&X X662>>X    X622>X    X622>>=..=>>226X    X>226X    X>>266X X&&Oo++@@@@@@@@@@###",
"###@@@@@@@@@@++oO&&X X662>>X    X622>X    X622>>=..=>>226X    X>226X    X>>266X X&&Oo++@@@@@@@@@@###",
"###@@@@@@@@@@++oO&&X X662>>X    X622>X    X622>>=..=>>226X    X>226X    X>>266X X&&Oo++@@@@@@@@@@###",
"###@@@@@@@@@@++oO&&X X662>>X    X622>X    X622>>-..->>226X    X>226X    X>>266X X&&Oo++@@@@@@@@@@###",
"###@@@@@@@@@@++oO&&X X662>>X    X622>X    X622>>-..->>226X    X>226X    X>>266X X&&Oo++@@@@@@@@@@###",
"###@@@@@@@@@@++oO&&X X662>>X    X622>X    X622>>-..->>226X    X>226X    X>>266X X&&Oo++@@@@@@@@@@###",
"###@@@@@@@@@@++oO&&X X662>>X    X622>X    X622>>-..->>226X    X>226X    X>>266X X&&Oo++@@@@@@@@@@###",
"###@@@@@@@@@@++oO&&X X662>>X    X622>X    X622>>-..->>226X    X>226X    X>>266X X&&Oo++@@@@@@@@@@###",
"###@@@@@@@@@@++oO&&X X444,,X    X444,X    X622>>-..->>226X    X,444X    X,,444X X&&Oo++@@@@@@@@@@###",
"###@@@@@@@@@@++oO&&XXX33333XXXXXX3333XXXXXX622>>-..->>226XXXXXX3333XXXXXX33333XXX&&Oo++@@@@@@@@@@###",
"###@@@@@@@@@@++o155566666666666666666666666622>>-..->>226666666666666666666666665551o++@@@@@@@@@@###",
"###@@@@@@@@@@++o<44422222222222222222222222622>>-..->>22622222222222222222222222444<o++@@@@@@@@@@###",
"###@@@@@@@@@@++o<44422222222222222222222222544,,-..-,,44522222222222222222222222444<o++@@@@@@@@@@###",
"###@@@@@@@@@@++o;,,,>>>>>>>>>>>>>>>>>>>>>>>544,,-..-,,445>>>>>>>>>>>>>>>>>>>>>>>,,,;o++@@@@@@@@@@###",
"###@@@@@@@@@@++o;,,,>>>>>>>>>>>>>>>>>>>>>>>544,,-..-,,445>>>>>>>>>>>>>>>>>>>>>>>,,,;o++@@@@@@@@@@###",
"###@@@@@@@@@@++o*%%%-----------------------,,,,,-..-,,,,,-----------------------%%%*o++@@@@@@@@@@###",
"###@@@@@@@@@@++oOOOXXX$$$$$XXXXXX$$$$XXXXXX$$$$$$..$$$$$$XXXXXX$$$$XXXXXX$$$$$XXXOOOo++@@@@@@@@@@###",
"###@@@@@@@@@@++oOOOX X$$$$$X    X$$$$X    X-----=..=-----X    X$$$$X    X$$$$$X XOOOo++@@@@@@@@@@###",
"###@@@@@@@@@@++oO&&X X-----X    X----X    X622>>=..=>>226X    X----X    X-----X X&&Oo++@@@@@@@@@@###",
"###@@@@@@@@@@++oO&&X X662>>X    X62>>X    X622>>=..=>>226X    X>>26X    X>>266X X&&Oo++@@@@@@@@@@###",
"###@@@@@@@@@@++oO&&X X662>>X    X62>>X    X622>>-..->>226X    X>>26X    X>>266X X&&Oo++@@@@@@@@@@###",
"###@@@@@@@@@@++oO&&X X662>>X    X62>>X    X622>>-..->>226X    X>>26X    X>>266X X&&Oo++@@@@@@@@@@###",
"###@@@@@@@@@@++oO&&X X662>>X    X62>>X    X622>>-..->>226X    X>>26X    X>>266X X&&Oo++@@@@@@@@@@###",
"###@@@@@@@@@@++oO&&X X662>>X    X62>>X    X622>>-..->>226X    X>>26X    X>>266X X&&Oo++@@@@@@@@@@###",
"###@@@@@@@@@@++oO&&X X662>>X    X62>>X    X622>>-..->>226X    X>>26X    X>>266X X&&Oo++@@@@@@@@@@###",
"###@@@@@@@@@@++oO&&X X222>>X    X22>>X    X622>>-..->>226X    X>>22X    X>>222X X&&Oo++@@@@@@@@@@###",
"###@@@@@@@@@@++oO&&X X444,,X    X44,,X    X622>>-..->>226X    X,,44X    X,,444X X&&Oo++@@@@@@@@@@###",
"###@@@@@@@@@@++oO&&XXX33333XXXXXX3333XXXXXX622>>-..->>226XXXXXX3333XXXXXX33333XXX&&Oo++@@@@@@@@@@###",
"###@@@@@@@@@@++o155566666666666666666666666622>>-..->>226666666666666666666666665551o++@@@@@@@@@@###",
"###@@@@@@@@@@@+o<44422222222222222222222222622>>-..->>22622222222222222222222222444<o++@@@@@@@@@@###",
"###@@@@@@@@@@@+o<44422222222222222222222222544,,-..-,,44522222222222222222222222444<o+@@@@@@@@@@@###",
"###@@@@@@@@@@@+o;,,,>>>>>>>>>>>>>>>>>>>>>>>544,,-..-,,445>>>>>>>>>>>>>>>>>>>>>>>,,,;o+@@@@@@@@@@@###",
"###@@@@@@@@@@@+o;,,,>>>>>>>>>>>>>>>>>>>>>>>544,,-..-,,445>>>>>>>>>>>>>>>>>>>>>>>,,,;o+@@@@@@@@@@@###",
"###@@@@@@@@@@@+o*%%%-----------------------$$$$$$..$$$$$$-----------------------%%%*o+@@@@@@@@@@@###",
"###@@@@@@@@@@@@+ooooooooooooooooooooooooooooooooo..ooooooooooooooooooooooooooooooooo+@@@@@@@@@@@@###",
"###@@@@@@@@@@@@@++++++++++++++++++++++++++++++++++++++++++++++++++++++++++++++++++++@@@@@@@@@@@@@###",
"###@@@@@@@@@@@@@@@@@@@@@@@@@@@@@@@@@@@@@@@@@@@@@@@@@@@@@@@@@@@@@@@@@@@@@@@@@@@@@@@@@@@@@@@@@@@@@@###",
"###@@@@@@@@@@@@@@@@@@@@@@@@@@@@@@@@@@@@@@@@@@@@@@@@@@@@@@@@@@@@@@@@@@@@@@@@@@@@@@@@@@@@@@@@@@@@@@###",
"###@@@@@@@@@@@@@@@@@@@@@@@@@@@@@@@@@@@@@@@@@@@@@@@@@@@@@@@@@@@@@@@@@@@@@@@@@@@@@@@@@@@@@@@@@@@@@@###",
"####@@@@@@@@@@@@@@@@@@@@@@@@@@@@@@@@@@@@@@@@@@@@@@@@@@@@@@@@@@@@@@@@@@@@@@@@@@@@@@@@@@@@@@@@@@@@####",
"####################################################################################################",
"####################################################################################################",
"####################################################################################################"
};
