/* XPM */
static char *_f7b9efa3f82406b8c4adc6b4ee5d327RvPqgtXHOAKL6J7D[] = {
/* columns rows colors chars-per-pixel */
"100 100 56 1 ",
"  c black",
". c #1B0404",
"X c #2B0101",
"o c #230909",
"O c #320E0E",
"+ c #361414",
"@ c #111D2B",
"# c #162535",
"$ c #1A2B3B",
"% c #1E303E",
"& c #590B0B",
"* c #5D0D0D",
"= c #421818",
"- c #591111",
"; c #680202",
": c #680E0E",
"> c #7F0000",
", c #7B2121",
"< c #04530F",
"1 c #026810",
"2 c #067A16",
"3 c #8E0000",
"4 c #A20000",
"5 c #B10606",
"6 c #BD0C0C",
"7 c #902222",
"8 c #9E2323",
"9 c #982525",
"0 c #923030",
"q c #A23A3A",
"w c #D41616",
"e c #E43E3E",
"r c #C74040",
"t c #D04242",
"y c #F35F5F",
"u c #FF6868",
"i c #008E14",
"p c #00A216",
"a c #04AB1A",
"s c #09B721",
"d c #15CD2E",
"f c #D79F63",
"g c #F1A17E",
"h c #E9B175",
"j c #F1B27E",
"k c #F1B97E",
"l c #0E7F85",
"z c #0B9AA2",
"x c #11B3BC",
"c c #639BFF",
"v c #14C0C9",
"b c #1ACED7",
"n c #818181",
"m c gray",
"M c #D7D7D7",
"N c white",
/* pixels */
"%%%%%%%%%%%%%%%%%%%%%%%%%%%%%%%%%%%%%%%%%%%%%%%%%%%%%%%%%%%%%%%%%%%%%%%%%%%%%%%%%%%%%%%%%%%%%%%%%%%%",
"%%%%%%%%%%%%%%%%%%%%%%%%%%%%%%%%%%%%%%%%%%%%%%%%%%%%%%%%%%%%%%%%%%%%%%%%%%%%%%%%%%%%%%%%%%%%%%%%%%%%",
"%%%%%%%%%%%%%%%%%%%%%%%%%%%%%%%%%%%%%%%%%%%%%%%%%%%%%%%%%%%%%%%%%%%%%%%%%%%%%%%%%%%%%%%%%%%%%%%%%%%%",
"%%%%%%%%%%%%%%%%%%%%%%%%%%%%%%%%%%%%%%%%%%%%%%%%%%%%%%%%%%%%%%%%%%%%%%%%%%%%%%%%%%%%%%%%%%%%%%%%%%%%",
"%%%%%%%%%%%%%%%%%%%%%%%%%%%%%%%%%%%%%%%%%%%%%%%%%%%%%%%%%%%%%%%%%%%%%%%%%%%%%%%%%%%%%%%%%%%%%%%%%%%%",
"%%%%%%%%%%%%%%%%%%%%%%%%%%%%%%%%%%%%%%%%%%%%%%%%%%%%%%%%%%%%%%%%%%%%%%%%%%%%%%%%%%%%%%%%%%%%%%%%%%%%",
"%%%%%%%%%%%%%%%%%%%%%%%%%%%%%%%%%%%%%%%%%%%%%%%%%%%%%%%%%%%%%%%%%%%%%%%%%%%%%%%%%%%%%%%%%%%%%%%%%%%%",
"%%%%%%%%%%%%%%%%%%%%%%%%%%%%%%%%%%%%%%%%%%%%%%%%%%%%%%%%%%%%%%%%%%%%%%%%%%%%%%%%%%%%%%%%%%%%%%%%%%%%",
"%%%%%%%%%%%%%%%%@@@@@@@@@@@@@@@@@@@@@@@@@@@@@@@@@@@@@@@@@@@@@@@@@@@@@@@@@@@@@@@@@@@@%%%%%%%%%%%%%%%%",
"%%%%%%%%%%%%%%%@OOOOOOOOOOOOOOOOOOOOOOOOOOOOOOOOOXXOOOOOOOOOOOOOOOOOOOOOOOOOOOOOOOOO@%%%%%%%%%%%%%%%",
"%%%%%%%%%%%%%%@O-***:::::::::::::::::::::::&&&&&&XX&&&&&&:::::::::::::::::::::::***-O@%%%%%%%%%%%%%%",
"%%%%%%%%%%%%%%@O,99988888888888888888888888ytt99:XX:99tty88888888888888888888888999,O@%%%%%%%%%%%%%%",
"%%%%%%%%%%%%%%@O,99988888888888888888888888ytt99:XX:99tty88888888888888888888888999,O@%%%%%%%%%%%%%%",
"%%%%%%%%%%%%%%@O0ttteeeeeeeeeeeeeeeeeeeeeeeytt99:XX:99ttyeeeeeeeeeeeeeeeeeeeeeeettt0O@%%%%%%%%%%%%%%",
"%%%%%%%%%%%%%@@O0ttteeeeeeeeeeeeeeeeeeeeeeeuee88:XX:88eeueeeeeeeeeeeeeeeeeeeeeeettt0O@@%%%%%%%%%%%%%",
"%%%%%%%%%%%%%@@Oqyyyuuuuuuuuuuuuuuuuuuuuuuuuee88:XX:88eeuuuuuuuuuuuuuuuuuuuuuuuuyyyqO@@%%%%%%%%%%%%%",
"%%%%%%%%%%%%%@@O+++o.o&&&&&o....o&&&&o....oue889:XX:988euo....o&&&&o....o&&&&&o.o+++O@@%%%%%%%%%%%%%",
"%%%%%%%%%%%%%@@O+++o.o:::::o....o::::o....oue889:XX:988euo....o::::o....o:::::o.o+++O@@%%%%%%%%%%%%%",
"%%%%%%%%%%%%%@@O+==o.ouue88o....oue88o....oue889:XX:988euo....o88euo....o88euuo.o==+O@@%%%%%%%%%%%%%",
"%%%%%%%%%%%%%@@O+==o.ouue88o....oue88o....oue889:XX:988euo....o88euo....o88euuo.o==+O@@%%%%%%%%%%%%%",
"%%%%%%%%%%%%%@@O+==o.ouue88o....oue88o....oue889:XX:988euo....o88euo....o88euuo.o==+O@@%%%%%%%%%%%%%",
"%%%%%%%%%%%%%@@O+==o.ouue88o....oue88o....oue889:XX:988euo....o88euo....o88euuo.o==+O@@%%%%%%%%%%%%%",
"%%%%%%%%%%%%%@@O+==o.ouue88o....oue88o....oue889:XX:988euo....o88euo....o88euuo.o==+O@@%%%%%%%%%%%%%",
"%%%%%%%%%%%%%@@O+==o.ouue88o....oue88o....oue889:XX:988euo....o88euo....o88euuo.o==+O@@%%%%%%%%%%%%%",
"%%%%%%%%%%%%%@@O+==o.ouue88o....oue88o....oue889:XX:988euo....o88euo....o88euuo.o==+O@@%%%%%%%%%%%%%",
"%%%%%%%%%%%%%@@O+==o.ouue88o....oue88o....oue889:XX:988euo....o88euo....o88euuo.o==+O@@%%%%%%%%%%%%%",
"%%%%%%%%%%%%%@@O+==o.ouue88o....oue88o....oue889:XX:988euo....o88euo....o88euuo.o==+O@@%%%%%%%%%%%%%",
"%%%%%%%%%%%%%@@O+==o.ouue88o....oue88o....oue889:XX:988euo....o88euo....o88euuo.o==+O@@%%%%%%%%%%%%%",
"%%%%%%%%%%%%%@@O+==o.ouue88o....oue88o....oue889:XX:988euo....o88euo....o88euuo.o==+O@@%%%%%%%%%%%%%",
"%%%%%%%%%%%%%@@O+==o.oyyt99o....oyt99o....oue889:XX:988euo....o99tyo....o99tyyo.o==+O@@%%%%%%%%%%%%%",
"%%%%%%%%%%%%%@@O+==ooorrrrroooooorrrrooooooue889:XX:988euoooooorrrroooooorrrrrooo==+O@@%%%%%%%%%%%%%",
"%%%%%%%%%%%%%@@Oqyyyuuuuuuuuuuuuuuuuuuuuuuuue889:XX:988euuuuuuuuuuuuuuuuuuuuuuuuyyyqO@@%%%%%%%%%%%%%",
"%%%%%%%%%%%%%@@O0ttteeeeeeeeeeeeeeeeeeeeeeeue889:XX:988eueeeeeeeeeeeeeeeeeeeeeeettt0O@@%%%%%%%%%%%%%",
"%%%%%%%%%%%%%@@O0ttteeeeeeeeeeeeeeeeeeeeeeeyt889:XX:988tyeeeeeeeeeeeeeeeeeeeeeeettt0O@@%%%%%%%%%%%%%",
"%%%%%%%%%%%%%@@O,99988888888888888888888888yt889:XX:988ty88888888888888888888888999,O@@%%%%%%%%%%%%%",
"%%%%%%%%%%%%%@@O,99988888888888888888888888yt889:XX:988ty88888888888888888888888999,O@@%%%%%%%%%%%%%",
"%%%%%%%%%%%%%@@O-***:::::::::::::bb::::::::77777:XX:77777::::::::bb:::::::::::::***-O@@%%%%%%%%%%%%%",
"%%%%%%%%%%%%%@@O+++ooo&&&&&ooooobzzbbbooooo&&&&&&XX&&&&&&ooooobbbzzbooooo&&&&&ooo+++O@@%%%%%%%%%%%%%",
"%%%%%%%%%%%%%@@O+++o.o:::::o....bzvzzzbbb.o::::::XX::::::o.bbbzzzvzb....o:::::o.o+++O@@%%%%%%%%%%%%%",
"%%%%%%%%%%%%%@@O+==o.ouue88o....bzvvvvzzzbouuee88XX88eeuuobzzzvvvvzb....o88euuo.o==+O@@%%%%%%%%%%%%%",
"%%%%%%%%%%%%%@@O+==o.ouue88o....bzvxvvvvxzzbbbbbbbbbbbbbbzzxvvvvxvzb....o88euuo.o==+O@@%%%%%%%%%%%%%",
"%%%%%%%%%%%%%@@O+==o.ouue88o....bzvvxxzxzbbzzzzzzzzzzzzzzbbzxzxxvvzb....o88euuo.o==+O@@%%%%%%%%%%%%%",
"%%%%%%%%%%%%%@@O+==o.ouue88o....bzvxzzxbbzzxxxxxxxxxxxxxxzzbbxzzxvzb....o88euuo.o==+O@@%%%%%%%%%%%%%",
"%%%%%%%%%%%%%@@O+==o.oyyt99o....bzvvxxbzzxxvvvvvvvvvvvvvvxxzzbxxvvzb....o99tyyo.o==+O@@%%%%%%%%%%%%%",
"%%%%%%%%%%%%%@@O+==ooorrrrroooooobzxbbzxxvvvvvvvvvvvvvvvvvvxxzbbxzboooooorrrrrooo==+O@@%%%%%%%%%%%%%",
"%%%%%%%%%%%%%@@OqyyyuuuuuuuuuuuufbzbzzxvvvvvvvvvvvvvvvvvvvvvvxzzbzbfuuuuuuuuuuuuyyyqO@@%%%%%%%%%%%%%",
"%%%%%%%%%%%%%@@O0ttteeeeeeeeeeeefkbzxvvvvvvvvvvvvvvvvvvvvvvvvvvxzbkfeeeeeeeeeeeettt0O@@%%%%%%%%%%%%%",
"%%%%%%%%%%%%%@@O,999888888888888fkbzxvvvvvvvvvvvvvvvvvvvvvvvvvvxzbkf888888888888999,O@@%%%%%%%%%%%%%",
"%%%%%%%%%%%%%@@O,999888888888888fkbxvvvvvvvvvvvvvvvvvvvvvvvvvvvvxbkf888888888888999,O@@%%%%%%%%%%%%%",
"%%%%%%%%%%%%%@@O-***:::::::::::::fzxvvvvvvvvvvvvvvvvvvvvvvvvvvvvxzf:::::::::::::***-O@@%%%%%%%%%%%%%",
"%%%%$$$$$$$$$@@O+++ooo&&&&&oooooofzxvvvvvvvvvvvvvvvvvvvvvvvvvvvvxzfoooooo&&&&&ooo+++O@@$$$$$$$$$%%%%",
"%%%$$$$$$$$$$@@O+++o.o:::::o....o:lzxvvvvvvvvvvvvvvvvvvvvvvvvvvxzl:o....o:::::o.o+++O@@$$$$$$$$$$%%%",
"%%%$$$$$$$$$$@@O+==o.ouue88o....olzlzxvvvvvvvvvvvvvvvvvvvvvvvvxzlzlo....o88euuo.o==+O@@$$$$$$$$$$%%%",
"%%%$$$$$$$$$$@@O+==o.ouue88o....olzlzxxxxxxxxxxxxvvxxxxxxxxxxxxzlzlo....o88euuo.o==+O@@$$$$$$$$$$%%%",
"%%%$$$$$$$$$$@@O+==o.ouue88o....olzxlzzzzzzzzzzzzxxzzzzzzzzzzzzlxzlo....o88euuo.o==+O@@$$$$$$$$$$%%%",
"%%%$$$$$$$$$$@@O+==o.ouue88o....olzxkllllllllllllzzllllllllllllkxzlo....o88euuo.o==+O@@$$$$$$$$$$%%%",
"%%%$$$$$$$$$$@@O+==o.ouue88o....olzxkkkkf NNNN ffllff NNNN fkkkkxzlo....o88euuo.o==+O@@$$$$$$$$$$%%%",
"%%%$$$$$$$$$$@@O+==o.ouue88o....olzxkkkkf NNNN fkffkf NNNN fkkkkxzlo....o88euuo.o==+O@@$$$$$$$$$$%%%",
"%%%$$$$$$$$$$@@O+==o.ouue88o....olzxkkkkf NccN fkkkkf NccN fkkkkxzlo....o88euuo.o==+O@@$$$$$$$$$$%%%",
"%%%$$$$$$$$$$@@O+==o.ouue88o....olzxkkkkf NccN fkkkkf NccN fkkkkxzlo....o88euuo.o==+O@@$$$$$$$$$$%%%",
"%%%$$$$$$$$$$@@O+==o.ouue88o....olzxkkkkf NccN fkkkkf NccN fkkkkxzlo....o88euuo.o==+O@@$$$$$$$$$$%%%",
"%%%$$$$$$$$$$@@O+==o.ouue88o....oulzxkjkkf    fkkkkkkf    fkkjkxzluo....o88euuo.o==+O@@$$$$$$$$$$%%%",
"%%%$$$$$$$$$$@@O+==o.ouue88o....oulzxkgjkkffffkkkkkkkkffffkkjgkxzluo....o88euuo.o==+O@@$$$$$$$$$$%%%",
"%%%$$$$$$$$$$@@O+==o.ouue88o....oulzxhggjkkxxxxxxxxxxxxxxkkkgghxzluo....o88euuo.o==+O@@$$$$$$$$$$%%%",
"%%%$$$$$$$$$$@@O+==o.ouue88o....ouelzxhgjxxbbbbbbbbbbbbbbxxjghxzleuo....o88euuo.o==+O@@$$$$$$$$$$%%%",
"%%%$$$$$$$$$$@@O+==o.ottt99o....otttlzxhxvvvvvvvvvvvvvvvvvvxhxzlttto....o99ttto.o==+O@@$$$$$$$$$$%%%",
"%%%$$$$$$$$$$@@O+==ooorrrrroooooo<<<<lzxvxxxxxxxxxxxxxxxxxxvxz<<<<roooooorrrrrooo==+O@@$$$$$$$$$$%%%",
"%%%$$$$$$$$$$@@Oqyyyuuuuuuuuuuuu<ssss<lzzzzzzzzzzzzzzzzzzzzzz<ssss<uuuuuuuuuuuuuyyyqO@@$$$$$$$$$$%%%",
"%%%$$$$$$$$$$@@O0ttteeeeeeeeeee<spppps<<<11111111ll1111111<<<spppps<eeeeeeeeeeeettt0O@@$$$$$$$$$$%%%",
"%%%$$$$$$$$$$@@O0ttteeeeeeeeee<sp2222pss1pppppppp11ppppppp1ssp2222ps<eeeeeeeeeeettt0O@@$$$$$$$$$$%%%",
"%%%$$$$$$$$$$@@O,999888888888<sp222222pp1pppsddddssdddsppp1pp222222ps<8888888888999,O@@$$$$$$$$$$%%%",
"%%%$$$$$$$$$$@@O,99988888888<sp2222222221pppasssssssssappp1222222222ps<888888888999,O@@$$$$$$$$$$%%%",
"%%%$$$$$$$$$$@@O-***::::::::<sp2222222221pppassssaasssappp1222222222ps<:::::::::***-O@@$$$$$$$$$$%%%",
"%%%$$$$$$$$$$@@O+++ooo&&&&&o<sp22222222i1pppaaaaaaaaaaappp1i22222222ps<oo&&&&&ooo+++O@@$$$$$$$$$$%%%",
"%%%$$$$$$$$$$@@O+++o.o&&&&&o.nnnnnnnnnn<1ppppaaaappaaapppp1<nnnnnnnnnn..o&&&&&o.o+++O@@$$$$$$$$$$%%%",
"%%%$$$$$$$$$$@@O+==o.o:::::onNNNNNNNMMmn1ppppppppppppppppp1nmMMNNNNNNNn.o:::::o.o==+O@@$$$$$$$$$$%%%",
"%%%$$$$$$$$$$@@O+==o.ouue88onNNNNNNNMMmn1iiiiiiiippiiiiiii1nmMMNNNNNNNn.o88euuo.o==+O@@$$$$$$$$$$%%%",
"%%%$$$$$$$$$$@@O+==o.ouue88onNNNNNNNMMmn;11111111ii1111111;nmMMNNNNNNNn.o88euuo.o==+O@@$$$$$$$$$$%%%",
"%%%$$$$$$$$$$@@O+==o.ouue88onNNNNNNMMmn;33333333311333333333nmMMNNNNNNn.o88euuo.o==+O@@$$$$$$$$$$%%%",
"%%%$$$$$$$$$$@@O+==o.ouue88onNNNNNNMMmn;46wwwww443344wwwww64nmMMNNNNNNn.o88euuo.o==+O@@$$$$$$$$$$%%%",
"%%%$$$$$$$$$$@@O+==o.ouue88onNNNNMMMmn;34566666w4444w66666543nmMMMNNNNn.o88euuo.o==+O@@$$$$$$$$$$%%%",
"%%%$$$$$$$$$$@@O+==o.ouue88onNNNNMMmn;344455556644446655554443nmMMNNNNn.o88euuo.o==+O@@$$$$$$$$$$%%%",
"%%%$$$$$$$$$$@@O+==o.oeee88onMMMMMMmn;344444445644446544444443nmMMMMMMn.o88eeeo.o==+O@@$$$$$$$$$$%%%",
"%%%$$$$$$$$$$@@O+==o.ottt99onMMMMMmn;34444444445444454444444443nmMMMMMn.o99ttto.o==+O@@$$$$$$$$$$%%%",
"%%%$$$$$$$$$$@@O+==ooorrrrroonmmmmn;3444444444444444444444444443nmmmmnooorrrrrooo==+O@@$$$$$$$$$$%%%",
"%%%$$$$$$$$$$@@Oqyyyuuuuuuuuuunnnn%;3>333333344444444443333333>3;nnnnuuuuuuuuuuuyyyqO@@$$$$$$$$$$%%%",
"%%%$$$$$$$$$$$@O0ttteeeeeeeeeeeeee;3>3NNNNNNN3334334333NNNNNNN3>3;eeeeeeeeeeeeeettt0O@@$$$$$$$$$$%%%",
"%%%$$$$$$$$$$$@O0ttteeeeeeeeeeeeee;NNNMMMMMMMNNN3;;3NNNMMMMMMMNNN;eeeeeeeeeeeeeettt0O@$$$$$$$$$$$%%%",
"%%%$$$$$$$$$$$@O,99988888888888888NMMMMMMMMMMMMMN##NMMMMMMMMMMMMMN88888888888888999,O@$$$$$$$$$$$%%%",
"%%%$$$$$$$$$$$@O,99988888888######NMMMMMMMMMMMMMN##NMMMMMMMMMMMMMN####8888888888999,O@$$$$$$$$$$$%%%",
"%%%$$$$$$$$$$$@O-***:::###########nmmmMMMMMMMmmmn##nmmmMMMMMMMmmmn#########:::::***-O@$$$$$$$$$$$%%%",
"%%%$$$$$$$$$$$$@OOOOOO#############nnnmmmmmmmnnn####nnnmmmmmmmnnn###########OOOOOOOO@$$$$$$$$$$$$%%%",
"%%%$$$$$$$$$$$$$@@@@@#################nnnnnnn##########nnnnnnn##############@@@@@@@@$$$$$$$$$$$$$%%%",
"%%%$$$$$$$$$$$$$$$$$$$######################################################$$$$$$$$$$$$$$$$$$$$$%%%",
"%%%$$$$$$$$$$$$$$$$$$$$####################################################$$$$$$$$$$$$$$$$$$$$$$%%%",
"%%%$$$$$$$$$$$$$$$$$$$$$$$$$##########################################$$$$$$$$$$$$$$$$$$$$$$$$$$$%%%",
"%%%%$$$$$$$$$$$$$$$$$$$$$$$$$$$$$$$$##########################$$$$$$$$$$$$$$$$$$$$$$$$$$$$$$$$$$%%%%",
"%%%%%%%%%%%%%%%%%%%%%%%%%%%%%%%%%%%%%%%%%%%%%%%%%%%%%%%%%%%%%%%%%%%%%%%%%%%%%%%%%%%%%%%%%%%%%%%%%%%%",
"%%%%%%%%%%%%%%%%%%%%%%%%%%%%%%%%%%%%%%%%%%%%%%%%%%%%%%%%%%%%%%%%%%%%%%%%%%%%%%%%%%%%%%%%%%%%%%%%%%%%",
"%%%%%%%%%%%%%%%%%%%%%%%%%%%%%%%%%%%%%%%%%%%%%%%%%%%%%%%%%%%%%%%%%%%%%%%%%%%%%%%%%%%%%%%%%%%%%%%%%%%%"
};
