/* XPM */
static char *b37804dc734d41fac88f9c5511407024gitCDkWa8hynhIJj[] = {
/* columns rows colors chars-per-pixel */
"100 100 34 1 ",
"  c #02010F",
". c #05000C",
"X c #030011",
"o c #050012",
"O c #010017",
"+ c #040015",
"@ c #000516",
"# c #090013",
"$ c #0A0014",
"% c #010019",
"& c #040218",
"* c #00061B",
"= c #00001C",
"- c #05001D",
"; c #00041D",
": c #05051F",
"> c #080018",
", c #08001F",
"< c #000919",
"1 c #040B1B",
"2 c #000421",
"3 c #040420",
"4 c #060A27",
"5 c #111D2B",
"6 c #162535",
"7 c #1A2A38",
"8 c #1A2B3B",
"9 c #1E303E",
"0 c #213446",
"q c #2B3361",
"w c #2A3C64",
"e c #45627C",
"r c #597E9E",
"t c #80B0DC",
/* pixels */
"9999999999999999999999999999999999999999999999999999999999999999999999999999999999999999999999999999",
"9999999999999999999999999999999999999999999999999999999999999999999999999999999999999999999999999999",
"9999999999999999999999999999999999999999999999999999999999999999999999999999999999999999999999999999",
"9999888888888888888888888888888888888888888888888888888888888888888888888888888888888888888888889999",
"9998888888888888888888888888888888888888888888888888888888888888888888888888888888888888888888888999",
"9998888888888888888888888888888888888888888888888888888888888888888888888888888888888888888888888999",
"9998888888886888888888888888888888888888888888888888888888888888888888888888888888888886888888888999",
"9998888888888666666666666666666666666666666666666666666666666666666666666666666666666668888888888999",
"9998888888888655555555555555555555555555555555555555555555555555555555555555555555555568888888888999",
"9998888888888655OO@++oooXoo#OO+OOOOOO+++OOOXX+++>++>OO+++OOO+XXOOOOOOOOOO++OOOO++>OO5568888888888999",
"999888888888865=OqqqqqqqqqqqqqqqqqqqqqqqqqqqqqqqqqqqqqqqqqqqqqqqqqqqqqqqqqqqqqqqqqqO%568888888888999",
"999888888888865=wOOOOOOOOOOOOOOOOOOOOOOOOOOOOOOOOOOOOOOOOOOOOOOOOOOOOOOOOOOOOOOOOOOq%568888888888999",
"999888888888865=qOOOOOOOOOOOOOOOOOOOOOOOOOOOOOOOOOOOOOOOOOOOOOOOOOOOOOOOOOOOOOOOOOOq%568888888888999",
"999888888888865=qOOOOOOOOOOOOOOOOOOOOOOOOOOOOOOOOOOOOOOOOOOOOOOOOOOOOOOOOOOOOOOOOOOq%568888888888999",
"999888888888865=qOOOOOOOOOOOOOOOOOOOOOOOOOOOOOOOOOOOOOOOOOOOOOOOOOOOOOOOOOOOOOOOOOOq%568888888888999",
"999888888888865%qOOOOOOOOOOOOOOOOOOOOOOOOOOOOOOOOOOOOOOOOOOOOOOOOOOOOOOOOOOOOOOOOOOq&568888888888999",
"999888888888865OqOOOOOOOOOOOOOOOOOOOOOOOOOOOOOOOOOOOOOOOOOOOOOOOOOOOOOOOOOOOOOOOOOOq%568888888888999",
"999888888888865OqOOOOOOOOOOOOOOOOOOOOOOOOOOOOOOOOOOOOOOOOOOOOOOOOOOOOOOOOOOOOOOOOOOq%568888888888999",
"999888888888865OqOOOOOOOOOOOOOOOOOOOOOOOOOOOOOOOOOOOOOOOOOOOOOOOOOOOOOOOOOOOOOOOOOOq=568888888888999",
"999888888888865%qOOOOOOOOOOOOOOOOOOOOOOOOOOOOOOOOOOOOOOOOOOOOOOOOOOOOOOOOOOOOOOOOOOq;568888888888999",
"999888888888865%qOOOOOOOOOOOOOOOOOOOOOOOOOOOOOOOOOOOOOOOOOOOOOOOOOOOOOOOOOOOOOOOOOOq;568888888888999",
"999888888888865%qOOOOOOOOOOOOOOOOOOOOOOOOOOOOOOOOOOOOOOOOOOOOOOOOOOOOOOOOOOOOOOOOOOqO568888888888999",
"999888888888865%qOOOOOOOOOOOOOOOOOOOOOOOOOOOOOOOOOOOOOOOOOOOOOOOOOOOOOOOOOOOOOOOOOOqO568888888888999",
"999888888888865%qOOOOOOOOOOOOOOOOOOOOOOOOOOOOOOOOOOOOOOOOOOOOOOOOOOOOOOOOOOOOOOOOOOqO568888888888999",
"999888888888865%qOOOOOOOOOOOOOOOOOOOOOOOOOOOOOOOOOOOOOOOOOOOOOOOOOOOOOOOOOOOOOOOOOOq%568888888888999",
"999888888888865%qOOOOOOOOOOOOOOOOOOOOOOOOOOOOOOOOOOOOOOOOOOOOOOOOOOOOOOOOOOOOOOOOOOqO568888888888999",
"999888888888865%qOOOOOOOOOOOOOOOOOOOOOOOOOOOOOOOOOOOOOOOOOOOOOOOOOOOOOOOOOOOOOOOOOOqO568888888888999",
"999888888888865%qOOOOOOOOOOOOOOOOOOOOOOOOOOOOOOOOOOOOOOOOOOOOOOOOOOOOOOOOOOOOOOOOOOq%568888888888999",
"999888888888865%qOOOOOOOOOOOOOOOOOOOOOOOOOOOOOOOOOOOOOOOOOOOOOOOOOOOOOOOOOOOOOOOOOOq#568888888888999",
"999888888888865%qOOOOOOOOOOOOOOOOOOOOOOOOOOOOOOOOOOOOOOOOOOOOOOOOOOOOOOOOOOOOOOOOOOq#568888888888999",
"999888888888865=qOOOOOOOOOOOOOOOOOOOOOOOOOOOOOOOOOOOOOOOOOOOOOOOOOOOOOOOOOOOOOOOOOOq$568888888888999",
"999888888888865@qOOOOOOOOOOOOOOOOOOOOOOOOOOOOOOOOOOOOOOOOOOOOOOOOOOOOOOOOOOOOOOOOOOqO568888888888999",
"999888888888865@qOOOOOOOOOOOOOOOOOOOOOOOOOOOOOOOOOOOOOOOOOOOOOOOOOOOOOOOOOOOOOOOOOOq+568888888888999",
"999888888888865*qOOOOOOOOOOOOOOOOOOOOOOOOOOOOOOOOOOOOOOOOOOOOOOOOOOOOOOOOOOOOOOOOOOq+568888888888999",
"9998888888888652qOOOOOOOOOOOOOOOOOOOOOOOOOOOOOOOOOOOOOOOOOOOOOOOOOOOOOOOOOOOOOOOOOOq:568888888888999",
"9998888888888652qOOOOOOOOOOOOOOOOOOOOOOOOOOOOOOOOOOOOOOOOOOOOOOOOOOOOOOOOOOOOOOOOOOq:568888888888999",
"999888888888865=qOOOOOOOOOOOOOOOOOOOOOOOOOOOOOOOOOOOOOOOOOOOOOOOOOOOOOOOOOOOOOOOOOOq%568888888888999",
"999888888888865+qOOOOOOOOOOOOOOOOOOOOOOOOOOOOOOOOOOOOOOOOOOOOOOOOOOOOOOOOOOOOOOOOOOq%568888888888999",
"999888888888865+qOOOOOOOOOOOOOOOOOOOO88888888888888888888888888OOOOOOOOOOOOOOOOOOOOq%568888888888999",
"999888888888865%qOOOOOOOOOOOOOOOOOO88rrrrrrrrrrrrrrrrrrrrrrrrrr88OOOOOOOOOOOOOOOOOOq&568888888888999",
"999888888888865%qOOOOOOOOOOOOOOOOO8rr0etttttttttttttttttttttte0rr8OOOOOOOOOOOOOOOOOq,568888888888999",
"999888888888865%qOOOOOOOOOOOOOOOOO8rr0etttttttttttttttttttttte0rr8OOOOOOOOOOOOOOOOOq,568888888888999",
"999888888888865%qOOOOOOOOOOOOOOOO8r000trrrrrrrrrrrrrrrrrrrrrrt000r8OOOOOOOOOOOOOOOOq 568888888888999",
"9998888888888653qOOOOOOOOOOOOOO88r000te0000000tee00eet0000000et000r88OOOOOOOOOOOOOOq=568888888888999",
"999888888888865:qOOOOOOOOOOOOO8rr00tte00000000tee00eet00000000ett00rr8OOOOOOOOOOOOOq=568888888888999",
"999888888888865@qOOOOOOOOOOOOO8rr00tte00000000tee00eet00000000ett00rr8OOOOOOOOOOOOOq%568888888888999",
"999888888888865=qOOOOOOOOOOOO8r000tee00000000te000000et00000000eet000r8OOOOOOOOOOOOq:568888888888999",
"999888888888865=qOOOOOOOOOOOO8r00te00000000tte00000000ett00000000et00r8OOOOOOOOOOOOq:568888888888999",
"999888888888865>qOOOOOOOOOOOO8rtte000000000tte00000000ett000000000ettr8OOOOOOOOOOOOq%568888888888999",
"999888888888865+qOOOOOOOOOOOO8rtte000000000tte00000000ett000000000ettr8OOOOOOOOOOOOqO568888888888999",
"999888888888865+qOOOOOOOOOOOO8ree000000000tee0000000000eet000000000eer8OOOOOOOOOOOOqO568888888888999",
"999888888888865+qOOOOOOOOOOOOO8rrtt0000000e00000000000000e0000000ttrr8OOOOOOOOOOOOOq>568888888888999",
"999888888888865%qOOOOOOOOOOOOOO88rettttttte00000000000000ettttttter88OOOOOOOOOOOOOOq.568888888888999",
"999888888888865%qOOOOOOOOOOOOOO88rettttttte00000000000000ettttttter88OOOOOOOOOOOOOOq&568888888888999",
"999888888888865%qOOOOOOOOOOOOOOOO8reeeeeerttttttttttttttttreeeeeer8OOOOOOOOOOOOOOOOq&568888888888999",
"999888888888865%qOOOOOOOOOOOOOOOOO8rr0000errrrrrrrrrrrrrrre0000rr8OOOOOOOOOOOOOOOOOq%568888888888999",
"999888888888865%qOOOOOOOOOOOOOOOOOO88r0000tee0000000000eet0000r88OOOOOOOOOOOOOOOOOOqO568888888888999",
"999888888888865%qOOOOOOOOOOOOOOOOOO88r0000tee0000000000eet0000r88OOOOOOOOOOOOOOOOOOqO568888888888999",
"999888888888865%qOOOOOOOOOOOOOOOOOOOO8r0000tte00000000ett0000r8OOOOOOOOOOOOOOOOOOOOq=568888888888999",
"999888888888865%qOOOOOOOOOOOOOOOOOOOOO8rr00tte00000000ett00rr8OOOOOOOOOOOOOOOOOOOOOq=568888888888999",
"999888888888865%qOOOOOOOOOOOOOOOOOOOOOO88r000te000000et000r88OOOOOOOOOOOOOOOOOOOOOOq=568888888888999",
"999888888888865%qOOOOOOOOOOOOOOOOOOOOOO88r000te000000et000r88OOOOOOOOOOOOOOOOOOOOOOq-568888888888999",
"999888888888865%qOOOOOOOOOOOOOOOOOOOOOOOO8r00te000000et00r8OOOOOOOOOOOOOOOOOOOOOOOOq4568888888888999",
"999888888888865%qOOOOOOOOOOOOOOOOOOOOOOOOO8rr0e000000e0rr8OOOOOOOOOOOOOOOOOOOOOOOOOq4568888888888999",
"999888888888865=qOOOOOOOOOOOOOOOOOOOOOOOOOO88r0ee00ee0r88OOOOOOOOOOOOOOOOOOOOOOOOOOqO568888888888999",
"999888888888865=qOOOOOOOOOOOOOOOOOOOOOOOOOO88r0ee00ee0r88OOOOOOOOOOOOOOOOOOOOOOOOOOqX568888888888999",
"999888888888865=qOOOOOOOOOOOOOOOOOOOOOOOOOOOO8ree00eer8OOOOOOOOOOOOOOOOOOOOOOOOOOOOqX568888888888999",
"999888888888865%qOOOOOOOOOOOOOOOOOOOOOOOOOOOOO8rreerr8OOOOOOOOOOOOOOOOOOOOOOOOOOOOOq 568888888888999",
"999888888888865=qOOOOOOOOOOOOOOOOOOOOOOOOOOOOOO88rr88OOOOOOOOOOOOOOOOOOOOOOOOOOOOOOq%568888888888999",
"999888888888865=qOOOOOOOOOOOOOOOOOOOOOOOOOOOOOO88rr88OOOOOOOOOOOOOOOOOOOOOOOOOOOOOOq%568888888888999",
"999888888888865=qOOOOOOOOOOOOOOOOOOOOOOOOOOOOOOOO88OOOOOOOOOOOOOOOOOOOOOOOOOOOOOOOOq%568888888888999",
"999888888888865=qOOOOOOOOOOOOOOOOOOOOOOOOOOOOOOOOOOOOOOOOOOOOOOOOOOOOOOOOOOOOOOOOOOq%568888888888999",
"999888888888865=qOOOOOOOOOOOOOOOOOOOOOOOOOOOOOOOOOOOOOOOOOOOOOOOOOOOOOOOOOOOOOOOOOOq%568888888888999",
"999888888888865XqOOOOOOOOOOOOOOOOOOOOOOOOOOOOOOOOOOOOOOOOOOOOOOOOOOOOOOOOOOOOOOOOOOq1568888888888999",
"999888888888865:qOOOOOOOOOOOOOOOOOOOOOOOOOOOOOOOOOOOOOOOOOOOOOOOOOOOOOOOOOOOOOOOOOOq 568888888888999",
"999888888888865:qOOOOOOOOOOOOOOOOOOOOOOOOOOOOOOOOOOOOOOOOOOOOOOOOOOOOOOOOOOOOOOOOOOq 568888888888999",
"999888888888865%qOOOOOOOOOOOOOOOOOOOOOOOOOOOOOOOOOOOOOOOOOOOOOOOOOOOOOOOOOOOOOOOOOOq 568888888888999",
"999888888888865%qOOOOOOOOOOOOOOOOOOOOOOOOOOOOOOOOOOOOOOOOOOOOOOOOOOOOOOOOOOOOOOOOOOqO568888888888999",
"999888888888865%qOOOOOOOOOOOOOOOOOOOOOOOOOOOOOOOOOOOOOOOOOOOOOOOOOOOOOOOOOOOOOOOOOOqO568888888888999",
"999888888888865%qOOOOOOOOOOOOOOOOOOOOOOOOOOOOOOOOOOOOOOOOOOOOOOOOOOOOOOOOOOOOOOOOOOqO568888888888999",
"999888888888865%qOOOOOOOOOOOOOOOOOOOOOOOOOOOOOOOOOOOOOOOOOOOOOOOOOOOOOOOOOOOOOOOOOOq&568888888888999",
"999888888888865%qOOOOOOOOOOOOOOOOOOOOOOOOOOOOOOOOOOOOOOOOOOOOOOOOOOOOOOOOOOOOOOOOOOq&568888888888999",
"999888888888865%qOOOOOOOOOOOOOOOOOOOOOOOOOOOOOOOOOOOOOOOOOOOOOOOOOOOOOOOOOOOOOOOOOOq=568888888888999",
"999888888888865=qOOOOOOOOOOOOOOOOOOOOOOOOOOOOOOOOOOOOOOOOOOOOOOOOOOOOOOOOOOOOOOOOOOq%568888888888999",
"999888888888865=qOOOOOOOOOOOOOOOOOOOOOOOOOOOOOOOOOOOOOOOOOOOOOOOOOOOOOOOOOOOOOOOOOOq%568888888888999",
"9998888888888652qOOOOOOOOOOOOOOOOOOOOOOOOOOOOOOOOOOOOOOOOOOOOOOOOOOOOOOOOOOOOOOOOOOq-568888888888999",
"999888888888865=qOOOOOOOOOOOOOOOOOOOOOOOOOOOOOOOOOOOOOOOOOOOOOOOOOOOOOOOOOOOOOOOOOOq%568888888888999",
"999888888888865=qOOOOOOOOOOOOOOOOOOOOOOOOOOOOOOOOOOOOOOOOOOOOOOOOOOOOOOOOOOOOOOOOOOq%568888888888999",
"999888888888865=qOOOOOOOOOOOOOOOOOOOOOOOOOOOOOOOOOOOOOOOOOOOOOOOOOOOOOOOOOOOOOOOOOOq+568888888888999",
"999888888888865%qOOOOOOOOOOOOOOOOOOOOOOOOOOOOOOOOOOOOOOOOOOOOOOOOOOOOOOOOOOOOOOOOOOq<568888888888999",
"999888888888865%%qqqqqqqqqqqqqqqqqqqqqqqqqqqqqqqqqqqqqqqqqqqqqqqqqqqqqqqqqqqqqqqqqq+<568888888888999",
"9998888888888655  Xoo%OOXXXXXXXXXXXXX  XXXOOOoXXo+OO++ +OXOO%OOXXXXXXXXXXOOX++OOOOoo5568888888888999",
"9998888888888655555555555555555555555555555555555555555555555555555555555555555555555668888888888999",
"9998888888888666666666666666666666666666666666666666666666666666666666666666666666666668888888888999",
"9998888888886888888888888888888888888888888888888888888888888888888888888888888888888886888888888999",
"9998888888888888888888888888888888888888888888888888888888888888888888888888888888888888888888888999",
"9999888888888888888888888888888888888888888888888888888888888888888888888888888888888888888888889999",
"9999999999999999999999999999999999999999999999999999999999999999999999999999999999999999999999999999",
"9999999999999999999999999999999999999999999999999999999999999999999999999999999999999999999999999999",
"9999999999999999999999999999999999999999999999999999999999999999999999999999999999999999999999999999"
};
