/* XPM */
static char *ba1a70a51a2b4d6fa9af6fd7555d2c85K1ITjYRvM8X2OiFy[] = {
/* columns rows colors chars-per-pixel */
"100 100 13 1 ",
"  c #020015",
". c #320E0E",
"X c #361414",
"o c #111D2B",
"O c #162535",
"+ c #1A2B3B",
"@ c #1E303E",
"# c #4D3B0D",
"$ c #70550F",
"% c #A68122",
"& c #C5992B",
"* c #D1A332",
"= c #F3C34A",
/* pixels */
"@@@@@@@@@@@@@@@@@@@@@@@@@@@@@@@@@@@@@@@@@@@@@@@@@@@@@@@@@@@@@@@@@@@@@@@@@@@@@@@@@@@@@@@@@@@@@@@@@@@@",
"@@@@@@@@@@@@@@@@@@@@@@@@@@@@@@@@@@@@@@@@@@@@@@@@@@@@@@@@@@@@@@@@@@@@@@@@@@@@@@@@@@@@@@@@@@@@@@@@@@@@",
"@@@@@@@@@@@@@@@@@@@@@@@@@@@@@@@@@@@@@@@@@@@@@@@@@@@@@@@@@@@@@@@@@@@@@@@@@@@@@@@@@@@@@@@@@@@@@@@@@@@@",
"@@@@++++++++++++++++++++++++++++++++++++++++++++++++++++++++++++++++++++++++++++++++++++++++++++@@@@",
"@@@++++++++++++++++++++++++++++++++++++++++++++++++++++++++++++++++++++++++++++++++++++++++++++++@@@",
"@@@++++++++++++++++++++++++++++++++++++++++++++++++++++++++++++++++++++++++++++++++++++++++++++++@@@",
"@@@+++++++++O++++++++++++++++++++++++++++++++++++++++++++++++++++++++++++++++++++++++++O+++++++++@@@",
"@@@++++++++++OOOOOOOOOOOOOOOOOOOOOOOOOOOOOOOOOOOOOOOOOOOOOOOOOOOOOOOOOOOOOOOOOOOOOOOOOO++++++++++@@@",
"@@@++++++++++OooooooooooooooooooooooooooooooooooooooooooooooooooooooooooooooooooooooooO++++++++++@@@",
"@@@++++++++++Ooo....................................................................ooO++++++++++@@@",
"@@@++++++++++Oo.XXXXXXXXXXXXXXXXXXXXXXXXXXXXXXXXXXXXXXXXXXXXXXXXXXXXXXXXXXXXXXXXXXXX.oO++++++++++@@@",
"@@@++++++++++Oo.X                                                                  X.oO++++++++++@@@",
"@@@++++++++++Oo.X                                                                  X.oO++++++++++@@@",
"@@@++++++++++Oo.X                                                                  X.oO++++++++++@@@",
"@@@++++++++++Oo.X                                                                  X.oO++++++++++@@@",
"@@@++++++++++Oo.X                                                                  X.oO++++++++++@@@",
"@@@++++++++++Oo.X                                                                  X.oO++++++++++@@@",
"@@@++++++++++Oo.X                                                                  X.oO++++++++++@@@",
"@@@++++++++++Oo.X                                                                  X.oO++++++++++@@@",
"@@@++++++++++Oo.X                                                                  X.oO++++++++++@@@",
"@@@++++++++++Oo.X                                                                  X.oO++++++++++@@@",
"@@@++++++++++Oo.X                                                                  X.oO++++++++++@@@",
"@@@++++++++++Oo.X                                                                  X.oO++++++++++@@@",
"@@@++++++++++Oo.X                                                                  X.oO++++++++++@@@",
"@@@++++++++++Oo.X                                                                  X.oO++++++++++@@@",
"@@@++++++++++Oo.X                                                                  X.oO++++++++++@@@",
"@@@++++++++++Oo.X                                                                  X.oO++++++++++@@@",
"@@@++++++++++Oo.X                                                                  X.oO++++++++++@@@",
"@@@++++++++++Oo.X                                                                  X.oO++++++++++@@@",
"@@@++++++++++Oo.X                                                                  X.oO++++++++++@@@",
"@@@++++++++++Oo.X                                                                  X.oO++++++++++@@@",
"@@@++++++++++Oo.X                                                                  X.oO++++++++++@@@",
"@@@++++++++++Oo.X                                                                  X.oO++++++++++@@@",
"@@@++++++++++Oo.X                                                                  X.oO++++++++++@@@",
"@@@++++++++++Oo.X                                                                  X.oO++++++++++@@@",
"@@@++++++++++Oo.X                                                                  X.oO++++++++++@@@",
"@@@++++++++++Oo.X                                                                  X.oO++++++++++@@@",
"@@@++++++++++Oo.X                                                                  X.oO++++++++++@@@",
"@@@++++++++++Oo.X                    ##########################                    X.oO++++++++++@@@",
"@@@++++++++++Oo.X                  ##&&&&&&&&&&&&&&&&&&&&&&&&&&##                  X.oO++++++++++@@@",
"@@@++++++++++Oo.X                 #&&$%======================%$&&#                 X.oO++++++++++@@@",
"@@@++++++++++Oo.X                 #&&$%======================%$&&#                 X.oO++++++++++@@@",
"@@@++++++++++Oo.X                #&$$$=**********************=$$$&#                X.oO++++++++++@@@",
"@@@++++++++++Oo.X              ##&$$$=%$$$$$$$=%%$$%%=$$$$$$$%=$$$&##              X.oO++++++++++@@@",
"@@@++++++++++Oo.X             #&&$$==%$$$$$$$$=%%$$%%=$$$$$$$$%==$$&&#             X.oO++++++++++@@@",
"@@@++++++++++Oo.X             #&&$$==%$$$$$$$$=%%$$%%=$$$$$$$$%==$$&&#             X.oO++++++++++@@@",
"@@@++++++++++Oo.X            #&$$$=%%$$$$$$$$=%$$$$$$%=$$$$$$$$%%=$$$&#            X.oO++++++++++@@@",
"@@@++++++++++Oo.X            #&$$=%$$$$$$$$==%$$$$$$$$%==$$$$$$$$%=$$&#            X.oO++++++++++@@@",
"@@@++++++++++Oo.X            #&==%$$$$$$$$$==%$$$$$$$$%==$$$$$$$$$%==&#            X.oO++++++++++@@@",
"@@@++++++++++Oo.X            #&==%$$$$$$$$$==%$$$$$$$$%==$$$$$$$$$%==&#            X.oO++++++++++@@@",
"@@@++++++++++Oo.X            #&%%$$$$$$$$$=%%$$$$$$$$$$%%=$$$$$$$$$%%&#            X.oO++++++++++@@@",
"@@@++++++++++Oo.X             #&&==$$$$$$$%$$$$$$$$$$$$$$%$$$$$$$==&&#             X.oO++++++++++@@@",
"@@@++++++++++Oo.X              ##&%=======%$$$$$$$$$$$$$$%=======%&##              X.oO++++++++++@@@",
"@@@++++++++++Oo.X              ##&%=======%$$$$$$$$$$$$$$%=======%&##              X.oO++++++++++@@@",
"@@@++++++++++Oo.X                #&%%%%%%*================*%%%%%%&#                X.oO++++++++++@@@",
"@@@++++++++++Oo.X                 #&&$$$$%****************%$$$$&&#                 X.oO++++++++++@@@",
"@@@++++++++++Oo.X                  ##&$$$$=%%$$$$$$$$$$%%=$$$$&##                  X.oO++++++++++@@@",
"@@@++++++++++Oo.X                  ##&$$$$=%%$$$$$$$$$$%%=$$$$&##                  X.oO++++++++++@@@",
"@@@++++++++++Oo.X                    #&$$$$==%$$$$$$$$%==$$$$&#                    X.oO++++++++++@@@",
"@@@++++++++++Oo.X                     #&&$$==%$$$$$$$$%==$$&&#                     X.oO++++++++++@@@",
"@@@++++++++++Oo.X                      ##&$$$=%$$$$$$%=$$$&##                      X.oO++++++++++@@@",
"@@@++++++++++Oo.X                      ##&$$$=%$$$$$$%=$$$&##                      X.oO++++++++++@@@",
"@@@++++++++++Oo.X                        #&$$=%$$$$$$%=$$&#                        X.oO++++++++++@@@",
"@@@++++++++++Oo.X                         #&&$%$$$$$$%$&&#                         X.oO++++++++++@@@",
"@@@++++++++++Oo.X                          ##&$%%$$%%$&##                          X.oO++++++++++@@@",
"@@@++++++++++Oo.X                          ##&$%%$$%%$&##                          X.oO++++++++++@@@",
"@@@++++++++++Oo.X                            #&%%$$%%&#                            X.oO++++++++++@@@",
"@@@++++++++++Oo.X                             #&&%%&&#                             X.oO++++++++++@@@",
"@@@++++++++++Oo.X                              ##&&##                              X.oO++++++++++@@@",
"@@@++++++++++Oo.X                              ##&&##                              X.oO++++++++++@@@",
"@@@++++++++++Oo.X                                ##                                X.oO++++++++++@@@",
"@@@++++++++++Oo.X                                                                  X.oO++++++++++@@@",
"@@@++++++++++Oo.X                                                                  X.oO++++++++++@@@",
"@@@++++++++++Oo.X                                                                  X.oO++++++++++@@@",
"@@@++++++++++Oo.X                                                                  X.oO++++++++++@@@",
"@@@++++++++++Oo.X                                                                  X.oO++++++++++@@@",
"@@@++++++++++Oo.X                                                                  X.oO++++++++++@@@",
"@@@++++++++++Oo.X                                                                  X.oO++++++++++@@@",
"@@@++++++++++Oo.X                                                                  X.oO++++++++++@@@",
"@@@++++++++++Oo.X                                                                  X.oO++++++++++@@@",
"@@@++++++++++Oo.X                                                                  X.oO++++++++++@@@",
"@@@++++++++++Oo.X                                                                  X.oO++++++++++@@@",
"@@@++++++++++Oo.X                                                                  X.oO++++++++++@@@",
"@@@++++++++++Oo.X                                                                  X.oO++++++++++@@@",
"@@@++++++++++Oo.X                                                                  X.oO++++++++++@@@",
"@@@++++++++++Oo.X                                                                  X.oO++++++++++@@@",
"@@@++++++++++Oo.X                                                                  X.oO++++++++++@@@",
"@@@++++++++++Oo.X                                                                  X.oO++++++++++@@@",
"@@@++++++++++Oo.X                                                                  X.oO++++++++++@@@",
"@@@++++++++++Oo.X                                                                  X.oO++++++++++@@@",
"@@@++++++++++Oo.XXXXXXXXXXXXXXXXXXXXXXXXXXXXXXXXXXXXXXXXXXXXXXXXXXXXXXXXXXXXXXXXXXXX.oO++++++++++@@@",
"@@@++++++++++Ooo....................................................................ooO++++++++++@@@",
"@@@++++++++++OoooooooooooooooooooooooooooooooooooooooooooooooooooooooooooooooooooooooOO++++++++++@@@",
"@@@++++++++++OOOOOOOOOOOOOOOOOOOOOOOOOOOOOOOOOOOOOOOOOOOOOOOOOOOOOOOOOOOOOOOOOOOOOOOOOO++++++++++@@@",
"@@@+++++++++O++++++++++++++++++++++++++++++++++++++++++++++++++++++++++++++++++++++++++O+++++++++@@@",
"@@@++++++++++++++++++++++++++++++++++++++++++++++++++++++++++++++++++++++++++++++++++++++++++++++@@@",
"@@@@++++++++++++++++++++++++++++++++++++++++++++++++++++++++++++++++++++++++++++++++++++++++++++@@@@",
"@@@@@@@@@@@@@@@@@@@@@@@@@@@@@@@@@@@@@@@@@@@@@@@@@@@@@@@@@@@@@@@@@@@@@@@@@@@@@@@@@@@@@@@@@@@@@@@@@@@@",
"@@@@@@@@@@@@@@@@@@@@@@@@@@@@@@@@@@@@@@@@@@@@@@@@@@@@@@@@@@@@@@@@@@@@@@@@@@@@@@@@@@@@@@@@@@@@@@@@@@@@",
"@@@@@@@@@@@@@@@@@@@@@@@@@@@@@@@@@@@@@@@@@@@@@@@@@@@@@@@@@@@@@@@@@@@@@@@@@@@@@@@@@@@@@@@@@@@@@@@@@@@@"
};
